ISO-10303-21;
HEADER;
/*Generated by software containing ST-Developer
 * from STEP Tools, Inc. (www.steptools.com) 
 */
/*OPTION: using custom renumber hook */
/*description */
/*implementation_level */
FILE_DESCRIPTION(('STEP AP242 Edition 2','STEP AP242 Edition 2''CAx-IF Rec.Pracs.---Representation and Presentation of Product Manufa
cturing Information (PMI)---4.0---2014-10-13','STEP AP242 Edition 2''CAx-IF Rec.Pracs.---Representation and Presentation of Product Manufa
cturing Information (PMI)---4.0---2014-10-13''CAx-IF Rec.Pracs.---3D Tessellated Geometry---0.4---2014-09-14','STEP AP242 Edition 2''CAx-IF Rec.Pracs.---Representation and Presentation of Product Manufa
cturing Information (PMI)---4.0---2014-10-13''CAx-IF Rec.Pracs.---3D Tessellated Geometry---0.4---2014-09-14''2;1','STEP AP242 Edition 2''CAx-IF Rec.Pracs.---Representation and Presentation of Product Manufa
cturing Information (PMI)---4.0---2014-10-13''CAx-IF Rec.Pracs.---3D Tessellated Geometry---0.4---2014-09-14''2;1''CAx-IF Rec.Pracs.---User Defined Attributes---1.5---2016-08-15'),'2;1');
/*name */
/*time_stamp */
/*author */
/*organization */
/*preprocessor_version */
/*originating_system */
/*authorisation */
FILE_NAME('/vol/tmp/translate-10225530698104390413/Part Studio 2 - Part 1.step','2026-03-09T18:49:13',(''),(''),'ST-DEVELOPER v20','ONSHAPE BY PTC INC, 1.211','  ');
FILE_SCHEMA(('AP242_MANAGED_MODEL_BASED_3D_ENGINEERING_MIM_LF { 1 0 10303 442 3 1 4 }'));
ENDSEC;
DATA;
#10=SHAPE_REPRESENTATION_RELATIONSHIP('','',#1086,#11);
#11=ADVANCED_BREP_SHAPE_REPRESENTATION('',(#1084),#1815);
#12=SPHERICAL_SURFACE('',#1148,0.001571);
#13=SPHERICAL_SURFACE('',#1154,0.001571);
#14=(
B_SPLINE_SURFACE(3,2,((#1715,#1716,#1717),(#1718,#1719,#1720),(#1721,#1722,
#1723),(#1724,#1725,#1726),(#1727,#1728,#1729),(#1730,#1731,#1732),(#1733,
#1734,#1735)),.UNSPECIFIED.,.F.,.F.,.F.)
B_SPLINE_SURFACE_WITH_KNOTS((4,1,1,1,4),(3,3),(3.14159265358979,3.53429173528852,3.92699081698724,4.31968989868597,4.71238898038469),(0.,1.),.UNSPECIFIED.)
BOUNDED_SURFACE()
GEOMETRIC_REPRESENTATION_ITEM()
RATIONAL_B_SPLINE_SURFACE(((1.,0.707106781186548,1.),(1.,0.707106781199505,
1.),(1.,0.746571860824191,1.),(1.,0.869029034407674,1.),(1.,0.973464424251744,
1.),(1.,0.999999999998776,1.),(1.,1.,1.)))
REPRESENTATION_ITEM('')
SURFACE()
);
#15=(
B_SPLINE_SURFACE(3,2,((#1751,#1752,#1753),(#1754,#1755,#1756),(#1757,#1758,
#1759),(#1760,#1761,#1762),(#1763,#1764,#1765),(#1766,#1767,#1768),(#1769,
#1770,#1771)),.UNSPECIFIED.,.F.,.F.,.F.)
B_SPLINE_SURFACE_WITH_KNOTS((4,1,1,1,4),(3,3),(4.92961880051117,5.26801042717828,5.60640205384538,5.94479368051248,6.28318530717959),(0.,1.),.UNSPECIFIED.)
BOUNDED_SURFACE()
GEOMETRIC_REPRESENTATION_ITEM()
RATIONAL_B_SPLINE_SURFACE(((1.,0.988318979771746,1.),(1.,0.976309031471654,
1.),(1.,0.933858533516265,1.),(1.,0.834071305013845,1.),(1.,0.735879778177437,
1.),(1.,0.707106781197713,1.),(1.,0.707106781186548,1.)))
REPRESENTATION_ITEM('')
SURFACE()
);
#16=ELLIPSE('',#1136,0.0044917739257447,0.003863);
#17=ELLIPSE('',#1138,0.00449177392574471,0.003863);
#18=ELLIPSE('',#1140,0.00449177392574471,0.003863);
#19=ELLIPSE('',#1142,0.00449177392574471,0.003863);
#20=CYLINDRICAL_SURFACE('',#1117,0.001);
#21=CYLINDRICAL_SURFACE('',#1119,0.00144);
#22=CYLINDRICAL_SURFACE('',#1121,0.00144);
#23=CYLINDRICAL_SURFACE('',#1123,0.00144);
#24=CYLINDRICAL_SURFACE('',#1125,0.00144);
#25=CYLINDRICAL_SURFACE('',#1126,0.001);
#26=CYLINDRICAL_SURFACE('',#1135,0.003863);
#27=CYLINDRICAL_SURFACE('',#1137,0.003863);
#28=CYLINDRICAL_SURFACE('',#1141,0.003863);
#29=CYLINDRICAL_SURFACE('',#1144,0.001571);
#30=CYLINDRICAL_SURFACE('',#1146,0.001571);
#31=CYLINDRICAL_SURFACE('',#1150,0.001571);
#32=CYLINDRICAL_SURFACE('',#1152,0.001571);
#33=CYLINDRICAL_SURFACE('',#1156,0.001571);
#34=CIRCLE('',#1091,0.003863);
#35=CIRCLE('',#1093,0.001);
#36=CIRCLE('',#1094,0.001);
#37=CIRCLE('',#1095,0.00144);
#38=CIRCLE('',#1096,0.00144);
#39=CIRCLE('',#1097,0.00144);
#40=CIRCLE('',#1098,0.00144);
#41=CIRCLE('',#1101,0.001);
#42=CIRCLE('',#1102,0.001571);
#43=CIRCLE('',#1103,0.001571);
#44=CIRCLE('',#1104,0.003863);
#45=CIRCLE('',#1105,0.003863);
#46=CIRCLE('',#1106,0.001);
#47=CIRCLE('',#1107,0.00144);
#48=CIRCLE('',#1108,0.00144);
#49=CIRCLE('',#1109,0.00144);
#50=CIRCLE('',#1110,0.00144);
#51=CIRCLE('',#1139,0.003863);
#52=CIRCLE('',#1143,0.001571);
#53=CIRCLE('',#1145,0.001571);
#54=CIRCLE('',#1147,0.001571);
#55=CIRCLE('',#1149,0.001571);
#56=CIRCLE('',#1151,0.001571);
#57=CIRCLE('',#1153,0.001571);
#58=CIRCLE('',#1155,0.001571);
#59=CIRCLE('',#1157,0.001571);
#60=B_SPLINE_CURVE_WITH_KNOTS('',3,(#1476,#1477,#1478,#1479),.UNSPECIFIED.,.F.,.F.,(4,4),(0.,0.00035189004223513),.UNSPECIFIED.);
#61=B_SPLINE_CURVE_WITH_KNOTS('',3,(#1562,#1563,#1564,#1565),.UNSPECIFIED.,.F.,.F.,(4,4),(0.,0.000351890042235128),.UNSPECIFIED.);
#62=ORIENTED_EDGE('',*,*,#362,.T.);
#63=ORIENTED_EDGE('',*,*,#363,.T.);
#64=ORIENTED_EDGE('',*,*,#364,.T.);
#65=ORIENTED_EDGE('',*,*,#365,.F.);
#66=ORIENTED_EDGE('',*,*,#366,.T.);
#67=ORIENTED_EDGE('',*,*,#367,.T.);
#68=ORIENTED_EDGE('',*,*,#368,.T.);
#69=ORIENTED_EDGE('',*,*,#369,.F.);
#70=ORIENTED_EDGE('',*,*,#370,.F.);
#71=ORIENTED_EDGE('',*,*,#371,.F.);
#72=ORIENTED_EDGE('',*,*,#372,.F.);
#73=ORIENTED_EDGE('',*,*,#373,.F.);
#74=ORIENTED_EDGE('',*,*,#374,.T.);
#75=ORIENTED_EDGE('',*,*,#370,.T.);
#76=ORIENTED_EDGE('',*,*,#375,.T.);
#77=ORIENTED_EDGE('',*,*,#376,.F.);
#78=ORIENTED_EDGE('',*,*,#377,.F.);
#79=ORIENTED_EDGE('',*,*,#378,.T.);
#80=ORIENTED_EDGE('',*,*,#379,.F.);
#81=ORIENTED_EDGE('',*,*,#380,.T.);
#82=ORIENTED_EDGE('',*,*,#381,.T.);
#83=ORIENTED_EDGE('',*,*,#382,.T.);
#84=ORIENTED_EDGE('',*,*,#383,.F.);
#85=ORIENTED_EDGE('',*,*,#384,.F.);
#86=ORIENTED_EDGE('',*,*,#385,.T.);
#87=ORIENTED_EDGE('',*,*,#386,.T.);
#88=ORIENTED_EDGE('',*,*,#387,.F.);
#89=ORIENTED_EDGE('',*,*,#388,.T.);
#90=ORIENTED_EDGE('',*,*,#389,.T.);
#91=ORIENTED_EDGE('',*,*,#390,.T.);
#92=ORIENTED_EDGE('',*,*,#391,.F.);
#93=ORIENTED_EDGE('',*,*,#392,.T.);
#94=ORIENTED_EDGE('',*,*,#393,.F.);
#95=ORIENTED_EDGE('',*,*,#394,.T.);
#96=ORIENTED_EDGE('',*,*,#395,.T.);
#97=ORIENTED_EDGE('',*,*,#396,.T.);
#98=ORIENTED_EDGE('',*,*,#397,.T.);
#99=ORIENTED_EDGE('',*,*,#398,.T.);
#100=ORIENTED_EDGE('',*,*,#399,.F.);
#101=ORIENTED_EDGE('',*,*,#376,.T.);
#102=ORIENTED_EDGE('',*,*,#400,.T.);
#103=ORIENTED_EDGE('',*,*,#401,.F.);
#104=ORIENTED_EDGE('',*,*,#402,.F.);
#105=ORIENTED_EDGE('',*,*,#403,.T.);
#106=ORIENTED_EDGE('',*,*,#404,.T.);
#107=ORIENTED_EDGE('',*,*,#405,.F.);
#108=ORIENTED_EDGE('',*,*,#406,.T.);
#109=ORIENTED_EDGE('',*,*,#387,.T.);
#110=ORIENTED_EDGE('',*,*,#407,.T.);
#111=ORIENTED_EDGE('',*,*,#405,.T.);
#112=ORIENTED_EDGE('',*,*,#408,.F.);
#113=ORIENTED_EDGE('',*,*,#368,.F.);
#114=ORIENTED_EDGE('',*,*,#409,.T.);
#115=ORIENTED_EDGE('',*,*,#410,.T.);
#116=ORIENTED_EDGE('',*,*,#411,.T.);
#117=ORIENTED_EDGE('',*,*,#412,.F.);
#118=ORIENTED_EDGE('',*,*,#413,.F.);
#119=ORIENTED_EDGE('',*,*,#414,.F.);
#120=ORIENTED_EDGE('',*,*,#415,.F.);
#121=ORIENTED_EDGE('',*,*,#416,.T.);
#122=ORIENTED_EDGE('',*,*,#417,.F.);
#123=ORIENTED_EDGE('',*,*,#418,.T.);
#124=ORIENTED_EDGE('',*,*,#419,.F.);
#125=ORIENTED_EDGE('',*,*,#420,.T.);
#126=ORIENTED_EDGE('',*,*,#421,.T.);
#127=ORIENTED_EDGE('',*,*,#422,.T.);
#128=ORIENTED_EDGE('',*,*,#423,.F.);
#129=ORIENTED_EDGE('',*,*,#424,.T.);
#130=ORIENTED_EDGE('',*,*,#425,.F.);
#131=ORIENTED_EDGE('',*,*,#426,.F.);
#132=ORIENTED_EDGE('',*,*,#427,.F.);
#133=ORIENTED_EDGE('',*,*,#428,.F.);
#134=ORIENTED_EDGE('',*,*,#429,.F.);
#135=ORIENTED_EDGE('',*,*,#430,.T.);
#136=ORIENTED_EDGE('',*,*,#431,.F.);
#137=ORIENTED_EDGE('',*,*,#432,.T.);
#138=ORIENTED_EDGE('',*,*,#433,.T.);
#139=ORIENTED_EDGE('',*,*,#434,.F.);
#140=ORIENTED_EDGE('',*,*,#435,.F.);
#141=ORIENTED_EDGE('',*,*,#436,.T.);
#142=ORIENTED_EDGE('',*,*,#437,.T.);
#143=ORIENTED_EDGE('',*,*,#438,.T.);
#144=ORIENTED_EDGE('',*,*,#439,.T.);
#145=ORIENTED_EDGE('',*,*,#440,.T.);
#146=ORIENTED_EDGE('',*,*,#441,.T.);
#147=ORIENTED_EDGE('',*,*,#442,.T.);
#148=ORIENTED_EDGE('',*,*,#415,.T.);
#149=ORIENTED_EDGE('',*,*,#379,.T.);
#150=ORIENTED_EDGE('',*,*,#443,.F.);
#151=ORIENTED_EDGE('',*,*,#444,.T.);
#152=ORIENTED_EDGE('',*,*,#384,.T.);
#153=ORIENTED_EDGE('',*,*,#445,.T.);
#154=ORIENTED_EDGE('',*,*,#421,.F.);
#155=ORIENTED_EDGE('',*,*,#446,.T.);
#156=ORIENTED_EDGE('',*,*,#447,.T.);
#157=ORIENTED_EDGE('',*,*,#448,.T.);
#158=ORIENTED_EDGE('',*,*,#449,.T.);
#159=ORIENTED_EDGE('',*,*,#383,.T.);
#160=ORIENTED_EDGE('',*,*,#450,.F.);
#161=ORIENTED_EDGE('',*,*,#451,.T.);
#162=ORIENTED_EDGE('',*,*,#452,.T.);
#163=ORIENTED_EDGE('',*,*,#375,.F.);
#164=ORIENTED_EDGE('',*,*,#369,.T.);
#165=ORIENTED_EDGE('',*,*,#408,.T.);
#166=ORIENTED_EDGE('',*,*,#404,.F.);
#167=ORIENTED_EDGE('',*,*,#453,.T.);
#168=ORIENTED_EDGE('',*,*,#434,.T.);
#169=ORIENTED_EDGE('',*,*,#454,.F.);
#170=ORIENTED_EDGE('',*,*,#400,.F.);
#171=ORIENTED_EDGE('',*,*,#417,.T.);
#172=ORIENTED_EDGE('',*,*,#455,.T.);
#173=ORIENTED_EDGE('',*,*,#456,.T.);
#174=ORIENTED_EDGE('',*,*,#457,.T.);
#175=ORIENTED_EDGE('',*,*,#419,.T.);
#176=ORIENTED_EDGE('',*,*,#458,.T.);
#177=ORIENTED_EDGE('',*,*,#459,.T.);
#178=ORIENTED_EDGE('',*,*,#460,.T.);
#179=ORIENTED_EDGE('',*,*,#423,.T.);
#180=ORIENTED_EDGE('',*,*,#390,.F.);
#181=ORIENTED_EDGE('',*,*,#391,.T.);
#182=ORIENTED_EDGE('',*,*,#461,.T.);
#183=ORIENTED_EDGE('',*,*,#424,.F.);
#184=ORIENTED_EDGE('',*,*,#462,.F.);
#185=ORIENTED_EDGE('',*,*,#462,.T.);
#186=ORIENTED_EDGE('',*,*,#431,.T.);
#187=ORIENTED_EDGE('',*,*,#463,.F.);
#188=ORIENTED_EDGE('',*,*,#392,.F.);
#189=ORIENTED_EDGE('',*,*,#393,.T.);
#190=ORIENTED_EDGE('',*,*,#463,.T.);
#191=ORIENTED_EDGE('',*,*,#430,.F.);
#192=ORIENTED_EDGE('',*,*,#464,.F.);
#193=ORIENTED_EDGE('',*,*,#464,.T.);
#194=ORIENTED_EDGE('',*,*,#429,.T.);
#195=ORIENTED_EDGE('',*,*,#465,.F.);
#196=ORIENTED_EDGE('',*,*,#394,.F.);
#197=ORIENTED_EDGE('',*,*,#465,.T.);
#198=ORIENTED_EDGE('',*,*,#428,.T.);
#199=ORIENTED_EDGE('',*,*,#466,.F.);
#200=ORIENTED_EDGE('',*,*,#395,.F.);
#201=ORIENTED_EDGE('',*,*,#466,.T.);
#202=ORIENTED_EDGE('',*,*,#427,.T.);
#203=ORIENTED_EDGE('',*,*,#467,.F.);
#204=ORIENTED_EDGE('',*,*,#396,.F.);
#205=ORIENTED_EDGE('',*,*,#467,.T.);
#206=ORIENTED_EDGE('',*,*,#426,.T.);
#207=ORIENTED_EDGE('',*,*,#468,.F.);
#208=ORIENTED_EDGE('',*,*,#397,.F.);
#209=ORIENTED_EDGE('',*,*,#468,.T.);
#210=ORIENTED_EDGE('',*,*,#425,.T.);
#211=ORIENTED_EDGE('',*,*,#461,.F.);
#212=ORIENTED_EDGE('',*,*,#398,.F.);
#213=ORIENTED_EDGE('',*,*,#414,.T.);
#214=ORIENTED_EDGE('',*,*,#389,.F.);
#215=ORIENTED_EDGE('',*,*,#432,.F.);
#216=ORIENTED_EDGE('',*,*,#469,.F.);
#217=ORIENTED_EDGE('',*,*,#402,.T.);
#218=ORIENTED_EDGE('',*,*,#470,.T.);
#219=ORIENTED_EDGE('',*,*,#435,.T.);
#220=ORIENTED_EDGE('',*,*,#453,.F.);
#221=ORIENTED_EDGE('',*,*,#403,.F.);
#222=ORIENTED_EDGE('',*,*,#469,.T.);
#223=ORIENTED_EDGE('',*,*,#433,.F.);
#224=ORIENTED_EDGE('',*,*,#470,.F.);
#225=ORIENTED_EDGE('',*,*,#401,.T.);
#226=ORIENTED_EDGE('',*,*,#454,.T.);
#227=ORIENTED_EDGE('',*,*,#410,.F.);
#228=ORIENTED_EDGE('',*,*,#471,.F.);
#229=ORIENTED_EDGE('',*,*,#472,.T.);
#230=ORIENTED_EDGE('',*,*,#473,.T.);
#231=ORIENTED_EDGE('',*,*,#413,.T.);
#232=ORIENTED_EDGE('',*,*,#474,.F.);
#233=ORIENTED_EDGE('',*,*,#475,.F.);
#234=ORIENTED_EDGE('',*,*,#471,.T.);
#235=ORIENTED_EDGE('',*,*,#412,.T.);
#236=ORIENTED_EDGE('',*,*,#476,.F.);
#237=ORIENTED_EDGE('',*,*,#477,.F.);
#238=ORIENTED_EDGE('',*,*,#474,.T.);
#239=ORIENTED_EDGE('',*,*,#411,.F.);
#240=ORIENTED_EDGE('',*,*,#473,.F.);
#241=ORIENTED_EDGE('',*,*,#478,.T.);
#242=ORIENTED_EDGE('',*,*,#476,.T.);
#243=ORIENTED_EDGE('',*,*,#472,.F.);
#244=ORIENTED_EDGE('',*,*,#475,.T.);
#245=ORIENTED_EDGE('',*,*,#477,.T.);
#246=ORIENTED_EDGE('',*,*,#478,.F.);
#247=ORIENTED_EDGE('',*,*,#445,.F.);
#248=ORIENTED_EDGE('',*,*,#388,.F.);
#249=ORIENTED_EDGE('',*,*,#406,.F.);
#250=ORIENTED_EDGE('',*,*,#479,.T.);
#251=ORIENTED_EDGE('',*,*,#440,.F.);
#252=ORIENTED_EDGE('',*,*,#422,.F.);
#253=ORIENTED_EDGE('',*,*,#438,.F.);
#254=ORIENTED_EDGE('',*,*,#480,.T.);
#255=ORIENTED_EDGE('',*,*,#366,.F.);
#256=ORIENTED_EDGE('',*,*,#481,.F.);
#257=ORIENTED_EDGE('',*,*,#362,.F.);
#258=ORIENTED_EDGE('',*,*,#482,.F.);
#259=ORIENTED_EDGE('',*,*,#447,.F.);
#260=ORIENTED_EDGE('',*,*,#483,.T.);
#261=ORIENTED_EDGE('',*,*,#460,.F.);
#262=ORIENTED_EDGE('',*,*,#484,.T.);
#263=ORIENTED_EDGE('',*,*,#446,.F.);
#264=ORIENTED_EDGE('',*,*,#420,.F.);
#265=ORIENTED_EDGE('',*,*,#483,.F.);
#266=ORIENTED_EDGE('',*,*,#484,.F.);
#267=ORIENTED_EDGE('',*,*,#485,.F.);
#268=ORIENTED_EDGE('',*,*,#418,.F.);
#269=ORIENTED_EDGE('',*,*,#457,.F.);
#270=ORIENTED_EDGE('',*,*,#486,.F.);
#271=ORIENTED_EDGE('',*,*,#458,.F.);
#272=ORIENTED_EDGE('',*,*,#485,.T.);
#273=ORIENTED_EDGE('',*,*,#459,.F.);
#274=ORIENTED_EDGE('',*,*,#487,.F.);
#275=ORIENTED_EDGE('',*,*,#439,.F.);
#276=ORIENTED_EDGE('',*,*,#487,.T.);
#277=ORIENTED_EDGE('',*,*,#486,.T.);
#278=ORIENTED_EDGE('',*,*,#488,.F.);
#279=ORIENTED_EDGE('',*,*,#416,.F.);
#280=ORIENTED_EDGE('',*,*,#442,.F.);
#281=ORIENTED_EDGE('',*,*,#489,.F.);
#282=ORIENTED_EDGE('',*,*,#455,.F.);
#283=ORIENTED_EDGE('',*,*,#488,.T.);
#284=ORIENTED_EDGE('',*,*,#456,.F.);
#285=ORIENTED_EDGE('',*,*,#490,.F.);
#286=ORIENTED_EDGE('',*,*,#436,.F.);
#287=ORIENTED_EDGE('',*,*,#490,.T.);
#288=ORIENTED_EDGE('',*,*,#489,.T.);
#289=ORIENTED_EDGE('',*,*,#491,.F.);
#290=ORIENTED_EDGE('',*,*,#491,.T.);
#291=ORIENTED_EDGE('',*,*,#441,.F.);
#292=ORIENTED_EDGE('',*,*,#492,.F.);
#293=ORIENTED_EDGE('',*,*,#437,.F.);
#294=ORIENTED_EDGE('',*,*,#492,.T.);
#295=ORIENTED_EDGE('',*,*,#479,.F.);
#296=ORIENTED_EDGE('',*,*,#409,.F.);
#297=ORIENTED_EDGE('',*,*,#367,.F.);
#298=ORIENTED_EDGE('',*,*,#480,.F.);
#299=ORIENTED_EDGE('',*,*,#399,.T.);
#300=ORIENTED_EDGE('',*,*,#407,.F.);
#301=ORIENTED_EDGE('',*,*,#386,.F.);
#302=ORIENTED_EDGE('',*,*,#493,.T.);
#303=ORIENTED_EDGE('',*,*,#494,.T.);
#304=ORIENTED_EDGE('',*,*,#377,.T.);
#305=ORIENTED_EDGE('',*,*,#381,.F.);
#306=ORIENTED_EDGE('',*,*,#495,.F.);
#307=ORIENTED_EDGE('',*,*,#496,.T.);
#308=ORIENTED_EDGE('',*,*,#497,.T.);
#309=ORIENTED_EDGE('',*,*,#380,.F.);
#310=ORIENTED_EDGE('',*,*,#452,.F.);
#311=ORIENTED_EDGE('',*,*,#498,.T.);
#312=ORIENTED_EDGE('',*,*,#495,.T.);
#313=ORIENTED_EDGE('',*,*,#382,.F.);
#314=ORIENTED_EDGE('',*,*,#497,.F.);
#315=ORIENTED_EDGE('',*,*,#499,.T.);
#316=ORIENTED_EDGE('',*,*,#450,.T.);
#317=ORIENTED_EDGE('',*,*,#496,.F.);
#318=ORIENTED_EDGE('',*,*,#498,.F.);
#319=ORIENTED_EDGE('',*,*,#451,.F.);
#320=ORIENTED_EDGE('',*,*,#499,.F.);
#321=ORIENTED_EDGE('',*,*,#378,.F.);
#322=ORIENTED_EDGE('',*,*,#494,.F.);
#323=ORIENTED_EDGE('',*,*,#500,.T.);
#324=ORIENTED_EDGE('',*,*,#443,.T.);
#325=ORIENTED_EDGE('',*,*,#493,.F.);
#326=ORIENTED_EDGE('',*,*,#385,.F.);
#327=ORIENTED_EDGE('',*,*,#444,.F.);
#328=ORIENTED_EDGE('',*,*,#500,.F.);
#329=ORIENTED_EDGE('',*,*,#374,.F.);
#330=ORIENTED_EDGE('',*,*,#501,.F.);
#331=ORIENTED_EDGE('',*,*,#502,.T.);
#332=ORIENTED_EDGE('',*,*,#371,.T.);
#333=ORIENTED_EDGE('',*,*,#373,.T.);
#334=ORIENTED_EDGE('',*,*,#449,.F.);
#335=ORIENTED_EDGE('',*,*,#503,.F.);
#336=ORIENTED_EDGE('',*,*,#501,.T.);
#337=ORIENTED_EDGE('',*,*,#502,.F.);
#338=ORIENTED_EDGE('',*,*,#503,.T.);
#339=ORIENTED_EDGE('',*,*,#448,.F.);
#340=ORIENTED_EDGE('',*,*,#482,.T.);
#341=ORIENTED_EDGE('',*,*,#372,.T.);
#342=ORIENTED_EDGE('',*,*,#363,.F.);
#343=ORIENTED_EDGE('',*,*,#504,.F.);
#344=ORIENTED_EDGE('',*,*,#505,.T.);
#345=ORIENTED_EDGE('',*,*,#506,.T.);
#346=ORIENTED_EDGE('',*,*,#481,.T.);
#347=ORIENTED_EDGE('',*,*,#507,.F.);
#348=ORIENTED_EDGE('',*,*,#508,.F.);
#349=ORIENTED_EDGE('',*,*,#504,.T.);
#350=ORIENTED_EDGE('',*,*,#365,.T.);
#351=ORIENTED_EDGE('',*,*,#509,.F.);
#352=ORIENTED_EDGE('',*,*,#510,.F.);
#353=ORIENTED_EDGE('',*,*,#507,.T.);
#354=ORIENTED_EDGE('',*,*,#364,.F.);
#355=ORIENTED_EDGE('',*,*,#506,.F.);
#356=ORIENTED_EDGE('',*,*,#511,.T.);
#357=ORIENTED_EDGE('',*,*,#509,.T.);
#358=ORIENTED_EDGE('',*,*,#505,.F.);
#359=ORIENTED_EDGE('',*,*,#508,.T.);
#360=ORIENTED_EDGE('',*,*,#510,.T.);
#361=ORIENTED_EDGE('',*,*,#511,.F.);
#362=EDGE_CURVE('',#512,#513,#609,.T.);
#363=EDGE_CURVE('',#513,#514,#610,.T.);
#364=EDGE_CURVE('',#514,#515,#611,.T.);
#365=EDGE_CURVE('',#516,#515,#612,.T.);
#366=EDGE_CURVE('',#516,#517,#613,.T.);
#367=EDGE_CURVE('',#517,#518,#60,.T.);
#368=EDGE_CURVE('',#518,#519,#614,.T.);
#369=EDGE_CURVE('',#520,#519,#615,.T.);
#370=EDGE_CURVE('',#521,#520,#616,.T.);
#371=EDGE_CURVE('',#522,#521,#617,.T.);
#372=EDGE_CURVE('',#512,#522,#618,.T.);
#373=EDGE_CURVE('',#523,#524,#619,.T.);
#374=EDGE_CURVE('',#523,#521,#620,.T.);
#375=EDGE_CURVE('',#520,#525,#621,.T.);
#376=EDGE_CURVE('',#526,#525,#622,.T.);
#377=EDGE_CURVE('',#527,#526,#623,.T.);
#378=EDGE_CURVE('',#527,#528,#624,.T.);
#379=EDGE_CURVE('',#529,#528,#625,.T.);
#380=EDGE_CURVE('',#529,#530,#626,.T.);
#381=EDGE_CURVE('',#530,#531,#627,.T.);
#382=EDGE_CURVE('',#531,#532,#628,.T.);
#383=EDGE_CURVE('',#524,#532,#629,.T.);
#384=EDGE_CURVE('',#533,#534,#630,.T.);
#385=EDGE_CURVE('',#533,#535,#631,.T.);
#386=EDGE_CURVE('',#535,#536,#632,.T.);
#387=EDGE_CURVE('',#537,#536,#633,.T.);
#388=EDGE_CURVE('',#537,#534,#34,.F.);
#389=EDGE_CURVE('',#538,#538,#35,.T.);
#390=EDGE_CURVE('',#539,#539,#36,.T.);
#391=EDGE_CURVE('',#540,#541,#634,.T.);
#392=EDGE_CURVE('',#540,#542,#37,.T.);
#393=EDGE_CURVE('',#543,#542,#635,.T.);
#394=EDGE_CURVE('',#543,#544,#38,.T.);
#395=EDGE_CURVE('',#544,#545,#636,.T.);
#396=EDGE_CURVE('',#545,#546,#39,.T.);
#397=EDGE_CURVE('',#546,#547,#637,.T.);
#398=EDGE_CURVE('',#547,#541,#40,.T.);
#399=EDGE_CURVE('',#526,#548,#638,.T.);
#400=EDGE_CURVE('',#525,#549,#639,.T.);
#401=EDGE_CURVE('',#550,#549,#640,.T.);
#402=EDGE_CURVE('',#551,#550,#641,.T.);
#403=EDGE_CURVE('',#551,#552,#642,.T.);
#404=EDGE_CURVE('',#552,#553,#643,.T.);
#405=EDGE_CURVE('',#548,#553,#644,.T.);
#406=EDGE_CURVE('',#554,#537,#645,.T.);
#407=EDGE_CURVE('',#536,#548,#646,.T.);
#408=EDGE_CURVE('',#519,#553,#647,.T.);
#409=EDGE_CURVE('',#518,#554,#61,.T.);
#410=EDGE_CURVE('',#555,#556,#648,.T.);
#411=EDGE_CURVE('',#556,#557,#649,.T.);
#412=EDGE_CURVE('',#558,#557,#650,.T.);
#413=EDGE_CURVE('',#555,#558,#651,.T.);
#414=EDGE_CURVE('',#559,#559,#41,.T.);
#415=EDGE_CURVE('',#560,#561,#652,.T.);
#416=EDGE_CURVE('',#560,#562,#42,.F.);
#417=EDGE_CURVE('',#563,#562,#653,.T.);
#418=EDGE_CURVE('',#563,#564,#43,.F.);
#419=EDGE_CURVE('',#565,#564,#654,.T.);
#420=EDGE_CURVE('',#565,#566,#44,.F.);
#421=EDGE_CURVE('',#566,#567,#655,.T.);
#422=EDGE_CURVE('',#567,#561,#45,.F.);
#423=EDGE_CURVE('',#568,#568,#46,.T.);
#424=EDGE_CURVE('',#569,#570,#656,.T.);
#425=EDGE_CURVE('',#571,#570,#47,.T.);
#426=EDGE_CURVE('',#572,#571,#657,.T.);
#427=EDGE_CURVE('',#573,#572,#48,.T.);
#428=EDGE_CURVE('',#574,#573,#658,.T.);
#429=EDGE_CURVE('',#575,#574,#49,.T.);
#430=EDGE_CURVE('',#575,#576,#659,.T.);
#431=EDGE_CURVE('',#569,#576,#50,.T.);
#432=EDGE_CURVE('',#577,#578,#660,.T.);
#433=EDGE_CURVE('',#578,#579,#661,.T.);
#434=EDGE_CURVE('',#580,#579,#662,.T.);
#435=EDGE_CURVE('',#577,#580,#663,.T.);
#436=EDGE_CURVE('',#581,#582,#664,.T.);
#437=EDGE_CURVE('',#582,#583,#665,.T.);
#438=EDGE_CURVE('',#583,#584,#666,.F.);
#439=EDGE_CURVE('',#584,#581,#667,.T.);
#440=EDGE_CURVE('',#561,#585,#668,.F.);
#441=EDGE_CURVE('',#585,#586,#669,.F.);
#442=EDGE_CURVE('',#586,#560,#670,.F.);
#443=EDGE_CURVE('',#587,#528,#671,.T.);
#444=EDGE_CURVE('',#587,#533,#672,.T.);
#445=EDGE_CURVE('',#534,#567,#673,.T.);
#446=EDGE_CURVE('',#566,#588,#674,.T.);
#447=EDGE_CURVE('',#588,#589,#675,.T.);
#448=EDGE_CURVE('',#589,#590,#676,.T.);
#449=EDGE_CURVE('',#590,#524,#677,.T.);
#450=EDGE_CURVE('',#591,#532,#678,.T.);
#451=EDGE_CURVE('',#591,#592,#679,.T.);
#452=EDGE_CURVE('',#592,#529,#680,.T.);
#453=EDGE_CURVE('',#552,#580,#681,.T.);
#454=EDGE_CURVE('',#549,#579,#682,.T.);
#455=EDGE_CURVE('',#562,#593,#683,.T.);
#456=EDGE_CURVE('',#593,#594,#684,.F.);
#457=EDGE_CURVE('',#594,#563,#685,.F.);
#458=EDGE_CURVE('',#564,#595,#686,.T.);
#459=EDGE_CURVE('',#595,#596,#687,.F.);
#460=EDGE_CURVE('',#596,#565,#688,.F.);
#461=EDGE_CURVE('',#541,#570,#689,.T.);
#462=EDGE_CURVE('',#540,#569,#690,.T.);
#463=EDGE_CURVE('',#542,#576,#691,.T.);
#464=EDGE_CURVE('',#543,#575,#692,.T.);
#465=EDGE_CURVE('',#544,#574,#693,.T.);
#466=EDGE_CURVE('',#545,#573,#694,.T.);
#467=EDGE_CURVE('',#546,#572,#695,.T.);
#468=EDGE_CURVE('',#547,#571,#696,.T.);
#469=EDGE_CURVE('',#551,#577,#697,.T.);
#470=EDGE_CURVE('',#550,#578,#698,.T.);
#471=EDGE_CURVE('',#597,#555,#699,.T.);
#472=EDGE_CURVE('',#597,#598,#700,.T.);
#473=EDGE_CURVE('',#598,#556,#701,.T.);
#474=EDGE_CURVE('',#599,#558,#702,.T.);
#475=EDGE_CURVE('',#597,#599,#703,.T.);
#476=EDGE_CURVE('',#600,#557,#704,.T.);
#477=EDGE_CURVE('',#599,#600,#705,.T.);
#478=EDGE_CURVE('',#598,#600,#706,.T.);
#479=EDGE_CURVE('',#554,#585,#16,.F.);
#480=EDGE_CURVE('',#583,#517,#17,.T.);
#481=EDGE_CURVE('',#513,#516,#707,.T.);
#482=EDGE_CURVE('',#589,#512,#51,.F.);
#483=EDGE_CURVE('',#588,#584,#18,.T.);
#484=EDGE_CURVE('',#596,#588,#19,.F.);
#485=EDGE_CURVE('',#584,#596,#52,.T.);
#486=EDGE_CURVE('',#595,#594,#53,.T.);
#487=EDGE_CURVE('',#581,#595,#54,.T.);
#488=EDGE_CURVE('',#581,#594,#55,.F.);
#489=EDGE_CURVE('',#593,#586,#56,.T.);
#490=EDGE_CURVE('',#582,#593,#57,.T.);
#491=EDGE_CURVE('',#582,#586,#58,.F.);
#492=EDGE_CURVE('',#583,#585,#59,.T.);
#493=EDGE_CURVE('',#535,#601,#708,.T.);
#494=EDGE_CURVE('',#601,#527,#709,.T.);
#495=EDGE_CURVE('',#602,#530,#710,.T.);
#496=EDGE_CURVE('',#602,#603,#711,.T.);
#497=EDGE_CURVE('',#603,#531,#712,.T.);
#498=EDGE_CURVE('',#592,#602,#713,.T.);
#499=EDGE_CURVE('',#603,#591,#714,.T.);
#500=EDGE_CURVE('',#601,#587,#715,.T.);
#501=EDGE_CURVE('',#604,#523,#716,.T.);
#502=EDGE_CURVE('',#604,#522,#717,.T.);
#503=EDGE_CURVE('',#604,#590,#718,.T.);
#504=EDGE_CURVE('',#605,#513,#719,.T.);
#505=EDGE_CURVE('',#605,#606,#720,.T.);
#506=EDGE_CURVE('',#606,#514,#721,.T.);
#507=EDGE_CURVE('',#607,#516,#722,.T.);
#508=EDGE_CURVE('',#605,#607,#723,.T.);
#509=EDGE_CURVE('',#608,#515,#724,.T.);
#510=EDGE_CURVE('',#607,#608,#725,.T.);
#511=EDGE_CURVE('',#606,#608,#726,.T.);
#512=VERTEX_POINT('',#1466);
#513=VERTEX_POINT('',#1467);
#514=VERTEX_POINT('',#1469);
#515=VERTEX_POINT('',#1471);
#516=VERTEX_POINT('',#1473);
#517=VERTEX_POINT('',#1475);
#518=VERTEX_POINT('',#1480);
#519=VERTEX_POINT('',#1482);
#520=VERTEX_POINT('',#1484);
#521=VERTEX_POINT('',#1486);
#522=VERTEX_POINT('',#1488);
#523=VERTEX_POINT('',#1492);
#524=VERTEX_POINT('',#1493);
#525=VERTEX_POINT('',#1496);
#526=VERTEX_POINT('',#1498);
#527=VERTEX_POINT('',#1500);
#528=VERTEX_POINT('',#1502);
#529=VERTEX_POINT('',#1504);
#530=VERTEX_POINT('',#1506);
#531=VERTEX_POINT('',#1508);
#532=VERTEX_POINT('',#1510);
#533=VERTEX_POINT('',#1514);
#534=VERTEX_POINT('',#1515);
#535=VERTEX_POINT('',#1517);
#536=VERTEX_POINT('',#1519);
#537=VERTEX_POINT('',#1521);
#538=VERTEX_POINT('',#1525);
#539=VERTEX_POINT('',#1527);
#540=VERTEX_POINT('',#1529);
#541=VERTEX_POINT('',#1530);
#542=VERTEX_POINT('',#1532);
#543=VERTEX_POINT('',#1534);
#544=VERTEX_POINT('',#1536);
#545=VERTEX_POINT('',#1538);
#546=VERTEX_POINT('',#1540);
#547=VERTEX_POINT('',#1542);
#548=VERTEX_POINT('',#1545);
#549=VERTEX_POINT('',#1547);
#550=VERTEX_POINT('',#1549);
#551=VERTEX_POINT('',#1551);
#552=VERTEX_POINT('',#1553);
#553=VERTEX_POINT('',#1555);
#554=VERTEX_POINT('',#1559);
#555=VERTEX_POINT('',#1568);
#556=VERTEX_POINT('',#1569);
#557=VERTEX_POINT('',#1571);
#558=VERTEX_POINT('',#1573);
#559=VERTEX_POINT('',#1576);
#560=VERTEX_POINT('',#1578);
#561=VERTEX_POINT('',#1579);
#562=VERTEX_POINT('',#1581);
#563=VERTEX_POINT('',#1583);
#564=VERTEX_POINT('',#1585);
#565=VERTEX_POINT('',#1587);
#566=VERTEX_POINT('',#1589);
#567=VERTEX_POINT('',#1591);
#568=VERTEX_POINT('',#1594);
#569=VERTEX_POINT('',#1596);
#570=VERTEX_POINT('',#1597);
#571=VERTEX_POINT('',#1599);
#572=VERTEX_POINT('',#1601);
#573=VERTEX_POINT('',#1603);
#574=VERTEX_POINT('',#1605);
#575=VERTEX_POINT('',#1607);
#576=VERTEX_POINT('',#1609);
#577=VERTEX_POINT('',#1612);
#578=VERTEX_POINT('',#1613);
#579=VERTEX_POINT('',#1615);
#580=VERTEX_POINT('',#1617);
#581=VERTEX_POINT('',#1621);
#582=VERTEX_POINT('',#1622);
#583=VERTEX_POINT('',#1624);
#584=VERTEX_POINT('',#1626);
#585=VERTEX_POINT('',#1630);
#586=VERTEX_POINT('',#1632);
#587=VERTEX_POINT('',#1636);
#588=VERTEX_POINT('',#1640);
#589=VERTEX_POINT('',#1642);
#590=VERTEX_POINT('',#1644);
#591=VERTEX_POINT('',#1647);
#592=VERTEX_POINT('',#1649);
#593=VERTEX_POINT('',#1656);
#594=VERTEX_POINT('',#1658);
#595=VERTEX_POINT('',#1662);
#596=VERTEX_POINT('',#1664);
#597=VERTEX_POINT('',#1691);
#598=VERTEX_POINT('',#1693);
#599=VERTEX_POINT('',#1697);
#600=VERTEX_POINT('',#1701);
#601=VERTEX_POINT('',#1774);
#602=VERTEX_POINT('',#1778);
#603=VERTEX_POINT('',#1780);
#604=VERTEX_POINT('',#1792);
#605=VERTEX_POINT('',#1799);
#606=VERTEX_POINT('',#1801);
#607=VERTEX_POINT('',#1805);
#608=VERTEX_POINT('',#1809);
#609=LINE('',#1465,#727);
#610=LINE('',#1468,#728);
#611=LINE('',#1470,#729);
#612=LINE('',#1472,#730);
#613=LINE('',#1474,#731);
#614=LINE('',#1481,#732);
#615=LINE('',#1483,#733);
#616=LINE('',#1485,#734);
#617=LINE('',#1487,#735);
#618=LINE('',#1489,#736);
#619=LINE('',#1491,#737);
#620=LINE('',#1494,#738);
#621=LINE('',#1495,#739);
#622=LINE('',#1497,#740);
#623=LINE('',#1499,#741);
#624=LINE('',#1501,#742);
#625=LINE('',#1503,#743);
#626=LINE('',#1505,#744);
#627=LINE('',#1507,#745);
#628=LINE('',#1509,#746);
#629=LINE('',#1511,#747);
#630=LINE('',#1513,#748);
#631=LINE('',#1516,#749);
#632=LINE('',#1518,#750);
#633=LINE('',#1520,#751);
#634=LINE('',#1528,#752);
#635=LINE('',#1533,#753);
#636=LINE('',#1537,#754);
#637=LINE('',#1541,#755);
#638=LINE('',#1544,#756);
#639=LINE('',#1546,#757);
#640=LINE('',#1548,#758);
#641=LINE('',#1550,#759);
#642=LINE('',#1552,#760);
#643=LINE('',#1554,#761);
#644=LINE('',#1556,#762);
#645=LINE('',#1558,#763);
#646=LINE('',#1560,#764);
#647=LINE('',#1561,#765);
#648=LINE('',#1567,#766);
#649=LINE('',#1570,#767);
#650=LINE('',#1572,#768);
#651=LINE('',#1574,#769);
#652=LINE('',#1577,#770);
#653=LINE('',#1582,#771);
#654=LINE('',#1586,#772);
#655=LINE('',#1590,#773);
#656=LINE('',#1595,#774);
#657=LINE('',#1600,#775);
#658=LINE('',#1604,#776);
#659=LINE('',#1608,#777);
#660=LINE('',#1611,#778);
#661=LINE('',#1614,#779);
#662=LINE('',#1616,#780);
#663=LINE('',#1618,#781);
#664=LINE('',#1620,#782);
#665=LINE('',#1623,#783);
#666=LINE('',#1625,#784);
#667=LINE('',#1627,#785);
#668=LINE('',#1629,#786);
#669=LINE('',#1631,#787);
#670=LINE('',#1633,#788);
#671=LINE('',#1635,#789);
#672=LINE('',#1637,#790);
#673=LINE('',#1638,#791);
#674=LINE('',#1639,#792);
#675=LINE('',#1641,#793);
#676=LINE('',#1643,#794);
#677=LINE('',#1645,#795);
#678=LINE('',#1646,#796);
#679=LINE('',#1648,#797);
#680=LINE('',#1650,#798);
#681=LINE('',#1652,#799);
#682=LINE('',#1653,#800);
#683=LINE('',#1655,#801);
#684=LINE('',#1657,#802);
#685=LINE('',#1659,#803);
#686=LINE('',#1661,#804);
#687=LINE('',#1663,#805);
#688=LINE('',#1665,#806);
#689=LINE('',#1668,#807);
#690=LINE('',#1669,#808);
#691=LINE('',#1671,#809);
#692=LINE('',#1673,#810);
#693=LINE('',#1675,#811);
#694=LINE('',#1677,#812);
#695=LINE('',#1679,#813);
#696=LINE('',#1681,#814);
#697=LINE('',#1685,#815);
#698=LINE('',#1686,#816);
#699=LINE('',#1690,#817);
#700=LINE('',#1692,#818);
#701=LINE('',#1694,#819);
#702=LINE('',#1696,#820);
#703=LINE('',#1698,#821);
#704=LINE('',#1700,#822);
#705=LINE('',#1702,#823);
#706=LINE('',#1704,#824);
#707=LINE('',#1710,#825);
#708=LINE('',#1773,#826);
#709=LINE('',#1775,#827);
#710=LINE('',#1777,#828);
#711=LINE('',#1779,#829);
#712=LINE('',#1781,#830);
#713=LINE('',#1783,#831);
#714=LINE('',#1785,#832);
#715=LINE('',#1788,#833);
#716=LINE('',#1791,#834);
#717=LINE('',#1793,#835);
#718=LINE('',#1795,#836);
#719=LINE('',#1798,#837);
#720=LINE('',#1800,#838);
#721=LINE('',#1802,#839);
#722=LINE('',#1804,#840);
#723=LINE('',#1806,#841);
#724=LINE('',#1808,#842);
#725=LINE('',#1810,#843);
#726=LINE('',#1812,#844);
#727=VECTOR('',#1177,1.);
#728=VECTOR('',#1178,1.);
#729=VECTOR('',#1179,1.);
#730=VECTOR('',#1180,1.);
#731=VECTOR('',#1181,1.);
#732=VECTOR('',#1182,1.);
#733=VECTOR('',#1183,1.);
#734=VECTOR('',#1184,1.);
#735=VECTOR('',#1185,1.);
#736=VECTOR('',#1186,1.);
#737=VECTOR('',#1189,1.);
#738=VECTOR('',#1190,1.);
#739=VECTOR('',#1191,1.);
#740=VECTOR('',#1192,1.);
#741=VECTOR('',#1193,1.);
#742=VECTOR('',#1194,1.);
#743=VECTOR('',#1195,1.);
#744=VECTOR('',#1196,1.);
#745=VECTOR('',#1197,1.);
#746=VECTOR('',#1198,1.);
#747=VECTOR('',#1199,1.);
#748=VECTOR('',#1202,1.);
#749=VECTOR('',#1203,1.);
#750=VECTOR('',#1204,1.);
#751=VECTOR('',#1205,1.);
#752=VECTOR('',#1214,1.);
#753=VECTOR('',#1217,1.);
#754=VECTOR('',#1220,1.);
#755=VECTOR('',#1223,1.);
#756=VECTOR('',#1226,1.);
#757=VECTOR('',#1227,1.);
#758=VECTOR('',#1228,1.);
#759=VECTOR('',#1229,1.);
#760=VECTOR('',#1230,1.);
#761=VECTOR('',#1231,1.);
#762=VECTOR('',#1232,1.);
#763=VECTOR('',#1235,1.);
#764=VECTOR('',#1236,1.);
#765=VECTOR('',#1237,1.);
#766=VECTOR('',#1240,1.);
#767=VECTOR('',#1241,1.);
#768=VECTOR('',#1242,1.);
#769=VECTOR('',#1243,1.);
#770=VECTOR('',#1246,1.);
#771=VECTOR('',#1249,1.);
#772=VECTOR('',#1252,1.);
#773=VECTOR('',#1255,1.);
#774=VECTOR('',#1260,1.);
#775=VECTOR('',#1263,1.);
#776=VECTOR('',#1266,1.);
#777=VECTOR('',#1269,1.);
#778=VECTOR('',#1272,1.);
#779=VECTOR('',#1273,1.);
#780=VECTOR('',#1274,1.);
#781=VECTOR('',#1275,1.);
#782=VECTOR('',#1278,1.);
#783=VECTOR('',#1279,1.);
#784=VECTOR('',#1280,1.);
#785=VECTOR('',#1281,1.);
#786=VECTOR('',#1284,1.);
#787=VECTOR('',#1285,1.);
#788=VECTOR('',#1286,1.);
#789=VECTOR('',#1289,1.);
#790=VECTOR('',#1290,1.);
#791=VECTOR('',#1291,1.);
#792=VECTOR('',#1292,1.);
#793=VECTOR('',#1293,1.);
#794=VECTOR('',#1294,1.);
#795=VECTOR('',#1295,1.);
#796=VECTOR('',#1296,1.);
#797=VECTOR('',#1297,1.);
#798=VECTOR('',#1298,1.);
#799=VECTOR('',#1301,1.);
#800=VECTOR('',#1302,1.);
#801=VECTOR('',#1305,1.);
#802=VECTOR('',#1306,1.);
#803=VECTOR('',#1307,1.);
#804=VECTOR('',#1310,1.);
#805=VECTOR('',#1311,1.);
#806=VECTOR('',#1312,1.);
#807=VECTOR('',#1317,1.);
#808=VECTOR('',#1318,1.);
#809=VECTOR('',#1321,1.);
#810=VECTOR('',#1324,1.);
#811=VECTOR('',#1327,1.);
#812=VECTOR('',#1330,1.);
#813=VECTOR('',#1333,1.);
#814=VECTOR('',#1336,1.);
#815=VECTOR('',#1343,1.);
#816=VECTOR('',#1344,1.);
#817=VECTOR('',#1351,1.);
#818=VECTOR('',#1352,1.);
#819=VECTOR('',#1353,1.);
#820=VECTOR('',#1356,1.);
#821=VECTOR('',#1357,1.);
#822=VECTOR('',#1360,1.);
#823=VECTOR('',#1361,1.);
#824=VECTOR('',#1364,1.);
#825=VECTOR('',#1375,1.);
#826=VECTOR('',#1416,1.);
#827=VECTOR('',#1417,1.);
#828=VECTOR('',#1420,1.);
#829=VECTOR('',#1421,1.);
#830=VECTOR('',#1422,1.);
#831=VECTOR('',#1425,1.);
#832=VECTOR('',#1428,1.);
#833=VECTOR('',#1433,1.);
#834=VECTOR('',#1438,1.);
#835=VECTOR('',#1439,1.);
#836=VECTOR('',#1442,1.);
#837=VECTOR('',#1447,1.);
#838=VECTOR('',#1448,1.);
#839=VECTOR('',#1449,1.);
#840=VECTOR('',#1452,1.);
#841=VECTOR('',#1453,1.);
#842=VECTOR('',#1456,1.);
#843=VECTOR('',#1457,1.);
#844=VECTOR('',#1460,1.);
#845=EDGE_LOOP('',(#62,#63,#64,#65,#66,#67,#68,#69,#70,#71,#72));
#846=EDGE_LOOP('',(#73,#74,#75,#76,#77,#78,#79,#80,#81,#82,#83,#84));
#847=EDGE_LOOP('',(#85,#86,#87,#88,#89));
#848=EDGE_LOOP('',(#90));
#849=EDGE_LOOP('',(#91));
#850=EDGE_LOOP('',(#92,#93,#94,#95,#96,#97,#98,#99));
#851=EDGE_LOOP('',(#100,#101,#102,#103,#104,#105,#106,#107));
#852=EDGE_LOOP('',(#108,#109,#110,#111,#112,#113,#114));
#853=EDGE_LOOP('',(#115,#116,#117,#118));
#854=EDGE_LOOP('',(#119));
#855=EDGE_LOOP('',(#120,#121,#122,#123,#124,#125,#126,#127));
#856=EDGE_LOOP('',(#128));
#857=EDGE_LOOP('',(#129,#130,#131,#132,#133,#134,#135,#136));
#858=EDGE_LOOP('',(#137,#138,#139,#140));
#859=EDGE_LOOP('',(#141,#142,#143,#144));
#860=EDGE_LOOP('',(#145,#146,#147,#148));
#861=EDGE_LOOP('',(#149,#150,#151,#152,#153,#154,#155,#156,#157,#158,#159,#160,#161,#162));
#862=EDGE_LOOP('',(#163,#164,#165,#166,#167,#168,#169,#170));
#863=EDGE_LOOP('',(#171,#172,#173,#174));
#864=EDGE_LOOP('',(#175,#176,#177,#178));
#865=EDGE_LOOP('',(#179));
#866=EDGE_LOOP('',(#180));
#867=EDGE_LOOP('',(#181,#182,#183,#184));
#868=EDGE_LOOP('',(#185,#186,#187,#188));
#869=EDGE_LOOP('',(#189,#190,#191,#192));
#870=EDGE_LOOP('',(#193,#194,#195,#196));
#871=EDGE_LOOP('',(#197,#198,#199,#200));
#872=EDGE_LOOP('',(#201,#202,#203,#204));
#873=EDGE_LOOP('',(#205,#206,#207,#208));
#874=EDGE_LOOP('',(#209,#210,#211,#212));
#875=EDGE_LOOP('',(#213));
#876=EDGE_LOOP('',(#214));
#877=EDGE_LOOP('',(#215,#216,#217,#218));
#878=EDGE_LOOP('',(#219,#220,#221,#222));
#879=EDGE_LOOP('',(#223,#224,#225,#226));
#880=EDGE_LOOP('',(#227,#228,#229,#230));
#881=EDGE_LOOP('',(#231,#232,#233,#234));
#882=EDGE_LOOP('',(#235,#236,#237,#238));
#883=EDGE_LOOP('',(#239,#240,#241,#242));
#884=EDGE_LOOP('',(#243,#244,#245,#246));
#885=EDGE_LOOP('',(#247,#248,#249,#250,#251,#252));
#886=EDGE_LOOP('',(#253,#254,#255,#256,#257,#258,#259,#260));
#887=EDGE_LOOP('',(#261,#262,#263,#264));
#888=EDGE_LOOP('',(#265,#266,#267));
#889=EDGE_LOOP('',(#268,#269,#270,#271));
#890=EDGE_LOOP('',(#272,#273,#274,#275));
#891=EDGE_LOOP('',(#276,#277,#278));
#892=EDGE_LOOP('',(#279,#280,#281,#282));
#893=EDGE_LOOP('',(#283,#284,#285,#286));
#894=EDGE_LOOP('',(#287,#288,#289));
#895=EDGE_LOOP('',(#290,#291,#292,#293));
#896=EDGE_LOOP('',(#294,#295,#296,#297,#298));
#897=EDGE_LOOP('',(#299,#300,#301,#302,#303,#304));
#898=EDGE_LOOP('',(#305,#306,#307,#308));
#899=EDGE_LOOP('',(#309,#310,#311,#312));
#900=EDGE_LOOP('',(#313,#314,#315,#316));
#901=EDGE_LOOP('',(#317,#318,#319,#320));
#902=EDGE_LOOP('',(#321,#322,#323,#324));
#903=EDGE_LOOP('',(#325,#326,#327,#328));
#904=EDGE_LOOP('',(#329,#330,#331,#332));
#905=EDGE_LOOP('',(#333,#334,#335,#336));
#906=EDGE_LOOP('',(#337,#338,#339,#340,#341));
#907=EDGE_LOOP('',(#342,#343,#344,#345));
#908=EDGE_LOOP('',(#346,#347,#348,#349));
#909=EDGE_LOOP('',(#350,#351,#352,#353));
#910=EDGE_LOOP('',(#354,#355,#356,#357));
#911=EDGE_LOOP('',(#358,#359,#360,#361));
#912=FACE_BOUND('',#845,.T.);
#913=FACE_BOUND('',#846,.T.);
#914=FACE_BOUND('',#847,.T.);
#915=FACE_BOUND('',#848,.T.);
#916=FACE_BOUND('',#849,.T.);
#917=FACE_BOUND('',#850,.T.);
#918=FACE_BOUND('',#851,.T.);
#919=FACE_BOUND('',#852,.T.);
#920=FACE_BOUND('',#853,.T.);
#921=FACE_BOUND('',#854,.T.);
#922=FACE_BOUND('',#855,.T.);
#923=FACE_BOUND('',#856,.T.);
#924=FACE_BOUND('',#857,.T.);
#925=FACE_BOUND('',#858,.T.);
#926=FACE_BOUND('',#859,.T.);
#927=FACE_BOUND('',#860,.T.);
#928=FACE_BOUND('',#861,.T.);
#929=FACE_BOUND('',#862,.T.);
#930=FACE_BOUND('',#863,.T.);
#931=FACE_BOUND('',#864,.T.);
#932=FACE_BOUND('',#865,.T.);
#933=FACE_BOUND('',#866,.T.);
#934=FACE_BOUND('',#867,.T.);
#935=FACE_BOUND('',#868,.T.);
#936=FACE_BOUND('',#869,.T.);
#937=FACE_BOUND('',#870,.T.);
#938=FACE_BOUND('',#871,.T.);
#939=FACE_BOUND('',#872,.T.);
#940=FACE_BOUND('',#873,.T.);
#941=FACE_BOUND('',#874,.T.);
#942=FACE_BOUND('',#875,.T.);
#943=FACE_BOUND('',#876,.T.);
#944=FACE_BOUND('',#877,.T.);
#945=FACE_BOUND('',#878,.T.);
#946=FACE_BOUND('',#879,.T.);
#947=FACE_BOUND('',#880,.T.);
#948=FACE_BOUND('',#881,.T.);
#949=FACE_BOUND('',#882,.T.);
#950=FACE_BOUND('',#883,.T.);
#951=FACE_BOUND('',#884,.T.);
#952=FACE_BOUND('',#885,.T.);
#953=FACE_BOUND('',#886,.T.);
#954=FACE_BOUND('',#887,.T.);
#955=FACE_BOUND('',#888,.T.);
#956=FACE_BOUND('',#889,.T.);
#957=FACE_BOUND('',#890,.T.);
#958=FACE_BOUND('',#891,.T.);
#959=FACE_BOUND('',#892,.T.);
#960=FACE_BOUND('',#893,.T.);
#961=FACE_BOUND('',#894,.T.);
#962=FACE_BOUND('',#895,.T.);
#963=FACE_BOUND('',#896,.T.);
#964=FACE_BOUND('',#897,.T.);
#965=FACE_BOUND('',#898,.T.);
#966=FACE_BOUND('',#899,.T.);
#967=FACE_BOUND('',#900,.T.);
#968=FACE_BOUND('',#901,.T.);
#969=FACE_BOUND('',#902,.T.);
#970=FACE_BOUND('',#903,.T.);
#971=FACE_BOUND('',#904,.T.);
#972=FACE_BOUND('',#905,.T.);
#973=FACE_BOUND('',#906,.T.);
#974=FACE_BOUND('',#907,.T.);
#975=FACE_BOUND('',#908,.T.);
#976=FACE_BOUND('',#909,.T.);
#977=FACE_BOUND('',#910,.T.);
#978=FACE_BOUND('',#911,.T.);
#979=PLANE('',#1088);
#980=PLANE('',#1089);
#981=PLANE('',#1090);
#982=PLANE('',#1092);
#983=PLANE('',#1099);
#984=PLANE('',#1100);
#985=PLANE('',#1111);
#986=PLANE('',#1112);
#987=PLANE('',#1113);
#988=PLANE('',#1114);
#989=PLANE('',#1115);
#990=PLANE('',#1116);
#991=PLANE('',#1118);
#992=PLANE('',#1120);
#993=PLANE('',#1122);
#994=PLANE('',#1124);
#995=PLANE('',#1127);
#996=PLANE('',#1128);
#997=PLANE('',#1129);
#998=PLANE('',#1130);
#999=PLANE('',#1131);
#1000=PLANE('',#1132);
#1001=PLANE('',#1133);
#1002=PLANE('',#1134);
#1003=PLANE('',#1158);
#1004=PLANE('',#1159);
#1005=PLANE('',#1160);
#1006=PLANE('',#1161);
#1007=PLANE('',#1162);
#1008=PLANE('',#1163);
#1009=PLANE('',#1164);
#1010=PLANE('',#1165);
#1011=PLANE('',#1166);
#1012=PLANE('',#1167);
#1013=PLANE('',#1168);
#1014=PLANE('',#1169);
#1015=PLANE('',#1170);
#1016=PLANE('',#1171);
#1017=PLANE('',#1172);
#1018=ADVANCED_FACE('',(#912),#979,.T.);
#1019=ADVANCED_FACE('',(#913),#980,.F.);
#1020=ADVANCED_FACE('',(#914),#981,.T.);
#1021=ADVANCED_FACE('',(#915,#916,#917,#918),#982,.F.);
#1022=ADVANCED_FACE('',(#919),#983,.T.);
#1023=ADVANCED_FACE('',(#920,#921,#922,#923,#924,#925),#984,.F.);
#1024=ADVANCED_FACE('',(#926),#985,.T.);
#1025=ADVANCED_FACE('',(#927),#986,.T.);
#1026=ADVANCED_FACE('',(#928),#987,.T.);
#1027=ADVANCED_FACE('',(#929),#988,.T.);
#1028=ADVANCED_FACE('',(#930),#989,.T.);
#1029=ADVANCED_FACE('',(#931),#990,.F.);
#1030=ADVANCED_FACE('',(#932,#933),#20,.F.);
#1031=ADVANCED_FACE('',(#934),#991,.T.);
#1032=ADVANCED_FACE('',(#935),#21,.F.);
#1033=ADVANCED_FACE('',(#936),#992,.T.);
#1034=ADVANCED_FACE('',(#937),#22,.F.);
#1035=ADVANCED_FACE('',(#938),#993,.F.);
#1036=ADVANCED_FACE('',(#939),#23,.F.);
#1037=ADVANCED_FACE('',(#940),#994,.F.);
#1038=ADVANCED_FACE('',(#941),#24,.F.);
#1039=ADVANCED_FACE('',(#942,#943),#25,.F.);
#1040=ADVANCED_FACE('',(#944),#995,.T.);
#1041=ADVANCED_FACE('',(#945),#996,.F.);
#1042=ADVANCED_FACE('',(#946),#997,.T.);
#1043=ADVANCED_FACE('',(#947),#998,.T.);
#1044=ADVANCED_FACE('',(#948),#999,.F.);
#1045=ADVANCED_FACE('',(#949),#1000,.F.);
#1046=ADVANCED_FACE('',(#950),#1001,.T.);
#1047=ADVANCED_FACE('',(#951),#1002,.T.);
#1048=ADVANCED_FACE('',(#952),#26,.T.);
#1049=ADVANCED_FACE('',(#953),#27,.T.);
#1050=ADVANCED_FACE('',(#954),#28,.T.);
#1051=ADVANCED_FACE('',(#955),#14,.T.);
#1052=ADVANCED_FACE('',(#956),#29,.T.);
#1053=ADVANCED_FACE('',(#957),#30,.T.);
#1054=ADVANCED_FACE('',(#958),#12,.T.);
#1055=ADVANCED_FACE('',(#959),#31,.T.);
#1056=ADVANCED_FACE('',(#960),#32,.T.);
#1057=ADVANCED_FACE('',(#961),#13,.T.);
#1058=ADVANCED_FACE('',(#962),#33,.T.);
#1059=ADVANCED_FACE('',(#963),#15,.T.);
#1060=ADVANCED_FACE('',(#964),#1003,.F.);
#1061=ADVANCED_FACE('',(#965),#1004,.T.);
#1062=ADVANCED_FACE('',(#966),#1005,.T.);
#1063=ADVANCED_FACE('',(#967),#1006,.T.);
#1064=ADVANCED_FACE('',(#968),#1007,.T.);
#1065=ADVANCED_FACE('',(#969),#1008,.T.);
#1066=ADVANCED_FACE('',(#970),#1009,.T.);
#1067=ADVANCED_FACE('',(#971),#1010,.T.);
#1068=ADVANCED_FACE('',(#972),#1011,.F.);
#1069=ADVANCED_FACE('',(#973),#1012,.T.);
#1070=ADVANCED_FACE('',(#974),#1013,.T.);
#1071=ADVANCED_FACE('',(#975),#1014,.F.);
#1072=ADVANCED_FACE('',(#976),#1015,.F.);
#1073=ADVANCED_FACE('',(#977),#1016,.T.);
#1074=ADVANCED_FACE('',(#978),#1017,.T.);
#1075=CLOSED_SHELL('',(#1018,#1019,#1020,#1021,#1022,#1023,#1024,#1025,#1026,#1027,#1028,#1029,#1030,#1031,#1032,#1033,#1034,#1035,#1036,#1037,#1038,#1039,#1040,#1041,#1042,#1043,#1044,#1045,#1046,#1047,#1048,#1049,#1050,#1051,#1052,#1053,#1054,#1055,#1056,#1057,#1058,#1059,#1060,#1061,#1062,#1063,#1064,#1065,#1066,#1067,#1068,#1069,#1070,#1071,#1072,#1073,#1074));
#1076=STYLED_ITEM('',(#1077),#1084);
#1077=PRESENTATION_STYLE_ASSIGNMENT((#1078));
#1078=SURFACE_STYLE_USAGE(.BOTH.,#1079);
#1079=SURFACE_SIDE_STYLE('',(#1080));
#1080=SURFACE_STYLE_FILL_AREA(#1081);
#1081=FILL_AREA_STYLE('',(#1082));
#1082=FILL_AREA_STYLE_COLOUR('',#1083);
#1083=COLOUR_RGB('',0.615686274509804,0.811764705882353,0.929411764705882);
#1084=MANIFOLD_SOLID_BREP('Part 1',#1075);
#1085=SHAPE_DEFINITION_REPRESENTATION(#1820,#1086);
#1086=SHAPE_REPRESENTATION('Part 1',(#1087),#1815);
#1087=AXIS2_PLACEMENT_3D('',#1463,#1173,#1174);
#1088=AXIS2_PLACEMENT_3D('',#1464,#1175,#1176);
#1089=AXIS2_PLACEMENT_3D('',#1490,#1187,#1188);
#1090=AXIS2_PLACEMENT_3D('',#1512,#1200,#1201);
#1091=AXIS2_PLACEMENT_3D('',#1522,#1206,#1207);
#1092=AXIS2_PLACEMENT_3D('',#1523,#1208,#1209);
#1093=AXIS2_PLACEMENT_3D('',#1524,#1210,#1211);
#1094=AXIS2_PLACEMENT_3D('',#1526,#1212,#1213);
#1095=AXIS2_PLACEMENT_3D('',#1531,#1215,#1216);
#1096=AXIS2_PLACEMENT_3D('',#1535,#1218,#1219);
#1097=AXIS2_PLACEMENT_3D('',#1539,#1221,#1222);
#1098=AXIS2_PLACEMENT_3D('',#1543,#1224,#1225);
#1099=AXIS2_PLACEMENT_3D('',#1557,#1233,#1234);
#1100=AXIS2_PLACEMENT_3D('',#1566,#1238,#1239);
#1101=AXIS2_PLACEMENT_3D('',#1575,#1244,#1245);
#1102=AXIS2_PLACEMENT_3D('',#1580,#1247,#1248);
#1103=AXIS2_PLACEMENT_3D('',#1584,#1250,#1251);
#1104=AXIS2_PLACEMENT_3D('',#1588,#1253,#1254);
#1105=AXIS2_PLACEMENT_3D('',#1592,#1256,#1257);
#1106=AXIS2_PLACEMENT_3D('',#1593,#1258,#1259);
#1107=AXIS2_PLACEMENT_3D('',#1598,#1261,#1262);
#1108=AXIS2_PLACEMENT_3D('',#1602,#1264,#1265);
#1109=AXIS2_PLACEMENT_3D('',#1606,#1267,#1268);
#1110=AXIS2_PLACEMENT_3D('',#1610,#1270,#1271);
#1111=AXIS2_PLACEMENT_3D('',#1619,#1276,#1277);
#1112=AXIS2_PLACEMENT_3D('',#1628,#1282,#1283);
#1113=AXIS2_PLACEMENT_3D('',#1634,#1287,#1288);
#1114=AXIS2_PLACEMENT_3D('',#1651,#1299,#1300);
#1115=AXIS2_PLACEMENT_3D('',#1654,#1303,#1304);
#1116=AXIS2_PLACEMENT_3D('',#1660,#1308,#1309);
#1117=AXIS2_PLACEMENT_3D('',#1666,#1313,#1314);
#1118=AXIS2_PLACEMENT_3D('',#1667,#1315,#1316);
#1119=AXIS2_PLACEMENT_3D('',#1670,#1319,#1320);
#1120=AXIS2_PLACEMENT_3D('',#1672,#1322,#1323);
#1121=AXIS2_PLACEMENT_3D('',#1674,#1325,#1326);
#1122=AXIS2_PLACEMENT_3D('',#1676,#1328,#1329);
#1123=AXIS2_PLACEMENT_3D('',#1678,#1331,#1332);
#1124=AXIS2_PLACEMENT_3D('',#1680,#1334,#1335);
#1125=AXIS2_PLACEMENT_3D('',#1682,#1337,#1338);
#1126=AXIS2_PLACEMENT_3D('',#1683,#1339,#1340);
#1127=AXIS2_PLACEMENT_3D('',#1684,#1341,#1342);
#1128=AXIS2_PLACEMENT_3D('',#1687,#1345,#1346);
#1129=AXIS2_PLACEMENT_3D('',#1688,#1347,#1348);
#1130=AXIS2_PLACEMENT_3D('',#1689,#1349,#1350);
#1131=AXIS2_PLACEMENT_3D('',#1695,#1354,#1355);
#1132=AXIS2_PLACEMENT_3D('',#1699,#1358,#1359);
#1133=AXIS2_PLACEMENT_3D('',#1703,#1362,#1363);
#1134=AXIS2_PLACEMENT_3D('',#1705,#1365,#1366);
#1135=AXIS2_PLACEMENT_3D('',#1706,#1367,#1368);
#1136=AXIS2_PLACEMENT_3D('',#1707,#1369,#1370);
#1137=AXIS2_PLACEMENT_3D('',#1708,#1371,#1372);
#1138=AXIS2_PLACEMENT_3D('',#1709,#1373,#1374);
#1139=AXIS2_PLACEMENT_3D('',#1711,#1376,#1377);
#1140=AXIS2_PLACEMENT_3D('',#1712,#1378,#1379);
#1141=AXIS2_PLACEMENT_3D('',#1713,#1380,#1381);
#1142=AXIS2_PLACEMENT_3D('',#1714,#1382,#1383);
#1143=AXIS2_PLACEMENT_3D('',#1736,#1384,#1385);
#1144=AXIS2_PLACEMENT_3D('',#1737,#1386,#1387);
#1145=AXIS2_PLACEMENT_3D('',#1738,#1388,#1389);
#1146=AXIS2_PLACEMENT_3D('',#1739,#1390,#1391);
#1147=AXIS2_PLACEMENT_3D('',#1740,#1392,#1393);
#1148=AXIS2_PLACEMENT_3D('',#1741,#1394,#1395);
#1149=AXIS2_PLACEMENT_3D('',#1742,#1396,#1397);
#1150=AXIS2_PLACEMENT_3D('',#1743,#1398,#1399);
#1151=AXIS2_PLACEMENT_3D('',#1744,#1400,#1401);
#1152=AXIS2_PLACEMENT_3D('',#1745,#1402,#1403);
#1153=AXIS2_PLACEMENT_3D('',#1746,#1404,#1405);
#1154=AXIS2_PLACEMENT_3D('',#1747,#1406,#1407);
#1155=AXIS2_PLACEMENT_3D('',#1748,#1408,#1409);
#1156=AXIS2_PLACEMENT_3D('',#1749,#1410,#1411);
#1157=AXIS2_PLACEMENT_3D('',#1750,#1412,#1413);
#1158=AXIS2_PLACEMENT_3D('',#1772,#1414,#1415);
#1159=AXIS2_PLACEMENT_3D('',#1776,#1418,#1419);
#1160=AXIS2_PLACEMENT_3D('',#1782,#1423,#1424);
#1161=AXIS2_PLACEMENT_3D('',#1784,#1426,#1427);
#1162=AXIS2_PLACEMENT_3D('',#1786,#1429,#1430);
#1163=AXIS2_PLACEMENT_3D('',#1787,#1431,#1432);
#1164=AXIS2_PLACEMENT_3D('',#1789,#1434,#1435);
#1165=AXIS2_PLACEMENT_3D('',#1790,#1436,#1437);
#1166=AXIS2_PLACEMENT_3D('',#1794,#1440,#1441);
#1167=AXIS2_PLACEMENT_3D('',#1796,#1443,#1444);
#1168=AXIS2_PLACEMENT_3D('',#1797,#1445,#1446);
#1169=AXIS2_PLACEMENT_3D('',#1803,#1450,#1451);
#1170=AXIS2_PLACEMENT_3D('',#1807,#1454,#1455);
#1171=AXIS2_PLACEMENT_3D('',#1811,#1458,#1459);
#1172=AXIS2_PLACEMENT_3D('',#1813,#1461,#1462);
#1173=DIRECTION('',(0.,0.,1.));
#1174=DIRECTION('',(1.,0.,0.));
#1175=DIRECTION('',(-1.,0.,0.));
#1176=DIRECTION('',(0.,0.,1.));
#1177=DIRECTION('',(0.,1.,0.));
#1178=DIRECTION('',(0.,0.,-1.));
#1179=DIRECTION('',(0.,1.,-1.92747052886311E-16));
#1180=DIRECTION('',(0.,0.,-1.));
#1181=DIRECTION('',(0.,1.,0.));
#1182=DIRECTION('',(0.,0.,-1.));
#1183=DIRECTION('',(0.,1.,0.));
#1184=DIRECTION('',(0.,0.,-1.));
#1185=DIRECTION('',(0.,-1.,0.));
#1186=DIRECTION('',(0.,0.,-1.));
#1187=DIRECTION('',(0.,-1.,0.));
#1188=DIRECTION('',(0.,0.,-1.));
#1189=DIRECTION('',(0.,0.,1.));
#1190=DIRECTION('',(1.,0.,-1.7347234759768E-16));
#1191=DIRECTION('',(-1.,0.,0.));
#1192=DIRECTION('',(0.,0.,-1.));
#1193=DIRECTION('',(-1.,0.,0.));
#1194=DIRECTION('',(0.,0.,1.));
#1195=DIRECTION('',(-1.,0.,0.));
#1196=DIRECTION('',(0.,0.,-1.));
#1197=DIRECTION('',(1.,0.,-1.44560289664734E-16));
#1198=DIRECTION('',(0.,0.,1.));
#1199=DIRECTION('',(-1.,0.,0.));
#1200=DIRECTION('',(1.,0.,0.));
#1201=DIRECTION('',(0.,1.,0.));
#1202=DIRECTION('',(0.,1.,0.));
#1203=DIRECTION('',(0.,0.,-1.));
#1204=DIRECTION('',(0.,1.,0.));
#1205=DIRECTION('',(0.,0.,-1.));
#1206=DIRECTION('',(-1.,0.,0.));
#1207=DIRECTION('',(0.,0.,1.));
#1208=DIRECTION('',(-1.,0.,0.));
#1209=DIRECTION('',(0.,0.,1.));
#1210=DIRECTION('',(-1.,0.,0.));
#1211=DIRECTION('',(0.,0.,1.));
#1212=DIRECTION('',(-1.,0.,0.));
#1213=DIRECTION('',(0.,0.,1.));
#1214=DIRECTION('',(0.,0.,1.));
#1215=DIRECTION('',(-1.,0.,0.));
#1216=DIRECTION('',(0.,0.,1.));
#1217=DIRECTION('',(0.,1.,-1.07880813182637E-16));
#1218=DIRECTION('',(-1.,0.,0.));
#1219=DIRECTION('',(0.,0.,1.));
#1220=DIRECTION('',(0.,0.,1.));
#1221=DIRECTION('',(-1.,0.,0.));
#1222=DIRECTION('',(0.,0.,1.));
#1223=DIRECTION('',(0.,1.,-1.43841084243516E-16));
#1224=DIRECTION('',(-1.,0.,0.));
#1225=DIRECTION('',(0.,0.,1.));
#1226=DIRECTION('',(0.,1.,0.));
#1227=DIRECTION('',(0.,1.,0.));
#1228=DIRECTION('',(0.,0.,-1.));
#1229=DIRECTION('',(0.,-1.,0.));
#1230=DIRECTION('',(0.,0.,-1.));
#1231=DIRECTION('',(0.,1.,0.));
#1232=DIRECTION('',(0.,0.,-1.));
#1233=DIRECTION('',(1.65211759616839E-16,-1.,0.));
#1234=DIRECTION('',(1.,1.65211759616839E-16,0.));
#1235=DIRECTION('',(-1.,-1.54197642309049E-16,0.));
#1236=DIRECTION('',(-1.,0.,0.));
#1237=DIRECTION('',(-1.,-1.65211759616839E-16,0.));
#1238=DIRECTION('',(1.,0.,0.));
#1239=DIRECTION('',(0.,0.,-1.));
#1240=DIRECTION('',(0.,1.,-1.84314369322535E-16));
#1241=DIRECTION('',(0.,0.,1.));
#1242=DIRECTION('',(0.,1.,-1.7347234759768E-16));
#1243=DIRECTION('',(0.,0.,1.));
#1244=DIRECTION('',(-1.,0.,0.));
#1245=DIRECTION('',(0.,0.,1.));
#1246=DIRECTION('',(0.,0.,1.));
#1247=DIRECTION('',(1.,0.,0.));
#1248=DIRECTION('',(0.,0.,-1.));
#1249=DIRECTION('',(0.,0.992546151641322,-0.121869343405147));
#1250=DIRECTION('',(1.,0.,0.));
#1251=DIRECTION('',(0.,0.,-1.));
#1252=DIRECTION('',(0.,0.,-1.));
#1253=DIRECTION('',(1.,0.,0.));
#1254=DIRECTION('',(0.,0.,-1.));
#1255=DIRECTION('',(0.,1.,0.));
#1256=DIRECTION('',(1.,0.,0.));
#1257=DIRECTION('',(0.,0.,-1.));
#1258=DIRECTION('',(-1.,0.,0.));
#1259=DIRECTION('',(0.,0.,1.));
#1260=DIRECTION('',(0.,0.,1.));
#1261=DIRECTION('',(-1.,0.,0.));
#1262=DIRECTION('',(0.,0.,1.));
#1263=DIRECTION('',(0.,1.,-1.43841084243516E-16));
#1264=DIRECTION('',(-1.,0.,0.));
#1265=DIRECTION('',(0.,0.,1.));
#1266=DIRECTION('',(0.,0.,1.));
#1267=DIRECTION('',(-1.,0.,0.));
#1268=DIRECTION('',(0.,0.,1.));
#1269=DIRECTION('',(0.,1.,-1.07880813182637E-16));
#1270=DIRECTION('',(-1.,0.,0.));
#1271=DIRECTION('',(0.,0.,1.));
#1272=DIRECTION('',(0.,-1.,0.));
#1273=DIRECTION('',(0.,0.,-1.));
#1274=DIRECTION('',(0.,-1.,0.));
#1275=DIRECTION('',(0.,0.,-1.));
#1276=DIRECTION('',(1.,0.,0.));
#1277=DIRECTION('',(0.,0.,-1.));
#1278=DIRECTION('',(0.,0.992546151641322,-0.121869343405147));
#1279=DIRECTION('',(0.,0.,1.));
#1280=DIRECTION('',(0.,1.,0.));
#1281=DIRECTION('',(0.,0.,-1.));
#1282=DIRECTION('',(-1.54197642309049E-16,1.,0.));
#1283=DIRECTION('',(-1.,-1.54197642309049E-16,0.));
#1284=DIRECTION('',(-1.,-1.54197642309049E-16,0.));
#1285=DIRECTION('',(0.,0.,1.));
#1286=DIRECTION('',(1.,1.54197642309049E-16,-1.89330898031797E-17));
#1287=DIRECTION('',(0.,0.,1.));
#1288=DIRECTION('',(1.,0.,0.));
#1289=DIRECTION('',(0.,-1.,0.));
#1290=DIRECTION('',(-1.,0.,0.));
#1291=DIRECTION('',(-1.,-1.54197642309049E-16,0.));
#1292=DIRECTION('',(1.,0.,0.));
#1293=DIRECTION('',(0.,1.,0.));
#1294=DIRECTION('',(-1.,0.,0.));
#1295=DIRECTION('',(0.,-1.,0.));
#1296=DIRECTION('',(0.,-1.,0.));
#1297=DIRECTION('',(-1.,0.,0.));
#1298=DIRECTION('',(0.,-1.,0.));
#1299=DIRECTION('',(0.,0.,1.));
#1300=DIRECTION('',(1.,0.,0.));
#1301=DIRECTION('',(-1.,0.,0.));
#1302=DIRECTION('',(-1.,0.,0.));
#1303=DIRECTION('',(0.,-0.121869343405147,-0.992546151641322));
#1304=DIRECTION('',(0.,0.992546151641322,-0.121869343405147));
#1305=DIRECTION('',(1.,1.54197642309049E-16,-1.89330898031797E-17));
#1306=DIRECTION('',(0.,0.992546151641322,-0.121869343405147));
#1307=DIRECTION('',(1.,0.,0.));
#1308=DIRECTION('',(0.,1.,0.));
#1309=DIRECTION('',(0.,0.,1.));
#1310=DIRECTION('',(1.,0.,0.));
#1311=DIRECTION('',(0.,0.,-1.));
#1312=DIRECTION('',(1.,0.,0.));
#1313=DIRECTION('',(-1.,0.,0.));
#1314=DIRECTION('',(0.,0.,1.));
#1315=DIRECTION('',(0.,-1.,0.));
#1316=DIRECTION('',(0.,0.,-1.));
#1317=DIRECTION('',(-1.,0.,0.));
#1318=DIRECTION('',(-1.,0.,0.));
#1319=DIRECTION('',(-1.,0.,0.));
#1320=DIRECTION('',(0.,0.,1.));
#1321=DIRECTION('',(-1.,0.,0.));
#1322=DIRECTION('',(0.,1.07880813182637E-16,1.));
#1323=DIRECTION('',(0.,-1.,1.07880813182637E-16));
#1324=DIRECTION('',(-1.,0.,0.));
#1325=DIRECTION('',(-1.,0.,0.));
#1326=DIRECTION('',(0.,0.,1.));
#1327=DIRECTION('',(-1.,0.,0.));
#1328=DIRECTION('',(0.,-1.,0.));
#1329=DIRECTION('',(0.,0.,-1.));
#1330=DIRECTION('',(-1.,0.,0.));
#1331=DIRECTION('',(-1.,0.,0.));
#1332=DIRECTION('',(0.,0.,1.));
#1333=DIRECTION('',(-1.,0.,0.));
#1334=DIRECTION('',(0.,1.43841084243516E-16,1.));
#1335=DIRECTION('',(0.,-1.,1.43841084243516E-16));
#1336=DIRECTION('',(-1.,0.,0.));
#1337=DIRECTION('',(-1.,0.,0.));
#1338=DIRECTION('',(0.,0.,1.));
#1339=DIRECTION('',(-1.,0.,0.));
#1340=DIRECTION('',(0.,0.,1.));
#1341=DIRECTION('',(0.,0.,-1.));
#1342=DIRECTION('',(-1.,0.,0.));
#1343=DIRECTION('',(-1.,0.,0.));
#1344=DIRECTION('',(-1.,0.,0.));
#1345=DIRECTION('',(0.,1.,0.));
#1346=DIRECTION('',(0.,0.,1.));
#1347=DIRECTION('',(0.,1.,0.));
#1348=DIRECTION('',(0.,0.,1.));
#1349=DIRECTION('',(0.,1.84314369322535E-16,1.));
#1350=DIRECTION('',(0.,-1.,1.84314369322535E-16));
#1351=DIRECTION('',(-1.,0.,0.));
#1352=DIRECTION('',(0.,1.,-1.84314369322535E-16));
#1353=DIRECTION('',(-1.,0.,0.));
#1354=DIRECTION('',(0.,-1.,0.));
#1355=DIRECTION('',(0.,0.,-1.));
#1356=DIRECTION('',(-1.,0.,0.));
#1357=DIRECTION('',(0.,0.,1.));
#1358=DIRECTION('',(0.,1.7347234759768E-16,1.));
#1359=DIRECTION('',(0.,-1.,1.7347234759768E-16));
#1360=DIRECTION('',(-1.,0.,0.));
#1361=DIRECTION('',(0.,1.,-1.7347234759768E-16));
#1362=DIRECTION('',(0.,-1.,0.));
#1363=DIRECTION('',(0.,0.,-1.));
#1364=DIRECTION('',(0.,0.,1.));
#1365=DIRECTION('',(-1.,0.,0.));
#1366=DIRECTION('',(0.,-1.,0.));
#1367=DIRECTION('',(-1.,-1.54197642309049E-16,0.));
#1368=DIRECTION('',(1.54197642309049E-16,-1.,0.));
#1369=DIRECTION('',(0.860016568923722,-0.510266108199113,0.));
#1370=DIRECTION('',(0.510266108199113,0.860016568923722,0.));
#1371=DIRECTION('',(0.,1.,0.));
#1372=DIRECTION('',(0.,0.,1.));
#1373=DIRECTION('',(0.510266108199113,-0.860016568923722,0.));
#1374=DIRECTION('',(0.860016568923722,0.510266108199113,0.));
#1375=DIRECTION('',(0.,1.,0.));
#1376=DIRECTION('',(0.,-1.,0.));
#1377=DIRECTION('',(0.,0.,-1.));
#1378=DIRECTION('',(0.510266108199113,0.860016568923722,0.));
#1379=DIRECTION('',(-0.860016568923722,0.510266108199113,0.));
#1380=DIRECTION('',(-1.,0.,0.));
#1381=DIRECTION('',(0.,0.,1.));
#1382=DIRECTION('',(0.860016568923723,0.510266108199111,0.));
#1383=DIRECTION('',(-0.510266108199111,0.860016568923723,0.));
#1384=DIRECTION('',(0.,1.10421608910045E-15,-1.));
#1385=DIRECTION('',(0.,1.,1.10421608910045E-15));
#1386=DIRECTION('',(-1.,0.,0.));
#1387=DIRECTION('',(0.,0.,1.));
#1388=DIRECTION('',(1.,0.,0.));
#1389=DIRECTION('',(0.,0.,-1.));
#1390=DIRECTION('',(0.,0.,1.));
#1391=DIRECTION('',(1.,0.,0.));
#1392=DIRECTION('',(0.,9.66189077962892E-16,-1.));
#1393=DIRECTION('',(0.,1.,9.66189077962892E-16));
#1394=DIRECTION('',(1.,0.,2.07040516706335E-15));
#1395=DIRECTION('',(2.07040516706335E-15,0.,-1.));
#1396=DIRECTION('',(-2.52318918292631E-16,-0.992546151641322,0.121869343405146));
#1397=DIRECTION('',(0.,-0.121869343405146,-0.992546151641322));
#1398=DIRECTION('',(1.,1.54197642309049E-16,-1.89330898031797E-17));
#1399=DIRECTION('',(-1.54197642309049E-16,1.,0.));
#1400=DIRECTION('',(1.,0.,0.));
#1401=DIRECTION('',(0.,0.,-1.));
#1402=DIRECTION('',(0.,0.992546151641322,-0.121869343405147));
#1403=DIRECTION('',(0.,0.121869343405147,0.992546151641322));
#1404=DIRECTION('',(0.,0.992546151641322,-0.12186934340515));
#1405=DIRECTION('',(0.,0.12186934340515,0.992546151641322));
#1406=DIRECTION('',(1.,0.,2.2084321782009E-15));
#1407=DIRECTION('',(2.2084321782009E-15,0.,-1.));
#1408=DIRECTION('',(0.,0.,-1.));
#1409=DIRECTION('',(-1.,0.,0.));
#1410=DIRECTION('',(0.,0.,1.));
#1411=DIRECTION('',(1.,0.,0.));
#1412=DIRECTION('',(0.,0.,1.));
#1413=DIRECTION('',(1.,0.,0.));
#1414=DIRECTION('',(0.,0.,1.));
#1415=DIRECTION('',(1.,0.,0.));
#1416=DIRECTION('',(1.,0.,-2.16840434497101E-16));
#1417=DIRECTION('',(0.,-1.,0.));
#1418=DIRECTION('',(-1.44560289664734E-16,0.,-1.));
#1419=DIRECTION('',(-1.,0.,1.44560289664734E-16));
#1420=DIRECTION('',(0.,-1.,0.));
#1421=DIRECTION('',(1.,0.,-1.44560289664734E-16));
#1422=DIRECTION('',(0.,-1.,0.));
#1423=DIRECTION('',(-1.,0.,0.));
#1424=DIRECTION('',(0.,0.,1.));
#1425=DIRECTION('',(0.,0.,-1.));
#1426=DIRECTION('',(1.,0.,0.));
#1427=DIRECTION('',(0.,0.,-1.));
#1428=DIRECTION('',(0.,0.,1.));
#1429=DIRECTION('',(0.,1.,0.));
#1430=DIRECTION('',(-1.,0.,0.));
#1431=DIRECTION('',(1.,0.,0.));
#1432=DIRECTION('',(0.,0.,-1.));
#1433=DIRECTION('',(0.,0.,1.));
#1434=DIRECTION('',(0.,1.,0.));
#1435=DIRECTION('',(-1.,0.,0.));
#1436=DIRECTION('',(-1.7347234759768E-16,0.,-1.));
#1437=DIRECTION('',(-1.,0.,1.7347234759768E-16));
#1438=DIRECTION('',(0.,-1.,0.));
#1439=DIRECTION('',(1.,0.,-1.7347234759768E-16));
#1440=DIRECTION('',(1.,0.,0.));
#1441=DIRECTION('',(0.,0.,-1.));
#1442=DIRECTION('',(0.,0.,1.));
#1443=DIRECTION('',(0.,1.,0.));
#1444=DIRECTION('',(-1.,0.,0.));
#1445=DIRECTION('',(0.,-1.,0.));
#1446=DIRECTION('',(0.,0.,-1.));
#1447=DIRECTION('',(1.,0.,0.));
#1448=DIRECTION('',(0.,0.,-1.));
#1449=DIRECTION('',(1.,0.,0.));
#1450=DIRECTION('',(0.,0.,-1.));
#1451=DIRECTION('',(-1.,0.,0.));
#1452=DIRECTION('',(1.,0.,0.));
#1453=DIRECTION('',(0.,1.,0.));
#1454=DIRECTION('',(0.,-1.,0.));
#1455=DIRECTION('',(0.,0.,-1.));
#1456=DIRECTION('',(1.,0.,0.));
#1457=DIRECTION('',(0.,0.,-1.));
#1458=DIRECTION('',(0.,-1.92747052886312E-16,-1.));
#1459=DIRECTION('',(0.,1.,-1.92747052886312E-16));
#1460=DIRECTION('',(0.,1.,-1.92747052886311E-16));
#1461=DIRECTION('',(-1.,0.,0.));
#1462=DIRECTION('',(0.,-1.,0.));
#1463=CARTESIAN_POINT('',(0.,0.,0.));
#1464=CARTESIAN_POINT('',(0.0253521365653724,-0.0121918158356795,0.015));
#1465=CARTESIAN_POINT('',(0.0253521365653724,-0.0621918158356795,0.0149023685078621));
#1466=CARTESIAN_POINT('',(0.0253521365653724,-0.0501918158356795,0.0149023685078621));
#1467=CARTESIAN_POINT('',(0.0253521365653724,-0.0311918158356795,0.0149023685078621));
#1468=CARTESIAN_POINT('',(0.0253521365653724,-0.0311918158356795,0.0139023685078621));
#1469=CARTESIAN_POINT('',(0.0253521365653724,-0.0311918158356795,0.0129023685078621));
#1470=CARTESIAN_POINT('',(0.0253521365653724,-0.0266918158356795,0.0129023685078621));
#1471=CARTESIAN_POINT('',(0.0253521365653724,-0.0221918158356795,0.0129023685078621));
#1472=CARTESIAN_POINT('',(0.0253521365653724,-0.0221918158356795,0.0139023685078621));
#1473=CARTESIAN_POINT('',(0.0253521365653724,-0.0221918158356795,0.0149023685078621));
#1474=CARTESIAN_POINT('',(0.0253521365653724,-0.0621918158356795,0.0149023685078621));
#1475=CARTESIAN_POINT('',(0.0253521365653724,0.0374572204055837,0.0149023685078621));
#1476=CARTESIAN_POINT('',(0.0253521365653724,0.0374572204055837,0.0149023685078621));
#1477=CARTESIAN_POINT('',(0.0253521365653724,0.0375748266623949,0.0149023685078621));
#1478=CARTESIAN_POINT('',(0.0253521365653724,0.0376918069665972,0.0148937585849316));
#1479=CARTESIAN_POINT('',(0.0253521365653724,0.0378081841643205,0.0148768529855745));
#1480=CARTESIAN_POINT('',(0.0253521365653724,0.0378081841643205,0.0148768529855745));
#1481=CARTESIAN_POINT('',(0.0253521365653724,0.0378081841643205,0.015));
#1482=CARTESIAN_POINT('',(0.0253521365653724,0.0378081841643205,0.));
#1483=CARTESIAN_POINT('',(0.0253521365653724,-0.0121918158356795,0.));
#1484=CARTESIAN_POINT('',(0.0253521365653724,-0.0621918158356795,0.));
#1485=CARTESIAN_POINT('',(0.0253521365653724,-0.0621918158356795,0.015));
#1486=CARTESIAN_POINT('',(0.0253521365653724,-0.0621918158356795,0.013));
#1487=CARTESIAN_POINT('',(0.0253521365653724,-0.0501918158356795,0.013));
#1488=CARTESIAN_POINT('',(0.0253521365653724,-0.0501918158356795,0.013));
#1489=CARTESIAN_POINT('',(0.0253521365653724,-0.0501918158356795,0.015));
#1490=CARTESIAN_POINT('',(-0.0166478634346276,-0.0621918158356795,0.015));
#1491=CARTESIAN_POINT('',(0.00535213656537235,-0.0621918158356795,0.014));
#1492=CARTESIAN_POINT('',(0.00535213656537235,-0.0621918158356795,0.013));
#1493=CARTESIAN_POINT('',(0.00535213656537235,-0.0621918158356795,0.015));
#1494=CARTESIAN_POINT('',(0.0153521365653724,-0.0621918158356795,0.013));
#1495=CARTESIAN_POINT('',(-0.0166478634346276,-0.0621918158356795,0.));
#1496=CARTESIAN_POINT('',(-0.0586478634346277,-0.0621918158356795,0.));
#1497=CARTESIAN_POINT('',(-0.0586478634346277,-0.0621918158356795,0.015));
#1498=CARTESIAN_POINT('',(-0.0586478634346277,-0.0621918158356795,0.013));
#1499=CARTESIAN_POINT('',(-0.0546478634346276,-0.0621918158356795,0.013));
#1500=CARTESIAN_POINT('',(-0.0466478634346277,-0.0621918158356795,0.013));
#1501=CARTESIAN_POINT('',(-0.0466478634346276,-0.0621918158356795,0.014));
#1502=CARTESIAN_POINT('',(-0.0466478634346276,-0.0621918158356795,0.015));
#1503=CARTESIAN_POINT('',(-0.0166478634346276,-0.0621918158356795,0.015));
#1504=CARTESIAN_POINT('',(-0.0266478634346277,-0.0621918158356795,0.015));
#1505=CARTESIAN_POINT('',(-0.0266478634346277,-0.0621918158356795,0.014));
#1506=CARTESIAN_POINT('',(-0.0266478634346277,-0.0621918158356795,0.013));
#1507=CARTESIAN_POINT('',(-0.0206478634346276,-0.0621918158356795,0.013));
#1508=CARTESIAN_POINT('',(-0.0146478634346276,-0.0621918158356795,0.013));
#1509=CARTESIAN_POINT('',(-0.0146478634346276,-0.0621918158356795,0.014));
#1510=CARTESIAN_POINT('',(-0.0146478634346276,-0.0621918158356795,0.015));
#1511=CARTESIAN_POINT('',(-0.0166478634346276,-0.0621918158356795,0.015));
#1512=CARTESIAN_POINT('',(-0.0546478634346276,-0.0121918158356795,0.0075));
#1513=CARTESIAN_POINT('',(-0.0546478634346276,-0.0121918158356795,0.015));
#1514=CARTESIAN_POINT('',(-0.0546478634346276,-0.0421918158356795,0.015));
#1515=CARTESIAN_POINT('',(-0.0546478634346276,0.0369451841643205,0.015));
#1516=CARTESIAN_POINT('',(-0.0546478634346276,-0.0421918158356795,0.015));
#1517=CARTESIAN_POINT('',(-0.0546478634346276,-0.0421918158356795,0.013));
#1518=CARTESIAN_POINT('',(-0.0546478634346276,-0.0121918158356795,0.013));
#1519=CARTESIAN_POINT('',(-0.0546478634346276,0.0378081841643205,0.013));
#1520=CARTESIAN_POINT('',(-0.0546478634346276,0.0378081841643205,0.015));
#1521=CARTESIAN_POINT('',(-0.0546478634346276,0.0378081841643205,0.0149023685078621));
#1522=CARTESIAN_POINT('',(-0.0546478634346276,0.0369451841643205,0.011137));
#1523=CARTESIAN_POINT('',(-0.0586478634346277,-0.0121918158356795,0.015));
#1524=CARTESIAN_POINT('',(-0.0586478634346277,-0.0184098158356795,0.00468224474141016));
#1525=CARTESIAN_POINT('',(-0.0586478634346277,-0.0184098158356795,0.00568224474141016));
#1526=CARTESIAN_POINT('',(-0.0586478634346277,-0.0484098158356795,0.00468224474141016));
#1527=CARTESIAN_POINT('',(-0.0586478634346277,-0.0484098158356795,0.00568224474141016));
#1528=CARTESIAN_POINT('',(-0.0586478634346277,-0.0199098158356795,0.015));
#1529=CARTESIAN_POINT('',(-0.0586478634346277,-0.0199098158356795,0.00362224474141016));
#1530=CARTESIAN_POINT('',(-0.0586478634346277,-0.0199098158356795,0.00584224474141016));
#1531=CARTESIAN_POINT('',(-0.0586478634346277,-0.0213498158356795,0.00362224474141015));
#1532=CARTESIAN_POINT('',(-0.0586478634346277,-0.0213498158356795,0.00218224474141016));
#1533=CARTESIAN_POINT('',(-0.0586478634346277,-0.0121918158356795,0.00218224474141016));
#1534=CARTESIAN_POINT('',(-0.0586478634346277,-0.0454698158356795,0.00218224474141016));
#1535=CARTESIAN_POINT('',(-0.0586478634346277,-0.0454698158356795,0.00362224474141016));
#1536=CARTESIAN_POINT('',(-0.0586478634346277,-0.0469098158356795,0.00362224474141016));
#1537=CARTESIAN_POINT('',(-0.0586478634346277,-0.0469098158356795,0.015));
#1538=CARTESIAN_POINT('',(-0.0586478634346277,-0.0469098158356795,0.00584224474141016));
#1539=CARTESIAN_POINT('',(-0.0586478634346277,-0.0454698158356795,0.00584224474141016));
#1540=CARTESIAN_POINT('',(-0.0586478634346277,-0.0454698158356795,0.00728224474141016));
#1541=CARTESIAN_POINT('',(-0.0586478634346277,-0.0121918158356795,0.00728224474141016));
#1542=CARTESIAN_POINT('',(-0.0586478634346277,-0.0213498158356795,0.00728224474141016));
#1543=CARTESIAN_POINT('',(-0.0586478634346277,-0.0213498158356795,0.00584224474141016));
#1544=CARTESIAN_POINT('',(-0.0586478634346277,-0.0121918158356795,0.013));
#1545=CARTESIAN_POINT('',(-0.0586478634346277,0.0378081841643205,0.013));
#1546=CARTESIAN_POINT('',(-0.0586478634346277,-0.0121918158356795,0.));
#1547=CARTESIAN_POINT('',(-0.0586478634346277,0.0173941841643205,3.46944695195361E-18));
#1548=CARTESIAN_POINT('',(-0.0586478634346277,0.0173941841643205,0.005));
#1549=CARTESIAN_POINT('',(-0.0586478634346277,0.0173941841643205,0.01));
#1550=CARTESIAN_POINT('',(-0.0586478634346277,0.0273941841643205,0.01));
#1551=CARTESIAN_POINT('',(-0.0586478634346277,0.0373941841643205,0.01));
#1552=CARTESIAN_POINT('',(-0.0586478634346277,0.0373941841643205,0.005));
#1553=CARTESIAN_POINT('',(-0.0586478634346277,0.0373941841643205,-3.03576608295941E-18));
#1554=CARTESIAN_POINT('',(-0.0586478634346277,-0.0121918158356795,0.));
#1555=CARTESIAN_POINT('',(-0.0586478634346277,0.0378081841643205,0.));
#1556=CARTESIAN_POINT('',(-0.0586478634346277,0.0378081841643205,0.015));
#1557=CARTESIAN_POINT('',(-0.0166478634346276,0.0378081841643205,0.015));
#1558=CARTESIAN_POINT('',(0.0253521365653724,0.0378081841643205,0.0149023685078621));
#1559=CARTESIAN_POINT('',(0.0250011728066356,0.0378081841643205,0.0149023685078621));
#1560=CARTESIAN_POINT('',(-0.0546478634346276,0.0378081841643205,0.013));
#1561=CARTESIAN_POINT('',(-0.0166478634346276,0.0378081841643205,0.));
#1562=CARTESIAN_POINT('',(0.0253521365653724,0.0378081841643205,0.0148768529855745));
#1563=CARTESIAN_POINT('',(0.025235759367649,0.0378081841643205,0.0148937585849316));
#1564=CARTESIAN_POINT('',(0.0251187790634468,0.0378081841643205,0.0149023685078621));
#1565=CARTESIAN_POINT('',(0.0250011728066356,0.0378081841643205,0.0149023685078621));
#1566=CARTESIAN_POINT('',(-0.0616478634346277,-0.0121918158356795,-0.003));
#1567=CARTESIAN_POINT('',(-0.0616478634346277,-0.0747778158356795,0.000137000000000005));
#1568=CARTESIAN_POINT('',(-0.0616478634346277,-0.0847778158356795,0.000137000000000007));
#1569=CARTESIAN_POINT('',(-0.0616478634346277,-0.0647778158356795,0.000137));
#1570=CARTESIAN_POINT('',(-0.0616478634346277,-0.0647778158356795,0.005137));
#1571=CARTESIAN_POINT('',(-0.0616478634346277,-0.0647778158356795,0.010137));
#1572=CARTESIAN_POINT('',(-0.0616478634346277,-0.0747778158356795,0.010137));
#1573=CARTESIAN_POINT('',(-0.0616478634346277,-0.0847778158356795,0.010137));
#1574=CARTESIAN_POINT('',(-0.0616478634346277,-0.0847778158356795,0.005137));
#1575=CARTESIAN_POINT('',(-0.0616478634346277,-0.0184098158356795,0.00468224474141016));
#1576=CARTESIAN_POINT('',(-0.0616478634346277,-0.0184098158356795,0.00568224474141016));
#1577=CARTESIAN_POINT('',(-0.0616478634346277,0.0408081841643205,-0.003));
#1578=CARTESIAN_POINT('',(-0.0616478634346277,0.0408081841643205,-0.0170635158755004));
#1579=CARTESIAN_POINT('',(-0.0616478634346277,0.0408081841643205,0.011137));
#1580=CARTESIAN_POINT('',(-0.0616478634346277,0.0392371841643205,-0.0170635158755004));
#1581=CARTESIAN_POINT('',(-0.0616478634346277,0.039045727425831,-0.0186228058797288));
#1582=CARTESIAN_POINT('',(-0.0616478634346277,-0.0236918158356795,-0.0109196041782373));
#1583=CARTESIAN_POINT('',(-0.0616478634346277,-0.086812272574169,-0.00316938661361114));
#1584=CARTESIAN_POINT('',(-0.0616478634346277,-0.0866208158356795,-0.00161009660938262));
#1585=CARTESIAN_POINT('',(-0.0616478634346277,-0.0881918158356795,-0.00161009660938262));
#1586=CARTESIAN_POINT('',(-0.0616478634346277,-0.0881918158356795,0.015));
#1587=CARTESIAN_POINT('',(-0.0616478634346277,-0.0881918158356795,0.011137));
#1588=CARTESIAN_POINT('',(-0.0616478634346277,-0.0843288158356795,0.011137));
#1589=CARTESIAN_POINT('',(-0.0616478634346277,-0.0843288158356795,0.015));
#1590=CARTESIAN_POINT('',(-0.0616478634346277,-0.0121918158356795,0.015));
#1591=CARTESIAN_POINT('',(-0.0616478634346277,0.0369451841643205,0.015));
#1592=CARTESIAN_POINT('',(-0.0616478634346277,0.0369451841643205,0.011137));
#1593=CARTESIAN_POINT('',(-0.0616478634346277,-0.0484098158356795,0.00468224474141016));
#1594=CARTESIAN_POINT('',(-0.0616478634346277,-0.0484098158356795,0.00568224474141016));
#1595=CARTESIAN_POINT('',(-0.0616478634346277,-0.0199098158356795,0.00526224474141016));
#1596=CARTESIAN_POINT('',(-0.0616478634346277,-0.0199098158356795,0.00362224474141016));
#1597=CARTESIAN_POINT('',(-0.0616478634346277,-0.0199098158356795,0.00584224474141016));
#1598=CARTESIAN_POINT('',(-0.0616478634346277,-0.0213498158356795,0.00584224474141016));
#1599=CARTESIAN_POINT('',(-0.0616478634346277,-0.0213498158356795,0.00728224474141016));
#1600=CARTESIAN_POINT('',(-0.0616478634346277,-0.0334098158356795,0.00728224474141016));
#1601=CARTESIAN_POINT('',(-0.0616478634346277,-0.0454698158356795,0.00728224474141016));
#1602=CARTESIAN_POINT('',(-0.0616478634346277,-0.0454698158356795,0.00584224474141016));
#1603=CARTESIAN_POINT('',(-0.0616478634346277,-0.0469098158356795,0.00584224474141016));
#1604=CARTESIAN_POINT('',(-0.0616478634346277,-0.0469098158356795,0.00526224474141016));
#1605=CARTESIAN_POINT('',(-0.0616478634346277,-0.0469098158356795,0.00362224474141016));
#1606=CARTESIAN_POINT('',(-0.0616478634346277,-0.0454698158356795,0.00362224474141016));
#1607=CARTESIAN_POINT('',(-0.0616478634346277,-0.0454698158356795,0.00218224474141016));
#1608=CARTESIAN_POINT('',(-0.0616478634346277,-0.0334098158356795,0.00218224474141016));
#1609=CARTESIAN_POINT('',(-0.0616478634346277,-0.0213498158356795,0.00218224474141016));
#1610=CARTESIAN_POINT('',(-0.0616478634346277,-0.0213498158356795,0.00362224474141015));
#1611=CARTESIAN_POINT('',(-0.0616478634346277,0.0273941841643205,0.01));
#1612=CARTESIAN_POINT('',(-0.0616478634346277,0.0373941841643205,0.01));
#1613=CARTESIAN_POINT('',(-0.0616478634346277,0.0173941841643205,0.01));
#1614=CARTESIAN_POINT('',(-0.0616478634346277,0.0173941841643205,0.005));
#1615=CARTESIAN_POINT('',(-0.0616478634346277,0.0173941841643205,3.46944695195361E-18));
#1616=CARTESIAN_POINT('',(-0.0616478634346277,0.0273941841643205,-3.03576608295941E-18));
#1617=CARTESIAN_POINT('',(-0.0616478634346277,0.0373941841643205,-3.03576608295941E-18));
#1618=CARTESIAN_POINT('',(-0.0616478634346277,0.0373941841643205,0.005));
#1619=CARTESIAN_POINT('',(0.0283521365653723,-0.0121918158356795,-0.003));
#1620=CARTESIAN_POINT('',(0.0283521365653723,-0.0131291214987021,-0.0106337420285588));
#1621=CARTESIAN_POINT('',(0.0283521365653723,-0.0866208158356795,-0.00161009660938262));
#1622=CARTESIAN_POINT('',(0.0283521365653723,0.0392371841643205,-0.0170635158755004));
#1623=CARTESIAN_POINT('',(0.0283521365653723,0.0392371841643205,-0.003));
#1624=CARTESIAN_POINT('',(0.0283521365653723,0.0392371841643205,0.011137));
#1625=CARTESIAN_POINT('',(0.0283521365653723,-0.0121918158356795,0.011137));
#1626=CARTESIAN_POINT('',(0.0283521365653723,-0.0866208158356795,0.011137));
#1627=CARTESIAN_POINT('',(0.0283521365653723,-0.0866208158356795,-0.003));
#1628=CARTESIAN_POINT('',(-0.0166478634346276,0.0408081841643205,-0.003));
#1629=CARTESIAN_POINT('',(-0.0166478634346276,0.0408081841643205,0.011137));
#1630=CARTESIAN_POINT('',(0.0267811365653724,0.0408081841643205,0.011137));
#1631=CARTESIAN_POINT('',(0.0267811365653724,0.0408081841643205,-0.003));
#1632=CARTESIAN_POINT('',(0.0267811365653724,0.0408081841643205,-0.0170635158755004));
#1633=CARTESIAN_POINT('',(-0.0166478634346276,0.0408081841643205,-0.0170635158755004));
#1634=CARTESIAN_POINT('',(-0.0166478634346276,-0.0121918158356795,0.015));
#1635=CARTESIAN_POINT('',(-0.0466478634346276,-0.0421918158356795,0.015));
#1636=CARTESIAN_POINT('',(-0.0466478634346276,-0.0421918158356795,0.015));
#1637=CARTESIAN_POINT('',(-0.0166478634346276,-0.0421918158356795,0.015));
#1638=CARTESIAN_POINT('',(-0.0166478634346276,0.0369451841643205,0.015));
#1639=CARTESIAN_POINT('',(0.0283521365653723,-0.0843288158356795,0.015));
#1640=CARTESIAN_POINT('',(0.0244891365653724,-0.0843288158356795,0.015));
#1641=CARTESIAN_POINT('',(0.0244891365653724,-0.0121918158356795,0.015));
#1642=CARTESIAN_POINT('',(0.0244891365653724,-0.0501918158356795,0.015));
#1643=CARTESIAN_POINT('',(-0.0166478634346276,-0.0501918158356795,0.015));
#1644=CARTESIAN_POINT('',(0.00535213656537235,-0.0501918158356795,0.015));
#1645=CARTESIAN_POINT('',(0.00535213656537235,-0.0501918158356795,0.015));
#1646=CARTESIAN_POINT('',(-0.0146478634346276,-0.0421918158356795,0.015));
#1647=CARTESIAN_POINT('',(-0.0146478634346276,-0.0421918158356795,0.015));
#1648=CARTESIAN_POINT('',(-0.0166478634346276,-0.0421918158356795,0.015));
#1649=CARTESIAN_POINT('',(-0.0266478634346277,-0.0421918158356795,0.015));
#1650=CARTESIAN_POINT('',(-0.0266478634346277,-0.0421918158356795,0.015));
#1651=CARTESIAN_POINT('',(-0.0166478634346276,-0.0121918158356795,0.));
#1652=CARTESIAN_POINT('',(-0.0586478634346277,0.0373941841643205,-3.03576608295941E-18));
#1653=CARTESIAN_POINT('',(-0.0586478634346277,0.0173941841643205,3.46944695195361E-18));
#1654=CARTESIAN_POINT('',(-0.0616478634346277,-0.0236918158356795,-0.0109196041782373));
#1655=CARTESIAN_POINT('',(-0.0616478634346277,0.039045727425831,-0.0186228058797288));
#1656=CARTESIAN_POINT('',(0.0267811365653724,0.039045727425831,-0.0186228058797288));
#1657=CARTESIAN_POINT('',(0.0267811365653724,-0.0236918158356795,-0.0109196041782373));
#1658=CARTESIAN_POINT('',(0.0267811365653724,-0.086812272574169,-0.00316938661361114));
#1659=CARTESIAN_POINT('',(-0.0616478634346277,-0.086812272574169,-0.00316938661361114));
#1660=CARTESIAN_POINT('',(-0.0616478634346277,-0.0881918158356795,0.015));
#1661=CARTESIAN_POINT('',(0.0283521365653723,-0.0881918158356795,-0.00161009660938262));
#1662=CARTESIAN_POINT('',(0.0267811365653724,-0.0881918158356795,-0.00161009660938262));
#1663=CARTESIAN_POINT('',(0.0267811365653724,-0.0881918158356795,0.011137));
#1664=CARTESIAN_POINT('',(0.0267811365653724,-0.0881918158356795,0.011137));
#1665=CARTESIAN_POINT('',(-0.0616478634346277,-0.0881918158356795,0.011137));
#1666=CARTESIAN_POINT('',(-0.0488478634346277,-0.0484098158356795,0.00468224474141016));
#1667=CARTESIAN_POINT('',(-0.0488478634346277,-0.0199098158356795,0.00526224474141016));
#1668=CARTESIAN_POINT('',(-0.0488478634346277,-0.0199098158356795,0.00584224474141016));
#1669=CARTESIAN_POINT('',(-0.0488478634346277,-0.0199098158356795,0.00362224474141016));
#1670=CARTESIAN_POINT('',(-0.0488478634346277,-0.0213498158356795,0.00362224474141015));
#1671=CARTESIAN_POINT('',(-0.0488478634346277,-0.0213498158356795,0.00218224474141016));
#1672=CARTESIAN_POINT('',(-0.0488478634346277,-0.0334098158356795,0.00218224474141016));
#1673=CARTESIAN_POINT('',(-0.0488478634346277,-0.0454698158356795,0.00218224474141016));
#1674=CARTESIAN_POINT('',(-0.0488478634346277,-0.0454698158356795,0.00362224474141016));
#1675=CARTESIAN_POINT('',(-0.0488478634346277,-0.0469098158356795,0.00362224474141016));
#1676=CARTESIAN_POINT('',(-0.0488478634346277,-0.0469098158356795,0.00526224474141016));
#1677=CARTESIAN_POINT('',(-0.0488478634346277,-0.0469098158356795,0.00584224474141016));
#1678=CARTESIAN_POINT('',(-0.0488478634346277,-0.0454698158356795,0.00584224474141016));
#1679=CARTESIAN_POINT('',(-0.0488478634346277,-0.0454698158356795,0.00728224474141016));
#1680=CARTESIAN_POINT('',(-0.0488478634346277,-0.0334098158356795,0.00728224474141016));
#1681=CARTESIAN_POINT('',(-0.0488478634346277,-0.0213498158356795,0.00728224474141016));
#1682=CARTESIAN_POINT('',(-0.0488478634346277,-0.0213498158356795,0.00584224474141016));
#1683=CARTESIAN_POINT('',(-0.0488478634346277,-0.0184098158356795,0.00468224474141016));
#1684=CARTESIAN_POINT('',(-0.0586478634346277,0.0273941841643205,0.01));
#1685=CARTESIAN_POINT('',(-0.0586478634346277,0.0373941841643205,0.01));
#1686=CARTESIAN_POINT('',(-0.0586478634346277,0.0173941841643205,0.01));
#1687=CARTESIAN_POINT('',(-0.0586478634346277,0.0373941841643205,0.005));
#1688=CARTESIAN_POINT('',(-0.0586478634346277,0.0173941841643205,0.005));
#1689=CARTESIAN_POINT('',(-0.0586478634346277,-0.0747778158356795,0.000137000000000005));
#1690=CARTESIAN_POINT('',(-0.0586478634346277,-0.0847778158356795,0.000137000000000007));
#1691=CARTESIAN_POINT('',(-0.0586478634346277,-0.0847778158356795,0.000137000000000007));
#1692=CARTESIAN_POINT('',(-0.0586478634346277,-0.0747778158356795,0.000137000000000005));
#1693=CARTESIAN_POINT('',(-0.0586478634346277,-0.0647778158356795,0.000137));
#1694=CARTESIAN_POINT('',(-0.0586478634346277,-0.0647778158356795,0.000137));
#1695=CARTESIAN_POINT('',(-0.0586478634346277,-0.0847778158356795,0.005137));
#1696=CARTESIAN_POINT('',(-0.0586478634346277,-0.0847778158356795,0.010137));
#1697=CARTESIAN_POINT('',(-0.0586478634346277,-0.0847778158356795,0.010137));
#1698=CARTESIAN_POINT('',(-0.0586478634346277,-0.0847778158356795,0.005137));
#1699=CARTESIAN_POINT('',(-0.0586478634346277,-0.0747778158356795,0.010137));
#1700=CARTESIAN_POINT('',(-0.0586478634346277,-0.0647778158356795,0.010137));
#1701=CARTESIAN_POINT('',(-0.0586478634346277,-0.0647778158356795,0.010137));
#1702=CARTESIAN_POINT('',(-0.0586478634346277,-0.0747778158356795,0.010137));
#1703=CARTESIAN_POINT('',(-0.0586478634346277,-0.0647778158356795,0.005137));
#1704=CARTESIAN_POINT('',(-0.0586478634346277,-0.0647778158356795,0.005137));
#1705=CARTESIAN_POINT('',(-0.0586478634346277,-0.0236918158356795,-0.00191960417823733));
#1706=CARTESIAN_POINT('',(-0.0166478634346276,0.0369451841643205,0.011137));
#1707=CARTESIAN_POINT('',(0.0244891365653724,0.0369451841643205,0.011137));
#1708=CARTESIAN_POINT('',(0.0244891365653724,-0.0121918158356795,0.011137));
#1709=CARTESIAN_POINT('',(0.0244891365653724,0.0369451841643205,0.011137));
#1710=CARTESIAN_POINT('',(0.0253521365653724,-0.0621918158356795,0.0149023685078621));
#1711=CARTESIAN_POINT('',(0.0244891365653724,-0.0501918158356795,0.011137));
#1712=CARTESIAN_POINT('',(0.0244891365653724,-0.0843288158356795,0.011137));
#1713=CARTESIAN_POINT('',(-0.0166478634346276,-0.0843288158356795,0.011137));
#1714=CARTESIAN_POINT('',(0.0244891365653724,-0.0843288158356795,0.011137));
#1715=CARTESIAN_POINT('',(0.0283521365653724,-0.0866208158356795,0.011137));
#1716=CARTESIAN_POINT('',(0.0283521365653724,-0.0881918158356795,0.011137));
#1717=CARTESIAN_POINT('',(0.0267811365653724,-0.0881918158356795,0.011137));
#1718=CARTESIAN_POINT('',(0.0283521365653724,-0.0866208158356753,0.0116426655496191));
#1719=CARTESIAN_POINT('',(0.02835213656529,-0.0881918158355974,0.0118483090029507));
#1720=CARTESIAN_POINT('',(0.0267811365653656,-0.0881918158356795,0.0116426655496191));
#1721=CARTESIAN_POINT('',(0.0281509949545128,-0.0865014742431135,0.0126537608075341));
#1722=CARTESIAN_POINT('',(0.027995388903428,-0.0878350681737345,0.0131461032005334));
#1723=CARTESIAN_POINT('',(0.0266617949728075,-0.08799067422482,0.0126537608075341));
#1724=CARTESIAN_POINT('',(0.0272918120079274,-0.0859917027407622,0.01393967544456));
#1725=CARTESIAN_POINT('',(0.0269185362373417,-0.0867582155076503,0.01429519278074));
#1726=CARTESIAN_POINT('',(0.0261520234704546,-0.0871314912782342,0.01393967544456));
#1727=CARTESIAN_POINT('',(0.0260058973803533,-0.0852287422627923,0.0147988583885676));
#1728=CARTESIAN_POINT('',(0.0257289860704017,-0.0855686653407041,0.0148756653389227));
#1729=CARTESIAN_POINT('',(0.0253890629924856,-0.0858455766506618,0.0147988583885676));
#1730=CARTESIAN_POINT('',(0.024994802098952,-0.0846288379436177,0.015));
#1731=CARTESIAN_POINT('',(0.0248919804052987,-0.0847316596756158,0.0149999999999841));
#1732=CARTESIAN_POINT('',(0.0247891586733098,-0.0848344813692563,0.015));
#1733=CARTESIAN_POINT('',(0.0244891365653723,-0.0843288158356795,0.015));
#1734=CARTESIAN_POINT('',(0.0244891365653723,-0.0843288158356795,0.015));
#1735=CARTESIAN_POINT('',(0.0244891365653724,-0.0843288158356795,0.015));
#1736=CARTESIAN_POINT('',(0.0267811365653724,-0.0866208158356795,0.011137));
#1737=CARTESIAN_POINT('',(-0.0616478634346277,-0.0866208158356795,-0.00161009660938262));
#1738=CARTESIAN_POINT('',(0.0267811365653724,-0.0866208158356795,-0.00161009660938262));
#1739=CARTESIAN_POINT('',(0.0267811365653724,-0.0866208158356795,-0.003));
#1740=CARTESIAN_POINT('',(0.0267811365653724,-0.0866208158356795,-0.00161009660938262));
#1741=CARTESIAN_POINT('',(0.0267811365653724,-0.0866208158356795,-0.00161009660938262));
#1742=CARTESIAN_POINT('',(0.0267811365653724,-0.0866208158356795,-0.00161009660938262));
#1743=CARTESIAN_POINT('',(-0.0616478634346277,0.0392371841643205,-0.0170635158755004));
#1744=CARTESIAN_POINT('',(0.0267811365653724,0.0392371841643205,-0.0170635158755004));
#1745=CARTESIAN_POINT('',(0.0267811365653724,-0.0131291214987021,-0.0106337420285588));
#1746=CARTESIAN_POINT('',(0.0267811365653724,0.0392371841643205,-0.0170635158755004));
#1747=CARTESIAN_POINT('',(0.0267811365653724,0.0392371841643205,-0.0170635158755004));
#1748=CARTESIAN_POINT('',(0.0267811365653724,0.0392371841643205,-0.0170635158755004));
#1749=CARTESIAN_POINT('',(0.0267811365653724,0.0392371841643205,-0.003));
#1750=CARTESIAN_POINT('',(0.0267811365653724,0.0392371841643205,0.011137));
#1751=CARTESIAN_POINT('',(0.0253217110995453,0.0374391683300788,0.0149092126988078));
#1752=CARTESIAN_POINT('',(0.0251564413906463,0.0376124889895945,0.0149456897911369));
#1753=CARTESIAN_POINT('',(0.0249831207311307,0.0377777586984934,0.0149092126988078));
#1754=CARTESIAN_POINT('',(0.0257472061771265,0.0376916236026192,0.0148153006121108));
#1755=CARTESIAN_POINT('',(0.0255059331658406,0.0379619807647823,0.0148883431646366));
#1756=CARTESIAN_POINT('',(0.0252355760036692,0.0382032537760767,0.0148153006121103));
#1757=CARTESIAN_POINT('',(0.0265660039778548,0.0381774337396264,0.0144821362212595));
#1758=CARTESIAN_POINT('',(0.0262173018748262,0.0386733494737774,0.0146743613057141));
#1759=CARTESIAN_POINT('',(0.0257213861406792,0.0390220515768019,0.0144821362212597));
#1760=CARTESIAN_POINT('',(0.0275587275326421,0.0387664377229488,0.0136029708733261));
#1761=CARTESIAN_POINT('',(0.0272132276546058,0.0396692752535531,0.0140330903460457));
#1762=CARTESIAN_POINT('',(0.0263103901240002,0.0400147751315905,0.013602970873326));
#1763=CARTESIAN_POINT('',(0.0282032738300324,0.0391488607396786,0.0124440956177427));
#1764=CARTESIAN_POINT('',(0.0280854099811749,0.0405414575801231,0.0128980012927869));
#1765=CARTESIAN_POINT('',(0.0266928131407312,0.0406593214289804,0.0124440956177427));
#1766=CARTESIAN_POINT('',(0.0283521365653724,0.039237184164316,0.0115727356455865));
#1767=CARTESIAN_POINT('',(0.0283521365653014,0.0408081841642501,0.0117499400902349));
#1768=CARTESIAN_POINT('',(0.0267811365653665,0.0408081841643205,0.0115727356455865));
#1769=CARTESIAN_POINT('',(0.0283521365653724,0.0392371841643205,0.011137));
#1770=CARTESIAN_POINT('',(0.0283521365653724,0.0408081841643205,0.011137));
#1771=CARTESIAN_POINT('',(0.0267811365653724,0.0408081841643205,0.011137));
#1772=CARTESIAN_POINT('',(-0.0546478634346276,-0.0121918158356795,0.013));
#1773=CARTESIAN_POINT('',(-0.0506478634346277,-0.0421918158356795,0.013));
#1774=CARTESIAN_POINT('',(-0.0466478634346277,-0.0421918158356795,0.013));
#1775=CARTESIAN_POINT('',(-0.0466478634346277,-0.0421918158356795,0.013));
#1776=CARTESIAN_POINT('',(-0.0206478634346276,-0.0421918158356795,0.013));
#1777=CARTESIAN_POINT('',(-0.0266478634346277,-0.0421918158356795,0.013));
#1778=CARTESIAN_POINT('',(-0.0266478634346277,-0.0421918158356795,0.013));
#1779=CARTESIAN_POINT('',(-0.0206478634346276,-0.0421918158356795,0.013));
#1780=CARTESIAN_POINT('',(-0.0146478634346276,-0.0421918158356795,0.013));
#1781=CARTESIAN_POINT('',(-0.0146478634346276,-0.0421918158356795,0.013));
#1782=CARTESIAN_POINT('',(-0.0266478634346277,-0.0421918158356795,0.014));
#1783=CARTESIAN_POINT('',(-0.0266478634346277,-0.0421918158356795,0.014));
#1784=CARTESIAN_POINT('',(-0.0146478634346276,-0.0421918158356795,0.014));
#1785=CARTESIAN_POINT('',(-0.0146478634346276,-0.0421918158356795,0.014));
#1786=CARTESIAN_POINT('',(-0.0166478634346276,-0.0421918158356795,0.0075));
#1787=CARTESIAN_POINT('',(-0.0466478634346276,-0.0421918158356795,0.014));
#1788=CARTESIAN_POINT('',(-0.0466478634346276,-0.0421918158356795,0.014));
#1789=CARTESIAN_POINT('',(-0.0166478634346276,-0.0421918158356795,0.0075));
#1790=CARTESIAN_POINT('',(0.0153521365653724,-0.0501918158356795,0.013));
#1791=CARTESIAN_POINT('',(0.00535213656537235,-0.0501918158356795,0.013));
#1792=CARTESIAN_POINT('',(0.00535213656537235,-0.0501918158356795,0.013));
#1793=CARTESIAN_POINT('',(0.0153521365653724,-0.0501918158356795,0.013));
#1794=CARTESIAN_POINT('',(0.00535213656537235,-0.0501918158356795,0.014));
#1795=CARTESIAN_POINT('',(0.00535213656537235,-0.0501918158356795,0.014));
#1796=CARTESIAN_POINT('',(-0.0166478634346276,-0.0501918158356795,0.0075));
#1797=CARTESIAN_POINT('',(0.00535213656537235,-0.0311918158356795,0.0139023685078621));
#1798=CARTESIAN_POINT('',(0.00535213656537235,-0.0311918158356795,0.0149023685078621));
#1799=CARTESIAN_POINT('',(0.00535213656537235,-0.0311918158356795,0.0149023685078621));
#1800=CARTESIAN_POINT('',(0.00535213656537235,-0.0311918158356795,0.0139023685078621));
#1801=CARTESIAN_POINT('',(0.00535213656537235,-0.0311918158356795,0.0129023685078621));
#1802=CARTESIAN_POINT('',(0.00535213656537235,-0.0311918158356795,0.0129023685078621));
#1803=CARTESIAN_POINT('',(0.00535213656537235,-0.0621918158356795,0.0149023685078621));
#1804=CARTESIAN_POINT('',(0.00535213656537235,-0.0221918158356795,0.0149023685078621));
#1805=CARTESIAN_POINT('',(0.00535213656537235,-0.0221918158356795,0.0149023685078621));
#1806=CARTESIAN_POINT('',(0.00535213656537235,-0.0621918158356795,0.0149023685078621));
#1807=CARTESIAN_POINT('',(0.00535213656537235,-0.0221918158356795,0.0139023685078621));
#1808=CARTESIAN_POINT('',(0.00535213656537235,-0.0221918158356795,0.0129023685078621));
#1809=CARTESIAN_POINT('',(0.00535213656537235,-0.0221918158356795,0.0129023685078621));
#1810=CARTESIAN_POINT('',(0.00535213656537235,-0.0221918158356795,0.0139023685078621));
#1811=CARTESIAN_POINT('',(0.00535213656537235,-0.0266918158356795,0.0129023685078621));
#1812=CARTESIAN_POINT('',(0.00535213656537235,-0.0266918158356795,0.0129023685078621));
#1813=CARTESIAN_POINT('',(0.00535213656537235,-0.0121918158356795,0.00746394201507489));
#1814=MECHANICAL_DESIGN_GEOMETRIC_PRESENTATION_REPRESENTATION('',(#1076),#1815);
#1815=(
GEOMETRIC_REPRESENTATION_CONTEXT(3)
GLOBAL_UNCERTAINTY_ASSIGNED_CONTEXT((#1816))
GLOBAL_UNIT_ASSIGNED_CONTEXT((#1819,#1818,#1817))
REPRESENTATION_CONTEXT('Part 1','TOP_LEVEL_ASSEMBLY_PART')
);
#1816=UNCERTAINTY_MEASURE_WITH_UNIT(LENGTH_MEASURE(2.E-05),#1819,'DISTANCE_ACCURACY_VALUE','Maximum Tolerance applied to model');
#1817=(
NAMED_UNIT(*)
SI_UNIT($,.STERADIAN.)
SOLID_ANGLE_UNIT()
);
#1818=(
NAMED_UNIT(*)
PLANE_ANGLE_UNIT()
SI_UNIT($,.RADIAN.)
);
#1819=(
LENGTH_UNIT()
NAMED_UNIT(*)
SI_UNIT($,.METRE.)
);
#1820=PRODUCT_DEFINITION_SHAPE('','',#1821);
#1821=PRODUCT_DEFINITION('','',#1823,#1822);
#1822=PRODUCT_DEFINITION_CONTEXT('',#1829,'design');
#1823=PRODUCT_DEFINITION_FORMATION_WITH_SPECIFIED_SOURCE('','',#1825,.NOT_KNOWN.);
#1824=PRODUCT_RELATED_PRODUCT_CATEGORY('','',(#1825));
#1825=PRODUCT('Part 1','Part 1','Part 1',(#1827));
#1826=PRODUCT_CATEGORY('','');
#1827=PRODUCT_CONTEXT('',#1829,'mechanical');
#1828=APPLICATION_PROTOCOL_DEFINITION('international standard','ap242_managed_model_based_3d_engineering',2020,#1829);
#1829=APPLICATION_CONTEXT('managed model based 3d engineering');
ENDSEC;
END-ISO-10303-21;
