ISO-10303-21;
HEADER;
/*Generated by software containing ST-Developer
 * from STEP Tools, Inc. (www.steptools.com) 
 */
/*OPTION: using custom renumber hook */
/*description */
/*implementation_level */
FILE_DESCRIPTION(('STEP AP242 Edition 2','STEP AP242 Edition 2''CAx-IF Rec.Pracs.---Representation and Presentation of Product Manufa
cturing Information (PMI)---4.0---2014-10-13','STEP AP242 Edition 2''CAx-IF Rec.Pracs.---Representation and Presentation of Product Manufa
cturing Information (PMI)---4.0---2014-10-13''CAx-IF Rec.Pracs.---3D Tessellated Geometry---0.4---2014-09-14','STEP AP242 Edition 2''CAx-IF Rec.Pracs.---Representation and Presentation of Product Manufa
cturing Information (PMI)---4.0---2014-10-13''CAx-IF Rec.Pracs.---3D Tessellated Geometry---0.4---2014-09-14''2;1','STEP AP242 Edition 2''CAx-IF Rec.Pracs.---Representation and Presentation of Product Manufa
cturing Information (PMI)---4.0---2014-10-13''CAx-IF Rec.Pracs.---3D Tessellated Geometry---0.4---2014-09-14''2;1''CAx-IF Rec.Pracs.---User Defined Attributes---1.5---2016-08-15'),'2;1');
/*name */
/*time_stamp */
/*author */
/*organization */
/*preprocessor_version */
/*originating_system */
/*authorisation */
FILE_NAME('/vol/tmp/translate-13078473688064646972/Part Studio 2 Copy 1 - Part 1.step','2026-03-09T18:49:22',(''),(''),'ST-DEVELOPER v20','ONSHAPE BY PTC INC, 1.211','  ');
FILE_SCHEMA(('AP242_MANAGED_MODEL_BASED_3D_ENGINEERING_MIM_LF { 1 0 10303 442 3 1 4 }'));
ENDSEC;
DATA;
#10=SHAPE_REPRESENTATION_RELATIONSHIP('','',#670,#11);
#11=ADVANCED_BREP_SHAPE_REPRESENTATION('',(#668),#1096);
#12=CIRCLE('',#677,0.003863);
#13=CIRCLE('',#678,0.003863);
#14=CIRCLE('',#680,0.003863);
#15=CIRCLE('',#681,0.003863);
#16=CIRCLE('',#682,0.003863);
#17=CIRCLE('',#683,0.003863);
#18=CIRCLE('',#685,0.001571);
#19=CIRCLE('',#686,0.001571);
#20=CIRCLE('',#688,0.001571);
#21=CIRCLE('',#689,0.001571);
#22=CIRCLE('',#694,0.001);
#23=CIRCLE('',#695,0.001);
#24=CIRCLE('',#696,0.00144);
#25=CIRCLE('',#697,0.00144);
#26=CIRCLE('',#698,0.00144);
#27=CIRCLE('',#699,0.00144);
#28=CIRCLE('',#701,0.00144);
#29=CIRCLE('',#702,0.00144);
#30=CIRCLE('',#703,0.00144);
#31=CIRCLE('',#704,0.00144);
#32=CIRCLE('',#705,0.001);
#33=CIRCLE('',#706,0.001);
#34=CYLINDRICAL_SURFACE('',#676,0.003863);
#35=CYLINDRICAL_SURFACE('',#679,0.003863);
#36=CYLINDRICAL_SURFACE('',#684,0.001571);
#37=CYLINDRICAL_SURFACE('',#687,0.001571);
#38=CYLINDRICAL_SURFACE('',#707,0.001);
#39=CYLINDRICAL_SURFACE('',#709,0.00144);
#40=CYLINDRICAL_SURFACE('',#711,0.00144);
#41=CYLINDRICAL_SURFACE('',#713,0.00144);
#42=CYLINDRICAL_SURFACE('',#715,0.00144);
#43=CYLINDRICAL_SURFACE('',#716,0.001);
#44=ORIENTED_EDGE('',*,*,#226,.T.);
#45=ORIENTED_EDGE('',*,*,#227,.T.);
#46=ORIENTED_EDGE('',*,*,#228,.T.);
#47=ORIENTED_EDGE('',*,*,#229,.T.);
#48=ORIENTED_EDGE('',*,*,#230,.T.);
#49=ORIENTED_EDGE('',*,*,#231,.T.);
#50=ORIENTED_EDGE('',*,*,#232,.T.);
#51=ORIENTED_EDGE('',*,*,#233,.F.);
#52=ORIENTED_EDGE('',*,*,#234,.T.);
#53=ORIENTED_EDGE('',*,*,#235,.T.);
#54=ORIENTED_EDGE('',*,*,#236,.T.);
#55=ORIENTED_EDGE('',*,*,#237,.F.);
#56=ORIENTED_EDGE('',*,*,#238,.T.);
#57=ORIENTED_EDGE('',*,*,#239,.T.);
#58=ORIENTED_EDGE('',*,*,#240,.T.);
#59=ORIENTED_EDGE('',*,*,#241,.T.);
#60=ORIENTED_EDGE('',*,*,#242,.F.);
#61=ORIENTED_EDGE('',*,*,#243,.T.);
#62=ORIENTED_EDGE('',*,*,#244,.T.);
#63=ORIENTED_EDGE('',*,*,#245,.T.);
#64=ORIENTED_EDGE('',*,*,#243,.F.);
#65=ORIENTED_EDGE('',*,*,#246,.T.);
#66=ORIENTED_EDGE('',*,*,#230,.F.);
#67=ORIENTED_EDGE('',*,*,#247,.F.);
#68=ORIENTED_EDGE('',*,*,#232,.F.);
#69=ORIENTED_EDGE('',*,*,#248,.T.);
#70=ORIENTED_EDGE('',*,*,#226,.F.);
#71=ORIENTED_EDGE('',*,*,#249,.F.);
#72=ORIENTED_EDGE('',*,*,#236,.F.);
#73=ORIENTED_EDGE('',*,*,#250,.F.);
#74=ORIENTED_EDGE('',*,*,#251,.F.);
#75=ORIENTED_EDGE('',*,*,#252,.F.);
#76=ORIENTED_EDGE('',*,*,#240,.F.);
#77=ORIENTED_EDGE('',*,*,#253,.T.);
#78=ORIENTED_EDGE('',*,*,#245,.F.);
#79=ORIENTED_EDGE('',*,*,#254,.F.);
#80=ORIENTED_EDGE('',*,*,#228,.F.);
#81=ORIENTED_EDGE('',*,*,#255,.T.);
#82=ORIENTED_EDGE('',*,*,#238,.F.);
#83=ORIENTED_EDGE('',*,*,#256,.F.);
#84=ORIENTED_EDGE('',*,*,#234,.F.);
#85=ORIENTED_EDGE('',*,*,#257,.T.);
#86=ORIENTED_EDGE('',*,*,#258,.T.);
#87=ORIENTED_EDGE('',*,*,#259,.F.);
#88=ORIENTED_EDGE('',*,*,#260,.F.);
#89=ORIENTED_EDGE('',*,*,#251,.T.);
#90=ORIENTED_EDGE('',*,*,#261,.T.);
#91=ORIENTED_EDGE('',*,*,#262,.F.);
#92=ORIENTED_EDGE('',*,*,#258,.F.);
#93=ORIENTED_EDGE('',*,*,#263,.T.);
#94=ORIENTED_EDGE('',*,*,#262,.T.);
#95=ORIENTED_EDGE('',*,*,#264,.F.);
#96=ORIENTED_EDGE('',*,*,#265,.T.);
#97=ORIENTED_EDGE('',*,*,#266,.T.);
#98=ORIENTED_EDGE('',*,*,#267,.F.);
#99=ORIENTED_EDGE('',*,*,#268,.F.);
#100=ORIENTED_EDGE('',*,*,#269,.T.);
#101=ORIENTED_EDGE('',*,*,#270,.T.);
#102=ORIENTED_EDGE('',*,*,#271,.F.);
#103=ORIENTED_EDGE('',*,*,#272,.F.);
#104=ORIENTED_EDGE('',*,*,#273,.F.);
#105=ORIENTED_EDGE('',*,*,#229,.F.);
#106=ORIENTED_EDGE('',*,*,#256,.T.);
#107=ORIENTED_EDGE('',*,*,#241,.F.);
#108=ORIENTED_EDGE('',*,*,#254,.T.);
#109=ORIENTED_EDGE('',*,*,#244,.F.);
#110=ORIENTED_EDGE('',*,*,#247,.T.);
#111=ORIENTED_EDGE('',*,*,#237,.T.);
#112=ORIENTED_EDGE('',*,*,#249,.T.);
#113=ORIENTED_EDGE('',*,*,#274,.F.);
#114=ORIENTED_EDGE('',*,*,#275,.T.);
#115=ORIENTED_EDGE('',*,*,#276,.F.);
#116=ORIENTED_EDGE('',*,*,#277,.F.);
#117=ORIENTED_EDGE('',*,*,#278,.F.);
#118=ORIENTED_EDGE('',*,*,#279,.F.);
#119=ORIENTED_EDGE('',*,*,#280,.F.);
#120=ORIENTED_EDGE('',*,*,#281,.T.);
#121=ORIENTED_EDGE('',*,*,#282,.F.);
#122=ORIENTED_EDGE('',*,*,#283,.T.);
#123=ORIENTED_EDGE('',*,*,#284,.T.);
#124=ORIENTED_EDGE('',*,*,#266,.F.);
#125=ORIENTED_EDGE('',*,*,#285,.F.);
#126=ORIENTED_EDGE('',*,*,#286,.F.);
#127=ORIENTED_EDGE('',*,*,#287,.T.);
#128=ORIENTED_EDGE('',*,*,#288,.F.);
#129=ORIENTED_EDGE('',*,*,#289,.T.);
#130=ORIENTED_EDGE('',*,*,#290,.T.);
#131=ORIENTED_EDGE('',*,*,#291,.T.);
#132=ORIENTED_EDGE('',*,*,#292,.T.);
#133=ORIENTED_EDGE('',*,*,#293,.T.);
#134=ORIENTED_EDGE('',*,*,#294,.T.);
#135=ORIENTED_EDGE('',*,*,#295,.T.);
#136=ORIENTED_EDGE('',*,*,#261,.F.);
#137=ORIENTED_EDGE('',*,*,#250,.T.);
#138=ORIENTED_EDGE('',*,*,#235,.F.);
#139=ORIENTED_EDGE('',*,*,#259,.T.);
#140=ORIENTED_EDGE('',*,*,#268,.T.);
#141=ORIENTED_EDGE('',*,*,#296,.F.);
#142=ORIENTED_EDGE('',*,*,#297,.F.);
#143=ORIENTED_EDGE('',*,*,#298,.T.);
#144=ORIENTED_EDGE('',*,*,#264,.T.);
#145=ORIENTED_EDGE('',*,*,#274,.T.);
#146=ORIENTED_EDGE('',*,*,#294,.F.);
#147=ORIENTED_EDGE('',*,*,#286,.T.);
#148=ORIENTED_EDGE('',*,*,#299,.T.);
#149=ORIENTED_EDGE('',*,*,#275,.F.);
#150=ORIENTED_EDGE('',*,*,#300,.F.);
#151=ORIENTED_EDGE('',*,*,#300,.T.);
#152=ORIENTED_EDGE('',*,*,#282,.T.);
#153=ORIENTED_EDGE('',*,*,#301,.F.);
#154=ORIENTED_EDGE('',*,*,#287,.F.);
#155=ORIENTED_EDGE('',*,*,#288,.T.);
#156=ORIENTED_EDGE('',*,*,#301,.T.);
#157=ORIENTED_EDGE('',*,*,#281,.F.);
#158=ORIENTED_EDGE('',*,*,#302,.F.);
#159=ORIENTED_EDGE('',*,*,#302,.T.);
#160=ORIENTED_EDGE('',*,*,#280,.T.);
#161=ORIENTED_EDGE('',*,*,#303,.F.);
#162=ORIENTED_EDGE('',*,*,#289,.F.);
#163=ORIENTED_EDGE('',*,*,#303,.T.);
#164=ORIENTED_EDGE('',*,*,#279,.T.);
#165=ORIENTED_EDGE('',*,*,#304,.F.);
#166=ORIENTED_EDGE('',*,*,#290,.F.);
#167=ORIENTED_EDGE('',*,*,#304,.T.);
#168=ORIENTED_EDGE('',*,*,#278,.T.);
#169=ORIENTED_EDGE('',*,*,#305,.F.);
#170=ORIENTED_EDGE('',*,*,#291,.F.);
#171=ORIENTED_EDGE('',*,*,#305,.T.);
#172=ORIENTED_EDGE('',*,*,#277,.T.);
#173=ORIENTED_EDGE('',*,*,#306,.F.);
#174=ORIENTED_EDGE('',*,*,#292,.F.);
#175=ORIENTED_EDGE('',*,*,#306,.T.);
#176=ORIENTED_EDGE('',*,*,#276,.T.);
#177=ORIENTED_EDGE('',*,*,#299,.F.);
#178=ORIENTED_EDGE('',*,*,#293,.F.);
#179=ORIENTED_EDGE('',*,*,#273,.T.);
#180=ORIENTED_EDGE('',*,*,#295,.F.);
#181=ORIENTED_EDGE('',*,*,#283,.F.);
#182=ORIENTED_EDGE('',*,*,#307,.F.);
#183=ORIENTED_EDGE('',*,*,#297,.T.);
#184=ORIENTED_EDGE('',*,*,#308,.T.);
#185=ORIENTED_EDGE('',*,*,#285,.T.);
#186=ORIENTED_EDGE('',*,*,#265,.F.);
#187=ORIENTED_EDGE('',*,*,#298,.F.);
#188=ORIENTED_EDGE('',*,*,#307,.T.);
#189=ORIENTED_EDGE('',*,*,#284,.F.);
#190=ORIENTED_EDGE('',*,*,#308,.F.);
#191=ORIENTED_EDGE('',*,*,#296,.T.);
#192=ORIENTED_EDGE('',*,*,#267,.T.);
#193=ORIENTED_EDGE('',*,*,#269,.F.);
#194=ORIENTED_EDGE('',*,*,#309,.F.);
#195=ORIENTED_EDGE('',*,*,#310,.T.);
#196=ORIENTED_EDGE('',*,*,#311,.T.);
#197=ORIENTED_EDGE('',*,*,#272,.T.);
#198=ORIENTED_EDGE('',*,*,#312,.F.);
#199=ORIENTED_EDGE('',*,*,#313,.F.);
#200=ORIENTED_EDGE('',*,*,#309,.T.);
#201=ORIENTED_EDGE('',*,*,#271,.T.);
#202=ORIENTED_EDGE('',*,*,#314,.F.);
#203=ORIENTED_EDGE('',*,*,#315,.F.);
#204=ORIENTED_EDGE('',*,*,#312,.T.);
#205=ORIENTED_EDGE('',*,*,#270,.F.);
#206=ORIENTED_EDGE('',*,*,#311,.F.);
#207=ORIENTED_EDGE('',*,*,#316,.T.);
#208=ORIENTED_EDGE('',*,*,#314,.T.);
#209=ORIENTED_EDGE('',*,*,#310,.F.);
#210=ORIENTED_EDGE('',*,*,#313,.T.);
#211=ORIENTED_EDGE('',*,*,#315,.T.);
#212=ORIENTED_EDGE('',*,*,#316,.F.);
#213=ORIENTED_EDGE('',*,*,#233,.T.);
#214=ORIENTED_EDGE('',*,*,#252,.T.);
#215=ORIENTED_EDGE('',*,*,#260,.T.);
#216=ORIENTED_EDGE('',*,*,#263,.F.);
#217=ORIENTED_EDGE('',*,*,#257,.F.);
#218=ORIENTED_EDGE('',*,*,#246,.F.);
#219=ORIENTED_EDGE('',*,*,#242,.T.);
#220=ORIENTED_EDGE('',*,*,#253,.F.);
#221=ORIENTED_EDGE('',*,*,#239,.F.);
#222=ORIENTED_EDGE('',*,*,#255,.F.);
#223=ORIENTED_EDGE('',*,*,#227,.F.);
#224=ORIENTED_EDGE('',*,*,#248,.F.);
#225=ORIENTED_EDGE('',*,*,#231,.F.);
#226=EDGE_CURVE('',#317,#318,#379,.F.);
#227=EDGE_CURVE('',#318,#319,#380,.T.);
#228=EDGE_CURVE('',#319,#320,#381,.F.);
#229=EDGE_CURVE('',#320,#317,#382,.T.);
#230=EDGE_CURVE('',#321,#322,#383,.T.);
#231=EDGE_CURVE('',#322,#323,#384,.T.);
#232=EDGE_CURVE('',#323,#324,#385,.T.);
#233=EDGE_CURVE('',#325,#324,#386,.T.);
#234=EDGE_CURVE('',#325,#326,#387,.T.);
#235=EDGE_CURVE('',#326,#327,#388,.T.);
#236=EDGE_CURVE('',#327,#328,#389,.T.);
#237=EDGE_CURVE('',#321,#328,#390,.T.);
#238=EDGE_CURVE('',#329,#330,#391,.T.);
#239=EDGE_CURVE('',#330,#331,#392,.T.);
#240=EDGE_CURVE('',#331,#332,#393,.F.);
#241=EDGE_CURVE('',#332,#329,#394,.T.);
#242=EDGE_CURVE('',#333,#334,#395,.T.);
#243=EDGE_CURVE('',#333,#335,#396,.F.);
#244=EDGE_CURVE('',#335,#336,#397,.T.);
#245=EDGE_CURVE('',#336,#334,#398,.T.);
#246=EDGE_CURVE('',#333,#322,#12,.F.);
#247=EDGE_CURVE('',#335,#321,#13,.F.);
#248=EDGE_CURVE('',#323,#318,#14,.F.);
#249=EDGE_CURVE('',#328,#317,#15,.F.);
#250=EDGE_CURVE('',#337,#327,#16,.F.);
#251=EDGE_CURVE('',#338,#337,#399,.T.);
#252=EDGE_CURVE('',#324,#338,#17,.T.);
#253=EDGE_CURVE('',#331,#334,#18,.F.);
#254=EDGE_CURVE('',#332,#336,#19,.F.);
#255=EDGE_CURVE('',#319,#330,#20,.F.);
#256=EDGE_CURVE('',#320,#329,#21,.F.);
#257=EDGE_CURVE('',#325,#339,#400,.T.);
#258=EDGE_CURVE('',#339,#340,#401,.T.);
#259=EDGE_CURVE('',#326,#340,#402,.T.);
#260=EDGE_CURVE('',#338,#341,#403,.T.);
#261=EDGE_CURVE('',#337,#342,#404,.T.);
#262=EDGE_CURVE('',#341,#342,#405,.T.);
#263=EDGE_CURVE('',#339,#341,#406,.T.);
#264=EDGE_CURVE('',#343,#342,#407,.T.);
#265=EDGE_CURVE('',#343,#344,#408,.T.);
#266=EDGE_CURVE('',#344,#345,#409,.T.);
#267=EDGE_CURVE('',#346,#345,#410,.T.);
#268=EDGE_CURVE('',#340,#346,#411,.T.);
#269=EDGE_CURVE('',#347,#348,#412,.T.);
#270=EDGE_CURVE('',#348,#349,#413,.T.);
#271=EDGE_CURVE('',#350,#349,#414,.T.);
#272=EDGE_CURVE('',#347,#350,#415,.T.);
#273=EDGE_CURVE('',#351,#351,#22,.T.);
#274=EDGE_CURVE('',#352,#352,#23,.T.);
#275=EDGE_CURVE('',#353,#354,#416,.T.);
#276=EDGE_CURVE('',#355,#354,#24,.T.);
#277=EDGE_CURVE('',#356,#355,#417,.T.);
#278=EDGE_CURVE('',#357,#356,#25,.T.);
#279=EDGE_CURVE('',#358,#357,#418,.T.);
#280=EDGE_CURVE('',#359,#358,#26,.T.);
#281=EDGE_CURVE('',#359,#360,#419,.T.);
#282=EDGE_CURVE('',#353,#360,#27,.T.);
#283=EDGE_CURVE('',#361,#362,#420,.T.);
#284=EDGE_CURVE('',#362,#345,#421,.T.);
#285=EDGE_CURVE('',#361,#344,#422,.T.);
#286=EDGE_CURVE('',#363,#364,#423,.T.);
#287=EDGE_CURVE('',#363,#365,#28,.T.);
#288=EDGE_CURVE('',#366,#365,#424,.T.);
#289=EDGE_CURVE('',#366,#367,#29,.T.);
#290=EDGE_CURVE('',#367,#368,#425,.T.);
#291=EDGE_CURVE('',#368,#369,#30,.T.);
#292=EDGE_CURVE('',#369,#370,#426,.T.);
#293=EDGE_CURVE('',#370,#364,#31,.T.);
#294=EDGE_CURVE('',#371,#371,#32,.T.);
#295=EDGE_CURVE('',#372,#372,#33,.T.);
#296=EDGE_CURVE('',#373,#346,#427,.T.);
#297=EDGE_CURVE('',#374,#373,#428,.T.);
#298=EDGE_CURVE('',#374,#343,#429,.T.);
#299=EDGE_CURVE('',#364,#354,#430,.T.);
#300=EDGE_CURVE('',#363,#353,#431,.T.);
#301=EDGE_CURVE('',#365,#360,#432,.T.);
#302=EDGE_CURVE('',#366,#359,#433,.T.);
#303=EDGE_CURVE('',#367,#358,#434,.T.);
#304=EDGE_CURVE('',#368,#357,#435,.T.);
#305=EDGE_CURVE('',#369,#356,#436,.T.);
#306=EDGE_CURVE('',#370,#355,#437,.T.);
#307=EDGE_CURVE('',#374,#361,#438,.T.);
#308=EDGE_CURVE('',#373,#362,#439,.T.);
#309=EDGE_CURVE('',#375,#347,#440,.T.);
#310=EDGE_CURVE('',#375,#376,#441,.T.);
#311=EDGE_CURVE('',#376,#348,#442,.T.);
#312=EDGE_CURVE('',#377,#350,#443,.T.);
#313=EDGE_CURVE('',#375,#377,#444,.T.);
#314=EDGE_CURVE('',#378,#349,#445,.T.);
#315=EDGE_CURVE('',#377,#378,#446,.T.);
#316=EDGE_CURVE('',#376,#378,#447,.T.);
#317=VERTEX_POINT('',#911);
#318=VERTEX_POINT('',#912);
#319=VERTEX_POINT('',#914);
#320=VERTEX_POINT('',#916);
#321=VERTEX_POINT('',#920);
#322=VERTEX_POINT('',#921);
#323=VERTEX_POINT('',#923);
#324=VERTEX_POINT('',#925);
#325=VERTEX_POINT('',#927);
#326=VERTEX_POINT('',#929);
#327=VERTEX_POINT('',#931);
#328=VERTEX_POINT('',#933);
#329=VERTEX_POINT('',#937);
#330=VERTEX_POINT('',#938);
#331=VERTEX_POINT('',#940);
#332=VERTEX_POINT('',#942);
#333=VERTEX_POINT('',#946);
#334=VERTEX_POINT('',#947);
#335=VERTEX_POINT('',#949);
#336=VERTEX_POINT('',#951);
#337=VERTEX_POINT('',#960);
#338=VERTEX_POINT('',#962);
#339=VERTEX_POINT('',#972);
#340=VERTEX_POINT('',#974);
#341=VERTEX_POINT('',#978);
#342=VERTEX_POINT('',#980);
#343=VERTEX_POINT('',#985);
#344=VERTEX_POINT('',#987);
#345=VERTEX_POINT('',#989);
#346=VERTEX_POINT('',#991);
#347=VERTEX_POINT('',#995);
#348=VERTEX_POINT('',#996);
#349=VERTEX_POINT('',#998);
#350=VERTEX_POINT('',#1000);
#351=VERTEX_POINT('',#1003);
#352=VERTEX_POINT('',#1005);
#353=VERTEX_POINT('',#1007);
#354=VERTEX_POINT('',#1008);
#355=VERTEX_POINT('',#1010);
#356=VERTEX_POINT('',#1012);
#357=VERTEX_POINT('',#1014);
#358=VERTEX_POINT('',#1016);
#359=VERTEX_POINT('',#1018);
#360=VERTEX_POINT('',#1020);
#361=VERTEX_POINT('',#1023);
#362=VERTEX_POINT('',#1024);
#363=VERTEX_POINT('',#1029);
#364=VERTEX_POINT('',#1030);
#365=VERTEX_POINT('',#1032);
#366=VERTEX_POINT('',#1034);
#367=VERTEX_POINT('',#1036);
#368=VERTEX_POINT('',#1038);
#369=VERTEX_POINT('',#1040);
#370=VERTEX_POINT('',#1042);
#371=VERTEX_POINT('',#1045);
#372=VERTEX_POINT('',#1047);
#373=VERTEX_POINT('',#1049);
#374=VERTEX_POINT('',#1051);
#375=VERTEX_POINT('',#1078);
#376=VERTEX_POINT('',#1080);
#377=VERTEX_POINT('',#1084);
#378=VERTEX_POINT('',#1088);
#379=LINE('',#910,#448);
#380=LINE('',#913,#449);
#381=LINE('',#915,#450);
#382=LINE('',#917,#451);
#383=LINE('',#919,#452);
#384=LINE('',#922,#453);
#385=LINE('',#924,#454);
#386=LINE('',#926,#455);
#387=LINE('',#928,#456);
#388=LINE('',#930,#457);
#389=LINE('',#932,#458);
#390=LINE('',#934,#459);
#391=LINE('',#936,#460);
#392=LINE('',#939,#461);
#393=LINE('',#941,#462);
#394=LINE('',#943,#463);
#395=LINE('',#945,#464);
#396=LINE('',#948,#465);
#397=LINE('',#950,#466);
#398=LINE('',#952,#467);
#399=LINE('',#961,#468);
#400=LINE('',#971,#469);
#401=LINE('',#973,#470);
#402=LINE('',#975,#471);
#403=LINE('',#977,#472);
#404=LINE('',#979,#473);
#405=LINE('',#981,#474);
#406=LINE('',#983,#475);
#407=LINE('',#984,#476);
#408=LINE('',#986,#477);
#409=LINE('',#988,#478);
#410=LINE('',#990,#479);
#411=LINE('',#992,#480);
#412=LINE('',#994,#481);
#413=LINE('',#997,#482);
#414=LINE('',#999,#483);
#415=LINE('',#1001,#484);
#416=LINE('',#1006,#485);
#417=LINE('',#1011,#486);
#418=LINE('',#1015,#487);
#419=LINE('',#1019,#488);
#420=LINE('',#1022,#489);
#421=LINE('',#1025,#490);
#422=LINE('',#1026,#491);
#423=LINE('',#1028,#492);
#424=LINE('',#1033,#493);
#425=LINE('',#1037,#494);
#426=LINE('',#1041,#495);
#427=LINE('',#1048,#496);
#428=LINE('',#1050,#497);
#429=LINE('',#1052,#498);
#430=LINE('',#1055,#499);
#431=LINE('',#1056,#500);
#432=LINE('',#1058,#501);
#433=LINE('',#1060,#502);
#434=LINE('',#1062,#503);
#435=LINE('',#1064,#504);
#436=LINE('',#1066,#505);
#437=LINE('',#1068,#506);
#438=LINE('',#1072,#507);
#439=LINE('',#1073,#508);
#440=LINE('',#1077,#509);
#441=LINE('',#1079,#510);
#442=LINE('',#1081,#511);
#443=LINE('',#1083,#512);
#444=LINE('',#1085,#513);
#445=LINE('',#1087,#514);
#446=LINE('',#1089,#515);
#447=LINE('',#1091,#516);
#448=VECTOR('',#731,1.);
#449=VECTOR('',#732,1.);
#450=VECTOR('',#733,1.);
#451=VECTOR('',#734,1.);
#452=VECTOR('',#737,1.);
#453=VECTOR('',#738,1.);
#454=VECTOR('',#739,1.);
#455=VECTOR('',#740,1.);
#456=VECTOR('',#741,1.);
#457=VECTOR('',#742,1.);
#458=VECTOR('',#743,1.);
#459=VECTOR('',#744,1.);
#460=VECTOR('',#747,1.);
#461=VECTOR('',#748,1.);
#462=VECTOR('',#749,1.);
#463=VECTOR('',#750,1.);
#464=VECTOR('',#753,1.);
#465=VECTOR('',#754,1.);
#466=VECTOR('',#755,1.);
#467=VECTOR('',#756,1.);
#468=VECTOR('',#771,1.);
#469=VECTOR('',#788,1.);
#470=VECTOR('',#789,1.);
#471=VECTOR('',#790,1.);
#472=VECTOR('',#793,1.);
#473=VECTOR('',#794,1.);
#474=VECTOR('',#795,1.);
#475=VECTOR('',#798,1.);
#476=VECTOR('',#799,1.);
#477=VECTOR('',#800,1.);
#478=VECTOR('',#801,1.);
#479=VECTOR('',#802,1.);
#480=VECTOR('',#803,1.);
#481=VECTOR('',#806,1.);
#482=VECTOR('',#807,1.);
#483=VECTOR('',#808,1.);
#484=VECTOR('',#809,1.);
#485=VECTOR('',#814,1.);
#486=VECTOR('',#817,1.);
#487=VECTOR('',#820,1.);
#488=VECTOR('',#823,1.);
#489=VECTOR('',#826,1.);
#490=VECTOR('',#827,1.);
#491=VECTOR('',#828,1.);
#492=VECTOR('',#831,1.);
#493=VECTOR('',#834,1.);
#494=VECTOR('',#837,1.);
#495=VECTOR('',#840,1.);
#496=VECTOR('',#847,1.);
#497=VECTOR('',#848,1.);
#498=VECTOR('',#849,1.);
#499=VECTOR('',#854,1.);
#500=VECTOR('',#855,1.);
#501=VECTOR('',#858,1.);
#502=VECTOR('',#861,1.);
#503=VECTOR('',#864,1.);
#504=VECTOR('',#867,1.);
#505=VECTOR('',#870,1.);
#506=VECTOR('',#873,1.);
#507=VECTOR('',#880,1.);
#508=VECTOR('',#881,1.);
#509=VECTOR('',#888,1.);
#510=VECTOR('',#889,1.);
#511=VECTOR('',#890,1.);
#512=VECTOR('',#893,1.);
#513=VECTOR('',#894,1.);
#514=VECTOR('',#897,1.);
#515=VECTOR('',#898,1.);
#516=VECTOR('',#901,1.);
#517=EDGE_LOOP('',(#44,#45,#46,#47));
#518=EDGE_LOOP('',(#48,#49,#50,#51,#52,#53,#54,#55));
#519=EDGE_LOOP('',(#56,#57,#58,#59));
#520=EDGE_LOOP('',(#60,#61,#62,#63));
#521=EDGE_LOOP('',(#64,#65,#66,#67));
#522=EDGE_LOOP('',(#68,#69,#70,#71,#72,#73,#74,#75));
#523=EDGE_LOOP('',(#76,#77,#78,#79));
#524=EDGE_LOOP('',(#80,#81,#82,#83));
#525=EDGE_LOOP('',(#84,#85,#86,#87));
#526=EDGE_LOOP('',(#88,#89,#90,#91));
#527=EDGE_LOOP('',(#92,#93,#94,#95,#96,#97,#98,#99));
#528=EDGE_LOOP('',(#100,#101,#102,#103));
#529=EDGE_LOOP('',(#104));
#530=EDGE_LOOP('',(#105,#106,#107,#108,#109,#110,#111,#112));
#531=EDGE_LOOP('',(#113));
#532=EDGE_LOOP('',(#114,#115,#116,#117,#118,#119,#120,#121));
#533=EDGE_LOOP('',(#122,#123,#124,#125));
#534=EDGE_LOOP('',(#126,#127,#128,#129,#130,#131,#132,#133));
#535=EDGE_LOOP('',(#134));
#536=EDGE_LOOP('',(#135));
#537=EDGE_LOOP('',(#136,#137,#138,#139,#140,#141,#142,#143,#144));
#538=EDGE_LOOP('',(#145));
#539=EDGE_LOOP('',(#146));
#540=EDGE_LOOP('',(#147,#148,#149,#150));
#541=EDGE_LOOP('',(#151,#152,#153,#154));
#542=EDGE_LOOP('',(#155,#156,#157,#158));
#543=EDGE_LOOP('',(#159,#160,#161,#162));
#544=EDGE_LOOP('',(#163,#164,#165,#166));
#545=EDGE_LOOP('',(#167,#168,#169,#170));
#546=EDGE_LOOP('',(#171,#172,#173,#174));
#547=EDGE_LOOP('',(#175,#176,#177,#178));
#548=EDGE_LOOP('',(#179));
#549=EDGE_LOOP('',(#180));
#550=EDGE_LOOP('',(#181,#182,#183,#184));
#551=EDGE_LOOP('',(#185,#186,#187,#188));
#552=EDGE_LOOP('',(#189,#190,#191,#192));
#553=EDGE_LOOP('',(#193,#194,#195,#196));
#554=EDGE_LOOP('',(#197,#198,#199,#200));
#555=EDGE_LOOP('',(#201,#202,#203,#204));
#556=EDGE_LOOP('',(#205,#206,#207,#208));
#557=EDGE_LOOP('',(#209,#210,#211,#212));
#558=EDGE_LOOP('',(#213,#214,#215,#216,#217));
#559=EDGE_LOOP('',(#218,#219,#220,#221,#222,#223,#224,#225));
#560=FACE_BOUND('',#517,.T.);
#561=FACE_BOUND('',#518,.T.);
#562=FACE_BOUND('',#519,.T.);
#563=FACE_BOUND('',#520,.T.);
#564=FACE_BOUND('',#521,.T.);
#565=FACE_BOUND('',#522,.T.);
#566=FACE_BOUND('',#523,.T.);
#567=FACE_BOUND('',#524,.T.);
#568=FACE_BOUND('',#525,.T.);
#569=FACE_BOUND('',#526,.T.);
#570=FACE_BOUND('',#527,.T.);
#571=FACE_BOUND('',#528,.T.);
#572=FACE_BOUND('',#529,.T.);
#573=FACE_BOUND('',#530,.T.);
#574=FACE_BOUND('',#531,.T.);
#575=FACE_BOUND('',#532,.T.);
#576=FACE_BOUND('',#533,.T.);
#577=FACE_BOUND('',#534,.T.);
#578=FACE_BOUND('',#535,.T.);
#579=FACE_BOUND('',#536,.T.);
#580=FACE_BOUND('',#537,.T.);
#581=FACE_BOUND('',#538,.T.);
#582=FACE_BOUND('',#539,.T.);
#583=FACE_BOUND('',#540,.T.);
#584=FACE_BOUND('',#541,.T.);
#585=FACE_BOUND('',#542,.T.);
#586=FACE_BOUND('',#543,.T.);
#587=FACE_BOUND('',#544,.T.);
#588=FACE_BOUND('',#545,.T.);
#589=FACE_BOUND('',#546,.T.);
#590=FACE_BOUND('',#547,.T.);
#591=FACE_BOUND('',#548,.T.);
#592=FACE_BOUND('',#549,.T.);
#593=FACE_BOUND('',#550,.T.);
#594=FACE_BOUND('',#551,.T.);
#595=FACE_BOUND('',#552,.T.);
#596=FACE_BOUND('',#553,.T.);
#597=FACE_BOUND('',#554,.T.);
#598=FACE_BOUND('',#555,.T.);
#599=FACE_BOUND('',#556,.T.);
#600=FACE_BOUND('',#557,.T.);
#601=FACE_BOUND('',#558,.T.);
#602=FACE_BOUND('',#559,.T.);
#603=PLANE('',#672);
#604=PLANE('',#673);
#605=PLANE('',#674);
#606=PLANE('',#675);
#607=PLANE('',#690);
#608=PLANE('',#691);
#609=PLANE('',#692);
#610=PLANE('',#693);
#611=PLANE('',#700);
#612=PLANE('',#708);
#613=PLANE('',#710);
#614=PLANE('',#712);
#615=PLANE('',#714);
#616=PLANE('',#717);
#617=PLANE('',#718);
#618=PLANE('',#719);
#619=PLANE('',#720);
#620=PLANE('',#721);
#621=PLANE('',#722);
#622=PLANE('',#723);
#623=PLANE('',#724);
#624=PLANE('',#725);
#625=PLANE('',#726);
#626=ADVANCED_FACE('',(#560),#603,.T.);
#627=ADVANCED_FACE('',(#561),#604,.T.);
#628=ADVANCED_FACE('',(#562),#605,.T.);
#629=ADVANCED_FACE('',(#563),#606,.F.);
#630=ADVANCED_FACE('',(#564),#34,.T.);
#631=ADVANCED_FACE('',(#565),#35,.T.);
#632=ADVANCED_FACE('',(#566),#36,.T.);
#633=ADVANCED_FACE('',(#567),#37,.T.);
#634=ADVANCED_FACE('',(#568),#607,.F.);
#635=ADVANCED_FACE('',(#569),#608,.T.);
#636=ADVANCED_FACE('',(#570),#609,.T.);
#637=ADVANCED_FACE('',(#571,#572,#573,#574,#575,#576),#610,.F.);
#638=ADVANCED_FACE('',(#577,#578,#579,#580),#611,.F.);
#639=ADVANCED_FACE('',(#581,#582),#38,.F.);
#640=ADVANCED_FACE('',(#583),#612,.T.);
#641=ADVANCED_FACE('',(#584),#39,.F.);
#642=ADVANCED_FACE('',(#585),#613,.T.);
#643=ADVANCED_FACE('',(#586),#40,.F.);
#644=ADVANCED_FACE('',(#587),#614,.F.);
#645=ADVANCED_FACE('',(#588),#41,.F.);
#646=ADVANCED_FACE('',(#589),#615,.F.);
#647=ADVANCED_FACE('',(#590),#42,.F.);
#648=ADVANCED_FACE('',(#591,#592),#43,.F.);
#649=ADVANCED_FACE('',(#593),#616,.T.);
#650=ADVANCED_FACE('',(#594),#617,.F.);
#651=ADVANCED_FACE('',(#595),#618,.T.);
#652=ADVANCED_FACE('',(#596),#619,.T.);
#653=ADVANCED_FACE('',(#597),#620,.F.);
#654=ADVANCED_FACE('',(#598),#621,.F.);
#655=ADVANCED_FACE('',(#599),#622,.T.);
#656=ADVANCED_FACE('',(#600),#623,.T.);
#657=ADVANCED_FACE('',(#601),#624,.T.);
#658=ADVANCED_FACE('',(#602),#625,.T.);
#659=CLOSED_SHELL('',(#626,#627,#628,#629,#630,#631,#632,#633,#634,#635,#636,#637,#638,#639,#640,#641,#642,#643,#644,#645,#646,#647,#648,#649,#650,#651,#652,#653,#654,#655,#656,#657,#658));
#660=STYLED_ITEM('',(#661),#668);
#661=PRESENTATION_STYLE_ASSIGNMENT((#662));
#662=SURFACE_STYLE_USAGE(.BOTH.,#663);
#663=SURFACE_SIDE_STYLE('',(#664));
#664=SURFACE_STYLE_FILL_AREA(#665);
#665=FILL_AREA_STYLE('',(#666));
#666=FILL_AREA_STYLE_COLOUR('',#667);
#667=COLOUR_RGB('',0.615686274509804,0.811764705882353,0.929411764705882);
#668=MANIFOLD_SOLID_BREP('Part 1',#659);
#669=SHAPE_DEFINITION_REPRESENTATION(#1101,#670);
#670=SHAPE_REPRESENTATION('Part 1',(#671),#1096);
#671=AXIS2_PLACEMENT_3D('',#908,#727,#728);
#672=AXIS2_PLACEMENT_3D('',#909,#729,#730);
#673=AXIS2_PLACEMENT_3D('',#918,#735,#736);
#674=AXIS2_PLACEMENT_3D('',#935,#745,#746);
#675=AXIS2_PLACEMENT_3D('',#944,#751,#752);
#676=AXIS2_PLACEMENT_3D('',#953,#757,#758);
#677=AXIS2_PLACEMENT_3D('',#954,#759,#760);
#678=AXIS2_PLACEMENT_3D('',#955,#761,#762);
#679=AXIS2_PLACEMENT_3D('',#956,#763,#764);
#680=AXIS2_PLACEMENT_3D('',#957,#765,#766);
#681=AXIS2_PLACEMENT_3D('',#958,#767,#768);
#682=AXIS2_PLACEMENT_3D('',#959,#769,#770);
#683=AXIS2_PLACEMENT_3D('',#963,#772,#773);
#684=AXIS2_PLACEMENT_3D('',#964,#774,#775);
#685=AXIS2_PLACEMENT_3D('',#965,#776,#777);
#686=AXIS2_PLACEMENT_3D('',#966,#778,#779);
#687=AXIS2_PLACEMENT_3D('',#967,#780,#781);
#688=AXIS2_PLACEMENT_3D('',#968,#782,#783);
#689=AXIS2_PLACEMENT_3D('',#969,#784,#785);
#690=AXIS2_PLACEMENT_3D('',#970,#786,#787);
#691=AXIS2_PLACEMENT_3D('',#976,#791,#792);
#692=AXIS2_PLACEMENT_3D('',#982,#796,#797);
#693=AXIS2_PLACEMENT_3D('',#993,#804,#805);
#694=AXIS2_PLACEMENT_3D('',#1002,#810,#811);
#695=AXIS2_PLACEMENT_3D('',#1004,#812,#813);
#696=AXIS2_PLACEMENT_3D('',#1009,#815,#816);
#697=AXIS2_PLACEMENT_3D('',#1013,#818,#819);
#698=AXIS2_PLACEMENT_3D('',#1017,#821,#822);
#699=AXIS2_PLACEMENT_3D('',#1021,#824,#825);
#700=AXIS2_PLACEMENT_3D('',#1027,#829,#830);
#701=AXIS2_PLACEMENT_3D('',#1031,#832,#833);
#702=AXIS2_PLACEMENT_3D('',#1035,#835,#836);
#703=AXIS2_PLACEMENT_3D('',#1039,#838,#839);
#704=AXIS2_PLACEMENT_3D('',#1043,#841,#842);
#705=AXIS2_PLACEMENT_3D('',#1044,#843,#844);
#706=AXIS2_PLACEMENT_3D('',#1046,#845,#846);
#707=AXIS2_PLACEMENT_3D('',#1053,#850,#851);
#708=AXIS2_PLACEMENT_3D('',#1054,#852,#853);
#709=AXIS2_PLACEMENT_3D('',#1057,#856,#857);
#710=AXIS2_PLACEMENT_3D('',#1059,#859,#860);
#711=AXIS2_PLACEMENT_3D('',#1061,#862,#863);
#712=AXIS2_PLACEMENT_3D('',#1063,#865,#866);
#713=AXIS2_PLACEMENT_3D('',#1065,#868,#869);
#714=AXIS2_PLACEMENT_3D('',#1067,#871,#872);
#715=AXIS2_PLACEMENT_3D('',#1069,#874,#875);
#716=AXIS2_PLACEMENT_3D('',#1070,#876,#877);
#717=AXIS2_PLACEMENT_3D('',#1071,#878,#879);
#718=AXIS2_PLACEMENT_3D('',#1074,#882,#883);
#719=AXIS2_PLACEMENT_3D('',#1075,#884,#885);
#720=AXIS2_PLACEMENT_3D('',#1076,#886,#887);
#721=AXIS2_PLACEMENT_3D('',#1082,#891,#892);
#722=AXIS2_PLACEMENT_3D('',#1086,#895,#896);
#723=AXIS2_PLACEMENT_3D('',#1090,#899,#900);
#724=AXIS2_PLACEMENT_3D('',#1092,#902,#903);
#725=AXIS2_PLACEMENT_3D('',#1093,#904,#905);
#726=AXIS2_PLACEMENT_3D('',#1094,#906,#907);
#727=DIRECTION('',(0.,0.,1.));
#728=DIRECTION('',(1.,0.,0.));
#729=DIRECTION('',(-1.54197642309049E-16,1.,0.));
#730=DIRECTION('',(-1.,-1.54197642309049E-16,0.));
#731=DIRECTION('',(-1.,-1.54197642309049E-16,0.));
#732=DIRECTION('',(0.,0.,-1.));
#733=DIRECTION('',(1.,1.54197642309049E-16,-1.89330898031797E-17));
#734=DIRECTION('',(0.,0.,1.));
#735=DIRECTION('',(0.,0.,1.));
#736=DIRECTION('',(1.,0.,0.));
#737=DIRECTION('',(1.,0.,0.));
#738=DIRECTION('',(0.,1.,0.));
#739=DIRECTION('',(-1.,-1.54197642309049E-16,0.));
#740=DIRECTION('',(0.,1.,0.));
#741=DIRECTION('',(-1.,0.,0.));
#742=DIRECTION('',(0.,1.,0.));
#743=DIRECTION('',(-1.,-1.54197642309049E-16,0.));
#744=DIRECTION('',(0.,1.,0.));
#745=DIRECTION('',(0.,-0.121869343405147,-0.992546151641322));
#746=DIRECTION('',(0.,0.992546151641322,-0.121869343405147));
#747=DIRECTION('',(1.,1.54197642309049E-16,-1.89330898031797E-17));
#748=DIRECTION('',(0.,-0.992546151641322,0.121869343405147));
#749=DIRECTION('',(1.,0.,0.));
#750=DIRECTION('',(0.,0.992546151641322,-0.121869343405147));
#751=DIRECTION('',(0.,1.,0.));
#752=DIRECTION('',(0.,0.,1.));
#753=DIRECTION('',(0.,0.,-1.));
#754=DIRECTION('',(1.,0.,0.));
#755=DIRECTION('',(0.,0.,-1.));
#756=DIRECTION('',(1.,0.,0.));
#757=DIRECTION('',(-1.,0.,0.));
#758=DIRECTION('',(0.,0.,1.));
#759=DIRECTION('',(1.,0.,0.));
#760=DIRECTION('',(0.,0.,-1.));
#761=DIRECTION('',(1.,0.,0.));
#762=DIRECTION('',(0.,0.,-1.));
#763=DIRECTION('',(-1.,-1.54197642309049E-16,0.));
#764=DIRECTION('',(1.54197642309049E-16,-1.,0.));
#765=DIRECTION('',(1.,0.,0.));
#766=DIRECTION('',(0.,0.,-1.));
#767=DIRECTION('',(1.,0.,0.));
#768=DIRECTION('',(0.,0.,-1.));
#769=DIRECTION('',(-1.,0.,0.));
#770=DIRECTION('',(0.,0.,1.));
#771=DIRECTION('',(-1.,-1.54197642309049E-16,0.));
#772=DIRECTION('',(-1.,0.,0.));
#773=DIRECTION('',(0.,0.,1.));
#774=DIRECTION('',(-1.,0.,0.));
#775=DIRECTION('',(0.,0.,1.));
#776=DIRECTION('',(1.,0.,0.));
#777=DIRECTION('',(0.,0.,-1.));
#778=DIRECTION('',(1.,0.,0.));
#779=DIRECTION('',(0.,0.,-1.));
#780=DIRECTION('',(1.,1.54197642309049E-16,-1.89330898031797E-17));
#781=DIRECTION('',(-1.54197642309049E-16,1.,0.));
#782=DIRECTION('',(1.,0.,0.));
#783=DIRECTION('',(0.,0.,-1.));
#784=DIRECTION('',(1.,0.,0.));
#785=DIRECTION('',(0.,0.,-1.));
#786=DIRECTION('',(0.,-1.,0.));
#787=DIRECTION('',(0.,0.,-1.));
#788=DIRECTION('',(0.,0.,-1.));
#789=DIRECTION('',(-1.,0.,0.));
#790=DIRECTION('',(0.,0.,-1.));
#791=DIRECTION('',(1.65211759616839E-16,-1.,0.));
#792=DIRECTION('',(1.,1.65211759616839E-16,0.));
#793=DIRECTION('',(0.,0.,-1.));
#794=DIRECTION('',(0.,0.,-1.));
#795=DIRECTION('',(-1.,-1.65211759616839E-16,0.));
#796=DIRECTION('',(0.,0.,1.));
#797=DIRECTION('',(1.,0.,0.));
#798=DIRECTION('',(0.,1.,0.));
#799=DIRECTION('',(0.,1.,0.));
#800=DIRECTION('',(-1.,0.,0.));
#801=DIRECTION('',(0.,-1.,0.));
#802=DIRECTION('',(-1.,0.,0.));
#803=DIRECTION('',(0.,1.,0.));
#804=DIRECTION('',(1.,0.,0.));
#805=DIRECTION('',(0.,0.,-1.));
#806=DIRECTION('',(0.,1.,-1.84314369322535E-16));
#807=DIRECTION('',(0.,0.,1.));
#808=DIRECTION('',(0.,1.,-1.7347234759768E-16));
#809=DIRECTION('',(0.,0.,1.));
#810=DIRECTION('',(-1.,0.,0.));
#811=DIRECTION('',(0.,0.,1.));
#812=DIRECTION('',(-1.,0.,0.));
#813=DIRECTION('',(0.,0.,1.));
#814=DIRECTION('',(0.,0.,1.));
#815=DIRECTION('',(-1.,0.,0.));
#816=DIRECTION('',(0.,0.,1.));
#817=DIRECTION('',(0.,1.,-1.43841084243516E-16));
#818=DIRECTION('',(-1.,0.,0.));
#819=DIRECTION('',(0.,0.,1.));
#820=DIRECTION('',(0.,0.,1.));
#821=DIRECTION('',(-1.,0.,0.));
#822=DIRECTION('',(0.,0.,1.));
#823=DIRECTION('',(0.,1.,-1.07880813182637E-16));
#824=DIRECTION('',(-1.,0.,0.));
#825=DIRECTION('',(0.,0.,1.));
#826=DIRECTION('',(0.,-1.,0.));
#827=DIRECTION('',(0.,0.,-1.));
#828=DIRECTION('',(0.,0.,-1.));
#829=DIRECTION('',(-1.,0.,0.));
#830=DIRECTION('',(0.,0.,1.));
#831=DIRECTION('',(0.,0.,1.));
#832=DIRECTION('',(-1.,0.,0.));
#833=DIRECTION('',(0.,0.,1.));
#834=DIRECTION('',(0.,1.,-1.07880813182637E-16));
#835=DIRECTION('',(-1.,0.,0.));
#836=DIRECTION('',(0.,0.,1.));
#837=DIRECTION('',(0.,0.,1.));
#838=DIRECTION('',(-1.,0.,0.));
#839=DIRECTION('',(0.,0.,1.));
#840=DIRECTION('',(0.,1.,-1.43841084243516E-16));
#841=DIRECTION('',(-1.,0.,0.));
#842=DIRECTION('',(0.,0.,1.));
#843=DIRECTION('',(-1.,0.,0.));
#844=DIRECTION('',(0.,0.,1.));
#845=DIRECTION('',(-1.,0.,0.));
#846=DIRECTION('',(0.,0.,1.));
#847=DIRECTION('',(0.,0.,-1.));
#848=DIRECTION('',(0.,-1.,0.));
#849=DIRECTION('',(0.,0.,-1.));
#850=DIRECTION('',(-1.,0.,0.));
#851=DIRECTION('',(0.,0.,1.));
#852=DIRECTION('',(0.,-1.,0.));
#853=DIRECTION('',(0.,0.,-1.));
#854=DIRECTION('',(-1.,0.,0.));
#855=DIRECTION('',(-1.,0.,0.));
#856=DIRECTION('',(-1.,0.,0.));
#857=DIRECTION('',(0.,0.,1.));
#858=DIRECTION('',(-1.,0.,0.));
#859=DIRECTION('',(0.,1.07880813182637E-16,1.));
#860=DIRECTION('',(0.,-1.,1.07880813182637E-16));
#861=DIRECTION('',(-1.,0.,0.));
#862=DIRECTION('',(-1.,0.,0.));
#863=DIRECTION('',(0.,0.,1.));
#864=DIRECTION('',(-1.,0.,0.));
#865=DIRECTION('',(0.,-1.,0.));
#866=DIRECTION('',(0.,0.,-1.));
#867=DIRECTION('',(-1.,0.,0.));
#868=DIRECTION('',(-1.,0.,0.));
#869=DIRECTION('',(0.,0.,1.));
#870=DIRECTION('',(-1.,0.,0.));
#871=DIRECTION('',(0.,1.43841084243516E-16,1.));
#872=DIRECTION('',(0.,-1.,1.43841084243516E-16));
#873=DIRECTION('',(-1.,0.,0.));
#874=DIRECTION('',(-1.,0.,0.));
#875=DIRECTION('',(0.,0.,1.));
#876=DIRECTION('',(-1.,0.,0.));
#877=DIRECTION('',(0.,0.,1.));
#878=DIRECTION('',(0.,0.,-1.));
#879=DIRECTION('',(-1.,0.,0.));
#880=DIRECTION('',(-1.,0.,0.));
#881=DIRECTION('',(-1.,0.,0.));
#882=DIRECTION('',(0.,1.,0.));
#883=DIRECTION('',(0.,0.,1.));
#884=DIRECTION('',(0.,1.,0.));
#885=DIRECTION('',(0.,0.,1.));
#886=DIRECTION('',(0.,1.84314369322535E-16,1.));
#887=DIRECTION('',(0.,-1.,1.84314369322535E-16));
#888=DIRECTION('',(-1.,0.,0.));
#889=DIRECTION('',(0.,1.,-1.84314369322535E-16));
#890=DIRECTION('',(-1.,0.,0.));
#891=DIRECTION('',(0.,-1.,0.));
#892=DIRECTION('',(0.,0.,-1.));
#893=DIRECTION('',(-1.,0.,0.));
#894=DIRECTION('',(0.,0.,1.));
#895=DIRECTION('',(0.,1.7347234759768E-16,1.));
#896=DIRECTION('',(0.,-1.,1.7347234759768E-16));
#897=DIRECTION('',(-1.,0.,0.));
#898=DIRECTION('',(0.,1.,-1.7347234759768E-16));
#899=DIRECTION('',(0.,-1.,0.));
#900=DIRECTION('',(0.,0.,-1.));
#901=DIRECTION('',(0.,0.,1.));
#902=DIRECTION('',(-1.,0.,0.));
#903=DIRECTION('',(0.,-1.,0.));
#904=DIRECTION('',(-1.,0.,0.));
#905=DIRECTION('',(0.,0.,1.));
#906=DIRECTION('',(1.,0.,0.));
#907=DIRECTION('',(0.,0.,-1.));
#908=CARTESIAN_POINT('',(0.,0.,0.));
#909=CARTESIAN_POINT('',(-0.0166478634346276,0.0408081841643205,-0.003));
#910=CARTESIAN_POINT('',(-0.0166478634346276,0.0408081841643205,0.011137));
#911=CARTESIAN_POINT('',(-0.0616478634346277,0.0408081841643205,0.011137));
#912=CARTESIAN_POINT('',(0.00335213656537235,0.0408081841643205,0.011137));
#913=CARTESIAN_POINT('',(0.00335213656537235,0.0408081841643205,-0.003));
#914=CARTESIAN_POINT('',(0.00335213656537234,0.0408081841643205,-0.0170635158755004));
#915=CARTESIAN_POINT('',(-0.0166478634346276,0.0408081841643205,-0.0170635158755004));
#916=CARTESIAN_POINT('',(-0.0616478634346277,0.0408081841643205,-0.0170635158755004));
#917=CARTESIAN_POINT('',(-0.0616478634346277,0.0408081841643205,-0.003));
#918=CARTESIAN_POINT('',(-0.0166478634346276,-0.0121918158356795,0.015));
#919=CARTESIAN_POINT('',(0.0283521365653723,-0.0843288158356795,0.015));
#920=CARTESIAN_POINT('',(-0.0616478634346277,-0.0843288158356795,0.015));
#921=CARTESIAN_POINT('',(0.00335213656537235,-0.0843288158356795,0.015));
#922=CARTESIAN_POINT('',(0.00335213656537235,-0.0121918158356795,0.015));
#923=CARTESIAN_POINT('',(0.00335213656537235,0.0369451841643205,0.015));
#924=CARTESIAN_POINT('',(-0.0166478634346276,0.0369451841643205,0.015));
#925=CARTESIAN_POINT('',(0.000352136565372349,0.0369451841643205,0.015));
#926=CARTESIAN_POINT('',(0.000352136565372349,-0.0121918158356795,0.015));
#927=CARTESIAN_POINT('',(0.000352136565372349,-0.0621918158356795,0.015));
#928=CARTESIAN_POINT('',(-0.0166478634346276,-0.0621918158356795,0.015));
#929=CARTESIAN_POINT('',(-0.0586478634346277,-0.0621918158356795,0.015));
#930=CARTESIAN_POINT('',(-0.0586478634346277,-0.0121918158356795,0.015));
#931=CARTESIAN_POINT('',(-0.0586478634346277,0.0369451841643205,0.015));
#932=CARTESIAN_POINT('',(-0.0166478634346276,0.0369451841643205,0.015));
#933=CARTESIAN_POINT('',(-0.0616478634346277,0.0369451841643205,0.015));
#934=CARTESIAN_POINT('',(-0.0616478634346277,-0.0121918158356795,0.015));
#935=CARTESIAN_POINT('',(-0.0616478634346277,-0.0236918158356795,-0.0109196041782373));
#936=CARTESIAN_POINT('',(-0.0616478634346277,0.039045727425831,-0.0186228058797288));
#937=CARTESIAN_POINT('',(-0.0616478634346277,0.039045727425831,-0.0186228058797288));
#938=CARTESIAN_POINT('',(0.00335213656537234,0.039045727425831,-0.0186228058797288));
#939=CARTESIAN_POINT('',(0.00335213656537235,-0.0236918158356795,-0.0109196041782373));
#940=CARTESIAN_POINT('',(0.00335213656537235,-0.086812272574169,-0.00316938661361114));
#941=CARTESIAN_POINT('',(-0.0616478634346277,-0.086812272574169,-0.00316938661361114));
#942=CARTESIAN_POINT('',(-0.0616478634346277,-0.086812272574169,-0.00316938661361114));
#943=CARTESIAN_POINT('',(-0.0616478634346277,-0.0236918158356795,-0.0109196041782373));
#944=CARTESIAN_POINT('',(-0.0616478634346277,-0.0881918158356795,0.015));
#945=CARTESIAN_POINT('',(0.00335213656537235,-0.0881918158356795,0.015));
#946=CARTESIAN_POINT('',(0.00335213656537235,-0.0881918158356795,0.011137));
#947=CARTESIAN_POINT('',(0.00335213656537235,-0.0881918158356795,-0.00161009660938262));
#948=CARTESIAN_POINT('',(-0.0616478634346277,-0.0881918158356795,0.011137));
#949=CARTESIAN_POINT('',(-0.0616478634346277,-0.0881918158356795,0.011137));
#950=CARTESIAN_POINT('',(-0.0616478634346277,-0.0881918158356795,0.015));
#951=CARTESIAN_POINT('',(-0.0616478634346277,-0.0881918158356795,-0.00161009660938262));
#952=CARTESIAN_POINT('',(0.0283521365653723,-0.0881918158356795,-0.00161009660938262));
#953=CARTESIAN_POINT('',(-0.0166478634346276,-0.0843288158356795,0.011137));
#954=CARTESIAN_POINT('',(0.00335213656537235,-0.0843288158356795,0.011137));
#955=CARTESIAN_POINT('',(-0.0616478634346277,-0.0843288158356795,0.011137));
#956=CARTESIAN_POINT('',(-0.0166478634346276,0.0369451841643205,0.011137));
#957=CARTESIAN_POINT('',(0.00335213656537235,0.0369451841643205,0.011137));
#958=CARTESIAN_POINT('',(-0.0616478634346277,0.0369451841643205,0.011137));
#959=CARTESIAN_POINT('',(-0.0586478634346277,0.0369451841643205,0.011137));
#960=CARTESIAN_POINT('',(-0.0586478634346277,0.0378081841643205,0.0149023685078621));
#961=CARTESIAN_POINT('',(0.0253521365653724,0.0378081841643205,0.0149023685078621));
#962=CARTESIAN_POINT('',(0.000352136565372338,0.0378081841643205,0.0149023685078621));
#963=CARTESIAN_POINT('',(0.000352136565372352,0.0369451841643205,0.011137));
#964=CARTESIAN_POINT('',(-0.0616478634346277,-0.0866208158356795,-0.00161009660938262));
#965=CARTESIAN_POINT('',(0.00335213656537235,-0.0866208158356795,-0.00161009660938262));
#966=CARTESIAN_POINT('',(-0.0616478634346277,-0.0866208158356795,-0.00161009660938262));
#967=CARTESIAN_POINT('',(-0.0616478634346277,0.0392371841643205,-0.0170635158755004));
#968=CARTESIAN_POINT('',(0.00335213656537234,0.0392371841643205,-0.0170635158755004));
#969=CARTESIAN_POINT('',(-0.0616478634346277,0.0392371841643205,-0.0170635158755004));
#970=CARTESIAN_POINT('',(-0.0166478634346276,-0.0621918158356795,0.015));
#971=CARTESIAN_POINT('',(0.000352136565372349,-0.0621918158356795,0.015));
#972=CARTESIAN_POINT('',(0.000352136565372349,-0.0621918158356795,0.));
#973=CARTESIAN_POINT('',(-0.0166478634346276,-0.0621918158356795,0.));
#974=CARTESIAN_POINT('',(-0.0586478634346277,-0.0621918158356795,0.));
#975=CARTESIAN_POINT('',(-0.0586478634346277,-0.0621918158356795,0.015));
#976=CARTESIAN_POINT('',(-0.0166478634346276,0.0378081841643205,0.015));
#977=CARTESIAN_POINT('',(0.000352136565372338,0.0378081841643205,0.015));
#978=CARTESIAN_POINT('',(0.000352136565372342,0.0378081841643205,0.));
#979=CARTESIAN_POINT('',(-0.0586478634346277,0.0378081841643205,0.015));
#980=CARTESIAN_POINT('',(-0.0586478634346277,0.0378081841643205,0.));
#981=CARTESIAN_POINT('',(-0.0166478634346276,0.0378081841643205,0.));
#982=CARTESIAN_POINT('',(-0.0166478634346276,-0.0121918158356795,0.));
#983=CARTESIAN_POINT('',(0.000352136565372349,-0.0121918158356795,0.));
#984=CARTESIAN_POINT('',(-0.0586478634346277,-0.0121918158356795,0.));
#985=CARTESIAN_POINT('',(-0.0586478634346277,0.0373941841643205,-3.03576608295941E-18));
#986=CARTESIAN_POINT('',(-0.0586478634346277,0.0373941841643205,-3.03576608295941E-18));
#987=CARTESIAN_POINT('',(-0.0616478634346277,0.0373941841643205,-3.03576608295941E-18));
#988=CARTESIAN_POINT('',(-0.0616478634346277,0.0273941841643205,-3.03576608295941E-18));
#989=CARTESIAN_POINT('',(-0.0616478634346277,0.0173941841643205,3.46944695195361E-18));
#990=CARTESIAN_POINT('',(-0.0586478634346277,0.0173941841643205,3.46944695195361E-18));
#991=CARTESIAN_POINT('',(-0.0586478634346277,0.0173941841643205,3.46944695195361E-18));
#992=CARTESIAN_POINT('',(-0.0586478634346277,-0.0121918158356795,0.));
#993=CARTESIAN_POINT('',(-0.0616478634346277,-0.0121918158356795,-0.003));
#994=CARTESIAN_POINT('',(-0.0616478634346277,-0.0747778158356795,0.000137000000000005));
#995=CARTESIAN_POINT('',(-0.0616478634346277,-0.0847778158356795,0.000137000000000007));
#996=CARTESIAN_POINT('',(-0.0616478634346277,-0.0647778158356795,0.000137));
#997=CARTESIAN_POINT('',(-0.0616478634346277,-0.0647778158356795,0.005137));
#998=CARTESIAN_POINT('',(-0.0616478634346277,-0.0647778158356795,0.010137));
#999=CARTESIAN_POINT('',(-0.0616478634346277,-0.0747778158356795,0.010137));
#1000=CARTESIAN_POINT('',(-0.0616478634346277,-0.0847778158356795,0.010137));
#1001=CARTESIAN_POINT('',(-0.0616478634346277,-0.0847778158356795,0.005137));
#1002=CARTESIAN_POINT('',(-0.0616478634346277,-0.0184098158356795,0.00468224474141016));
#1003=CARTESIAN_POINT('',(-0.0616478634346277,-0.0184098158356795,0.00568224474141016));
#1004=CARTESIAN_POINT('',(-0.0616478634346277,-0.0484098158356795,0.00468224474141016));
#1005=CARTESIAN_POINT('',(-0.0616478634346277,-0.0484098158356795,0.00568224474141016));
#1006=CARTESIAN_POINT('',(-0.0616478634346277,-0.0199098158356795,0.00526224474141016));
#1007=CARTESIAN_POINT('',(-0.0616478634346277,-0.0199098158356795,0.00362224474141016));
#1008=CARTESIAN_POINT('',(-0.0616478634346277,-0.0199098158356795,0.00584224474141016));
#1009=CARTESIAN_POINT('',(-0.0616478634346277,-0.0213498158356795,0.00584224474141016));
#1010=CARTESIAN_POINT('',(-0.0616478634346277,-0.0213498158356795,0.00728224474141016));
#1011=CARTESIAN_POINT('',(-0.0616478634346277,-0.0334098158356795,0.00728224474141016));
#1012=CARTESIAN_POINT('',(-0.0616478634346277,-0.0454698158356795,0.00728224474141016));
#1013=CARTESIAN_POINT('',(-0.0616478634346277,-0.0454698158356795,0.00584224474141016));
#1014=CARTESIAN_POINT('',(-0.0616478634346277,-0.0469098158356795,0.00584224474141016));
#1015=CARTESIAN_POINT('',(-0.0616478634346277,-0.0469098158356795,0.00526224474141016));
#1016=CARTESIAN_POINT('',(-0.0616478634346277,-0.0469098158356795,0.00362224474141016));
#1017=CARTESIAN_POINT('',(-0.0616478634346277,-0.0454698158356795,0.00362224474141016));
#1018=CARTESIAN_POINT('',(-0.0616478634346277,-0.0454698158356795,0.00218224474141016));
#1019=CARTESIAN_POINT('',(-0.0616478634346277,-0.0334098158356795,0.00218224474141016));
#1020=CARTESIAN_POINT('',(-0.0616478634346277,-0.0213498158356795,0.00218224474141016));
#1021=CARTESIAN_POINT('',(-0.0616478634346277,-0.0213498158356795,0.00362224474141015));
#1022=CARTESIAN_POINT('',(-0.0616478634346277,0.0273941841643205,0.01));
#1023=CARTESIAN_POINT('',(-0.0616478634346277,0.0373941841643205,0.01));
#1024=CARTESIAN_POINT('',(-0.0616478634346277,0.0173941841643205,0.01));
#1025=CARTESIAN_POINT('',(-0.0616478634346277,0.0173941841643205,0.005));
#1026=CARTESIAN_POINT('',(-0.0616478634346277,0.0373941841643205,0.005));
#1027=CARTESIAN_POINT('',(-0.0586478634346277,-0.0121918158356795,0.015));
#1028=CARTESIAN_POINT('',(-0.0586478634346277,-0.0199098158356795,0.015));
#1029=CARTESIAN_POINT('',(-0.0586478634346277,-0.0199098158356795,0.00362224474141016));
#1030=CARTESIAN_POINT('',(-0.0586478634346277,-0.0199098158356795,0.00584224474141016));
#1031=CARTESIAN_POINT('',(-0.0586478634346277,-0.0213498158356795,0.00362224474141015));
#1032=CARTESIAN_POINT('',(-0.0586478634346277,-0.0213498158356795,0.00218224474141016));
#1033=CARTESIAN_POINT('',(-0.0586478634346277,-0.0121918158356795,0.00218224474141016));
#1034=CARTESIAN_POINT('',(-0.0586478634346277,-0.0454698158356795,0.00218224474141016));
#1035=CARTESIAN_POINT('',(-0.0586478634346277,-0.0454698158356795,0.00362224474141016));
#1036=CARTESIAN_POINT('',(-0.0586478634346277,-0.0469098158356795,0.00362224474141016));
#1037=CARTESIAN_POINT('',(-0.0586478634346277,-0.0469098158356795,0.015));
#1038=CARTESIAN_POINT('',(-0.0586478634346277,-0.0469098158356795,0.00584224474141016));
#1039=CARTESIAN_POINT('',(-0.0586478634346277,-0.0454698158356795,0.00584224474141016));
#1040=CARTESIAN_POINT('',(-0.0586478634346277,-0.0454698158356795,0.00728224474141016));
#1041=CARTESIAN_POINT('',(-0.0586478634346277,-0.0121918158356795,0.00728224474141016));
#1042=CARTESIAN_POINT('',(-0.0586478634346277,-0.0213498158356795,0.00728224474141016));
#1043=CARTESIAN_POINT('',(-0.0586478634346277,-0.0213498158356795,0.00584224474141016));
#1044=CARTESIAN_POINT('',(-0.0586478634346277,-0.0484098158356795,0.00468224474141016));
#1045=CARTESIAN_POINT('',(-0.0586478634346277,-0.0484098158356795,0.00568224474141016));
#1046=CARTESIAN_POINT('',(-0.0586478634346277,-0.0184098158356795,0.00468224474141016));
#1047=CARTESIAN_POINT('',(-0.0586478634346277,-0.0184098158356795,0.00568224474141016));
#1048=CARTESIAN_POINT('',(-0.0586478634346277,0.0173941841643205,0.005));
#1049=CARTESIAN_POINT('',(-0.0586478634346277,0.0173941841643205,0.01));
#1050=CARTESIAN_POINT('',(-0.0586478634346277,0.0273941841643205,0.01));
#1051=CARTESIAN_POINT('',(-0.0586478634346277,0.0373941841643205,0.01));
#1052=CARTESIAN_POINT('',(-0.0586478634346277,0.0373941841643205,0.005));
#1053=CARTESIAN_POINT('',(-0.0488478634346277,-0.0484098158356795,0.00468224474141016));
#1054=CARTESIAN_POINT('',(-0.0488478634346277,-0.0199098158356795,0.00526224474141016));
#1055=CARTESIAN_POINT('',(-0.0488478634346277,-0.0199098158356795,0.00584224474141016));
#1056=CARTESIAN_POINT('',(-0.0488478634346277,-0.0199098158356795,0.00362224474141016));
#1057=CARTESIAN_POINT('',(-0.0488478634346277,-0.0213498158356795,0.00362224474141015));
#1058=CARTESIAN_POINT('',(-0.0488478634346277,-0.0213498158356795,0.00218224474141016));
#1059=CARTESIAN_POINT('',(-0.0488478634346277,-0.0334098158356795,0.00218224474141016));
#1060=CARTESIAN_POINT('',(-0.0488478634346277,-0.0454698158356795,0.00218224474141016));
#1061=CARTESIAN_POINT('',(-0.0488478634346277,-0.0454698158356795,0.00362224474141016));
#1062=CARTESIAN_POINT('',(-0.0488478634346277,-0.0469098158356795,0.00362224474141016));
#1063=CARTESIAN_POINT('',(-0.0488478634346277,-0.0469098158356795,0.00526224474141016));
#1064=CARTESIAN_POINT('',(-0.0488478634346277,-0.0469098158356795,0.00584224474141016));
#1065=CARTESIAN_POINT('',(-0.0488478634346277,-0.0454698158356795,0.00584224474141016));
#1066=CARTESIAN_POINT('',(-0.0488478634346277,-0.0454698158356795,0.00728224474141016));
#1067=CARTESIAN_POINT('',(-0.0488478634346277,-0.0334098158356795,0.00728224474141016));
#1068=CARTESIAN_POINT('',(-0.0488478634346277,-0.0213498158356795,0.00728224474141016));
#1069=CARTESIAN_POINT('',(-0.0488478634346277,-0.0213498158356795,0.00584224474141016));
#1070=CARTESIAN_POINT('',(-0.0488478634346277,-0.0184098158356795,0.00468224474141016));
#1071=CARTESIAN_POINT('',(-0.0586478634346277,0.0273941841643205,0.01));
#1072=CARTESIAN_POINT('',(-0.0586478634346277,0.0373941841643205,0.01));
#1073=CARTESIAN_POINT('',(-0.0586478634346277,0.0173941841643205,0.01));
#1074=CARTESIAN_POINT('',(-0.0586478634346277,0.0373941841643205,0.005));
#1075=CARTESIAN_POINT('',(-0.0586478634346277,0.0173941841643205,0.005));
#1076=CARTESIAN_POINT('',(-0.0586478634346277,-0.0747778158356795,0.000137000000000005));
#1077=CARTESIAN_POINT('',(-0.0586478634346277,-0.0847778158356795,0.000137000000000007));
#1078=CARTESIAN_POINT('',(-0.0586478634346277,-0.0847778158356795,0.000137000000000007));
#1079=CARTESIAN_POINT('',(-0.0586478634346277,-0.0747778158356795,0.000137000000000005));
#1080=CARTESIAN_POINT('',(-0.0586478634346277,-0.0647778158356795,0.000137));
#1081=CARTESIAN_POINT('',(-0.0586478634346277,-0.0647778158356795,0.000137));
#1082=CARTESIAN_POINT('',(-0.0586478634346277,-0.0847778158356795,0.005137));
#1083=CARTESIAN_POINT('',(-0.0586478634346277,-0.0847778158356795,0.010137));
#1084=CARTESIAN_POINT('',(-0.0586478634346277,-0.0847778158356795,0.010137));
#1085=CARTESIAN_POINT('',(-0.0586478634346277,-0.0847778158356795,0.005137));
#1086=CARTESIAN_POINT('',(-0.0586478634346277,-0.0747778158356795,0.010137));
#1087=CARTESIAN_POINT('',(-0.0586478634346277,-0.0647778158356795,0.010137));
#1088=CARTESIAN_POINT('',(-0.0586478634346277,-0.0647778158356795,0.010137));
#1089=CARTESIAN_POINT('',(-0.0586478634346277,-0.0747778158356795,0.010137));
#1090=CARTESIAN_POINT('',(-0.0586478634346277,-0.0647778158356795,0.005137));
#1091=CARTESIAN_POINT('',(-0.0586478634346277,-0.0647778158356795,0.005137));
#1092=CARTESIAN_POINT('',(-0.0586478634346277,-0.0236918158356795,-0.00191960417823733));
#1093=CARTESIAN_POINT('',(0.000352136565372349,-0.0121918158356795,0.015));
#1094=CARTESIAN_POINT('',(0.00335213656537235,-0.0121918158356795,-0.003));
#1095=MECHANICAL_DESIGN_GEOMETRIC_PRESENTATION_REPRESENTATION('',(#660),#1096);
#1096=(
GEOMETRIC_REPRESENTATION_CONTEXT(3)
GLOBAL_UNCERTAINTY_ASSIGNED_CONTEXT((#1097))
GLOBAL_UNIT_ASSIGNED_CONTEXT((#1100,#1099,#1098))
REPRESENTATION_CONTEXT('Part 1','TOP_LEVEL_ASSEMBLY_PART')
);
#1097=UNCERTAINTY_MEASURE_WITH_UNIT(LENGTH_MEASURE(1.E-08),#1100,'DISTANCE_ACCURACY_VALUE','Maximum Tolerance applied to model');
#1098=(
NAMED_UNIT(*)
SI_UNIT($,.STERADIAN.)
SOLID_ANGLE_UNIT()
);
#1099=(
NAMED_UNIT(*)
PLANE_ANGLE_UNIT()
SI_UNIT($,.RADIAN.)
);
#1100=(
LENGTH_UNIT()
NAMED_UNIT(*)
SI_UNIT($,.METRE.)
);
#1101=PRODUCT_DEFINITION_SHAPE('','',#1102);
#1102=PRODUCT_DEFINITION('','',#1104,#1103);
#1103=PRODUCT_DEFINITION_CONTEXT('',#1110,'design');
#1104=PRODUCT_DEFINITION_FORMATION_WITH_SPECIFIED_SOURCE('','',#1106,.NOT_KNOWN.);
#1105=PRODUCT_RELATED_PRODUCT_CATEGORY('','',(#1106));
#1106=PRODUCT('Part 1','Part 1','Part 1',(#1108));
#1107=PRODUCT_CATEGORY('','');
#1108=PRODUCT_CONTEXT('',#1110,'mechanical');
#1109=APPLICATION_PROTOCOL_DEFINITION('international standard','ap242_managed_model_based_3d_engineering',2020,#1110);
#1110=APPLICATION_CONTEXT('managed model based 3d engineering');
ENDSEC;
END-ISO-10303-21;
