ISO-10303-21;
HEADER;
/*Generated by software containing ST-Developer
 * from STEP Tools, Inc. (www.steptools.com) 
 */
/*OPTION: using custom renumber hook */
/*description */
/*implementation_level */
FILE_DESCRIPTION(('STEP AP242 Edition 2','STEP AP242 Edition 2''CAx-IF Rec.Pracs.---Representation and Presentation of Product Manufa
cturing Information (PMI)---4.0---2014-10-13','STEP AP242 Edition 2''CAx-IF Rec.Pracs.---Representation and Presentation of Product Manufa
cturing Information (PMI)---4.0---2014-10-13''CAx-IF Rec.Pracs.---3D Tessellated Geometry---0.4---2014-09-14','STEP AP242 Edition 2''CAx-IF Rec.Pracs.---Representation and Presentation of Product Manufa
cturing Information (PMI)---4.0---2014-10-13''CAx-IF Rec.Pracs.---3D Tessellated Geometry---0.4---2014-09-14''2;1','STEP AP242 Edition 2''CAx-IF Rec.Pracs.---Representation and Presentation of Product Manufa
cturing Information (PMI)---4.0---2014-10-13''CAx-IF Rec.Pracs.---3D Tessellated Geometry---0.4---2014-09-14''2;1''CAx-IF Rec.Pracs.---User Defined Attributes---1.5---2016-08-15'),'2;1');
/*name */
/*time_stamp */
/*author */
/*organization */
/*preprocessor_version */
/*originating_system */
/*authorisation */
FILE_NAME('/vol/tmp/translate-15455860960417271467/Part Studio 1 - Part 2.step','2026-03-09T18:49:00',(''),(''),'ST-DEVELOPER v20','ONSHAPE BY PTC INC, 1.211','  ');
FILE_SCHEMA(('AP242_MANAGED_MODEL_BASED_3D_ENGINEERING_MIM_LF { 1 0 10303 442 3 1 4 }'));
ENDSEC;
DATA;
#10=SHAPE_REPRESENTATION_RELATIONSHIP('','',#203,#11);
#11=ADVANCED_BREP_SHAPE_REPRESENTATION('',(#201),#313);
#12=ORIENTED_EDGE('',*,*,#60,.T.);
#13=ORIENTED_EDGE('',*,*,#61,.F.);
#14=ORIENTED_EDGE('',*,*,#62,.F.);
#15=ORIENTED_EDGE('',*,*,#63,.T.);
#16=ORIENTED_EDGE('',*,*,#64,.F.);
#17=ORIENTED_EDGE('',*,*,#63,.F.);
#18=ORIENTED_EDGE('',*,*,#65,.T.);
#19=ORIENTED_EDGE('',*,*,#66,.T.);
#20=ORIENTED_EDGE('',*,*,#67,.T.);
#21=ORIENTED_EDGE('',*,*,#68,.F.);
#22=ORIENTED_EDGE('',*,*,#69,.F.);
#23=ORIENTED_EDGE('',*,*,#70,.T.);
#24=ORIENTED_EDGE('',*,*,#71,.F.);
#25=ORIENTED_EDGE('',*,*,#70,.F.);
#26=ORIENTED_EDGE('',*,*,#72,.T.);
#27=ORIENTED_EDGE('',*,*,#73,.T.);
#28=ORIENTED_EDGE('',*,*,#74,.F.);
#29=ORIENTED_EDGE('',*,*,#73,.F.);
#30=ORIENTED_EDGE('',*,*,#75,.T.);
#31=ORIENTED_EDGE('',*,*,#76,.T.);
#32=ORIENTED_EDGE('',*,*,#77,.T.);
#33=ORIENTED_EDGE('',*,*,#76,.F.);
#34=ORIENTED_EDGE('',*,*,#78,.F.);
#35=ORIENTED_EDGE('',*,*,#68,.T.);
#36=ORIENTED_EDGE('',*,*,#79,.F.);
#37=ORIENTED_EDGE('',*,*,#66,.F.);
#38=ORIENTED_EDGE('',*,*,#80,.T.);
#39=ORIENTED_EDGE('',*,*,#81,.T.);
#40=ORIENTED_EDGE('',*,*,#69,.T.);
#41=ORIENTED_EDGE('',*,*,#78,.T.);
#42=ORIENTED_EDGE('',*,*,#75,.F.);
#43=ORIENTED_EDGE('',*,*,#72,.F.);
#44=ORIENTED_EDGE('',*,*,#62,.T.);
#45=ORIENTED_EDGE('',*,*,#82,.T.);
#46=ORIENTED_EDGE('',*,*,#80,.F.);
#47=ORIENTED_EDGE('',*,*,#65,.F.);
#48=ORIENTED_EDGE('',*,*,#67,.F.);
#49=ORIENTED_EDGE('',*,*,#71,.T.);
#50=ORIENTED_EDGE('',*,*,#74,.T.);
#51=ORIENTED_EDGE('',*,*,#77,.F.);
#52=ORIENTED_EDGE('',*,*,#79,.T.);
#53=ORIENTED_EDGE('',*,*,#83,.F.);
#54=ORIENTED_EDGE('',*,*,#60,.F.);
#55=ORIENTED_EDGE('',*,*,#64,.T.);
#56=ORIENTED_EDGE('',*,*,#83,.T.);
#57=ORIENTED_EDGE('',*,*,#81,.F.);
#58=ORIENTED_EDGE('',*,*,#82,.F.);
#59=ORIENTED_EDGE('',*,*,#61,.T.);
#60=EDGE_CURVE('',#84,#85,#100,.T.);
#61=EDGE_CURVE('',#86,#85,#101,.T.);
#62=EDGE_CURVE('',#87,#86,#102,.T.);
#63=EDGE_CURVE('',#87,#84,#103,.T.);
#64=EDGE_CURVE('',#84,#88,#104,.T.);
#65=EDGE_CURVE('',#87,#89,#105,.T.);
#66=EDGE_CURVE('',#89,#88,#106,.T.);
#67=EDGE_CURVE('',#90,#91,#107,.T.);
#68=EDGE_CURVE('',#92,#91,#108,.T.);
#69=EDGE_CURVE('',#93,#92,#109,.T.);
#70=EDGE_CURVE('',#93,#90,#110,.T.);
#71=EDGE_CURVE('',#90,#94,#111,.T.);
#72=EDGE_CURVE('',#93,#95,#112,.T.);
#73=EDGE_CURVE('',#95,#94,#113,.T.);
#74=EDGE_CURVE('',#94,#96,#114,.T.);
#75=EDGE_CURVE('',#95,#97,#115,.T.);
#76=EDGE_CURVE('',#97,#96,#116,.T.);
#77=EDGE_CURVE('',#91,#96,#117,.T.);
#78=EDGE_CURVE('',#92,#97,#118,.T.);
#79=EDGE_CURVE('',#88,#98,#119,.T.);
#80=EDGE_CURVE('',#89,#99,#120,.T.);
#81=EDGE_CURVE('',#99,#98,#121,.T.);
#82=EDGE_CURVE('',#86,#99,#122,.T.);
#83=EDGE_CURVE('',#85,#98,#123,.T.);
#84=VERTEX_POINT('',#264);
#85=VERTEX_POINT('',#265);
#86=VERTEX_POINT('',#267);
#87=VERTEX_POINT('',#269);
#88=VERTEX_POINT('',#273);
#89=VERTEX_POINT('',#275);
#90=VERTEX_POINT('',#279);
#91=VERTEX_POINT('',#280);
#92=VERTEX_POINT('',#282);
#93=VERTEX_POINT('',#284);
#94=VERTEX_POINT('',#288);
#95=VERTEX_POINT('',#290);
#96=VERTEX_POINT('',#294);
#97=VERTEX_POINT('',#296);
#98=VERTEX_POINT('',#303);
#99=VERTEX_POINT('',#305);
#100=LINE('',#263,#124);
#101=LINE('',#266,#125);
#102=LINE('',#268,#126);
#103=LINE('',#270,#127);
#104=LINE('',#272,#128);
#105=LINE('',#274,#129);
#106=LINE('',#276,#130);
#107=LINE('',#278,#131);
#108=LINE('',#281,#132);
#109=LINE('',#283,#133);
#110=LINE('',#285,#134);
#111=LINE('',#287,#135);
#112=LINE('',#289,#136);
#113=LINE('',#291,#137);
#114=LINE('',#293,#138);
#115=LINE('',#295,#139);
#116=LINE('',#297,#140);
#117=LINE('',#299,#141);
#118=LINE('',#300,#142);
#119=LINE('',#302,#143);
#120=LINE('',#304,#144);
#121=LINE('',#306,#145);
#122=LINE('',#308,#146);
#123=LINE('',#310,#147);
#124=VECTOR('',#219,1.);
#125=VECTOR('',#220,1.);
#126=VECTOR('',#221,1.);
#127=VECTOR('',#222,1.);
#128=VECTOR('',#225,1.);
#129=VECTOR('',#226,1.);
#130=VECTOR('',#227,1.);
#131=VECTOR('',#230,1.);
#132=VECTOR('',#231,1.);
#133=VECTOR('',#232,1.);
#134=VECTOR('',#233,1.);
#135=VECTOR('',#236,1.);
#136=VECTOR('',#237,1.);
#137=VECTOR('',#238,1.);
#138=VECTOR('',#241,1.);
#139=VECTOR('',#242,1.);
#140=VECTOR('',#243,1.);
#141=VECTOR('',#246,1.);
#142=VECTOR('',#247,1.);
#143=VECTOR('',#250,1.);
#144=VECTOR('',#251,1.);
#145=VECTOR('',#252,1.);
#146=VECTOR('',#255,1.);
#147=VECTOR('',#258,1.);
#148=EDGE_LOOP('',(#12,#13,#14,#15));
#149=EDGE_LOOP('',(#16,#17,#18,#19));
#150=EDGE_LOOP('',(#20,#21,#22,#23));
#151=EDGE_LOOP('',(#24,#25,#26,#27));
#152=EDGE_LOOP('',(#28,#29,#30,#31));
#153=EDGE_LOOP('',(#32,#33,#34,#35));
#154=EDGE_LOOP('',(#36,#37,#38,#39));
#155=EDGE_LOOP('',(#40,#41,#42,#43));
#156=EDGE_LOOP('',(#44,#45,#46,#47));
#157=EDGE_LOOP('',(#48,#49,#50,#51));
#158=EDGE_LOOP('',(#52,#53,#54,#55));
#159=EDGE_LOOP('',(#56,#57,#58,#59));
#160=FACE_BOUND('',#148,.T.);
#161=FACE_BOUND('',#149,.T.);
#162=FACE_BOUND('',#150,.T.);
#163=FACE_BOUND('',#151,.T.);
#164=FACE_BOUND('',#152,.T.);
#165=FACE_BOUND('',#153,.T.);
#166=FACE_BOUND('',#154,.T.);
#167=FACE_BOUND('',#155,.T.);
#168=FACE_BOUND('',#156,.T.);
#169=FACE_BOUND('',#157,.T.);
#170=FACE_BOUND('',#158,.T.);
#171=FACE_BOUND('',#159,.T.);
#172=PLANE('',#205);
#173=PLANE('',#206);
#174=PLANE('',#207);
#175=PLANE('',#208);
#176=PLANE('',#209);
#177=PLANE('',#210);
#178=PLANE('',#211);
#179=PLANE('',#212);
#180=PLANE('',#213);
#181=PLANE('',#214);
#182=ADVANCED_FACE('',(#160),#172,.F.);
#183=ADVANCED_FACE('',(#161),#173,.T.);
#184=ADVANCED_FACE('',(#162),#174,.F.);
#185=ADVANCED_FACE('',(#163),#175,.T.);
#186=ADVANCED_FACE('',(#164),#176,.T.);
#187=ADVANCED_FACE('',(#165),#177,.F.);
#188=ADVANCED_FACE('',(#166),#178,.T.);
#189=ADVANCED_FACE('',(#167,#168),#179,.F.);
#190=ADVANCED_FACE('',(#169,#170),#180,.T.);
#191=ADVANCED_FACE('',(#171),#181,.F.);
#192=CLOSED_SHELL('',(#182,#183,#184,#185,#186,#187,#188,#189,#190,#191));
#193=STYLED_ITEM('',(#194),#201);
#194=PRESENTATION_STYLE_ASSIGNMENT((#195));
#195=SURFACE_STYLE_USAGE(.BOTH.,#196);
#196=SURFACE_SIDE_STYLE('',(#197));
#197=SURFACE_STYLE_FILL_AREA(#198);
#198=FILL_AREA_STYLE('',(#199));
#199=FILL_AREA_STYLE_COLOUR('',#200);
#200=COLOUR_RGB('',0.647058823529412,0.647058823529412,0.647058823529412);
#201=MANIFOLD_SOLID_BREP('Part 2',#192);
#202=SHAPE_DEFINITION_REPRESENTATION(#318,#203);
#203=SHAPE_REPRESENTATION('Part 2',(#204),#313);
#204=AXIS2_PLACEMENT_3D('',#261,#215,#216);
#205=AXIS2_PLACEMENT_3D('',#262,#217,#218);
#206=AXIS2_PLACEMENT_3D('',#271,#223,#224);
#207=AXIS2_PLACEMENT_3D('',#277,#228,#229);
#208=AXIS2_PLACEMENT_3D('',#286,#234,#235);
#209=AXIS2_PLACEMENT_3D('',#292,#239,#240);
#210=AXIS2_PLACEMENT_3D('',#298,#244,#245);
#211=AXIS2_PLACEMENT_3D('',#301,#248,#249);
#212=AXIS2_PLACEMENT_3D('',#307,#253,#254);
#213=AXIS2_PLACEMENT_3D('',#309,#256,#257);
#214=AXIS2_PLACEMENT_3D('',#311,#259,#260);
#215=DIRECTION('',(0.,0.,1.));
#216=DIRECTION('',(1.,0.,0.));
#217=DIRECTION('',(0.,-1.,0.));
#218=DIRECTION('',(0.,0.,-1.));
#219=DIRECTION('',(1.,0.,0.));
#220=DIRECTION('',(0.,0.,1.));
#221=DIRECTION('',(1.,0.,0.));
#222=DIRECTION('',(0.,0.,1.));
#223=DIRECTION('',(-1.,0.,0.));
#224=DIRECTION('',(0.,0.,1.));
#225=DIRECTION('',(0.,-1.,0.));
#226=DIRECTION('',(0.,-1.,0.));
#227=DIRECTION('',(0.,0.,1.));
#228=DIRECTION('',(-1.,0.,0.));
#229=DIRECTION('',(0.,0.,1.));
#230=DIRECTION('',(0.,-1.,0.));
#231=DIRECTION('',(0.,0.,1.));
#232=DIRECTION('',(0.,-1.,0.));
#233=DIRECTION('',(0.,0.,1.));
#234=DIRECTION('',(1.44560289664734E-16,-1.,0.));
#235=DIRECTION('',(1.,1.44560289664734E-16,0.));
#236=DIRECTION('',(1.,1.44560289664734E-16,0.));
#237=DIRECTION('',(1.,1.44560289664734E-16,0.));
#238=DIRECTION('',(0.,0.,1.));
#239=DIRECTION('',(-1.,0.,0.));
#240=DIRECTION('',(0.,0.,1.));
#241=DIRECTION('',(0.,-1.,0.));
#242=DIRECTION('',(0.,-1.,0.));
#243=DIRECTION('',(0.,0.,1.));
#244=DIRECTION('',(1.44560289664734E-16,-1.,0.));
#245=DIRECTION('',(1.,1.44560289664734E-16,0.));
#246=DIRECTION('',(1.,1.44560289664734E-16,0.));
#247=DIRECTION('',(1.,1.44560289664734E-16,0.));
#248=DIRECTION('',(0.,-1.,0.));
#249=DIRECTION('',(0.,0.,-1.));
#250=DIRECTION('',(1.,0.,0.));
#251=DIRECTION('',(1.,0.,0.));
#252=DIRECTION('',(0.,0.,1.));
#253=DIRECTION('',(0.,0.,1.));
#254=DIRECTION('',(1.,0.,0.));
#255=DIRECTION('',(0.,-1.,0.));
#256=DIRECTION('',(0.,0.,1.));
#257=DIRECTION('',(1.,0.,0.));
#258=DIRECTION('',(0.,-1.,0.));
#259=DIRECTION('',(-1.,0.,0.));
#260=DIRECTION('',(0.,0.,1.));
#261=CARTESIAN_POINT('',(0.,0.,0.));
#262=CARTESIAN_POINT('',(-0.0291334080994128,0.0696516834170233,0.013));
#263=CARTESIAN_POINT('',(-0.0291334080994128,0.0696516834170233,0.015));
#264=CARTESIAN_POINT('',(-0.204133408099412,0.0696516834170233,0.015));
#265=CARTESIAN_POINT('',(-0.169133408099413,0.0696516834170233,0.015));
#266=CARTESIAN_POINT('',(-0.169133408099413,0.0696516834170233,0.013));
#267=CARTESIAN_POINT('',(-0.169133408099413,0.0696516834170233,0.013));
#268=CARTESIAN_POINT('',(-0.0291334080994128,0.0696516834170233,0.013));
#269=CARTESIAN_POINT('',(-0.204133408099412,0.0696516834170233,0.013));
#270=CARTESIAN_POINT('',(-0.204133408099412,0.0696516834170233,0.013));
#271=CARTESIAN_POINT('',(-0.204133408099412,0.0101516834170234,0.013));
#272=CARTESIAN_POINT('',(-0.204133408099412,0.0101516834170234,0.015));
#273=CARTESIAN_POINT('',(-0.204133408099412,-0.0493483165829765,0.015));
#274=CARTESIAN_POINT('',(-0.204133408099412,0.0101516834170234,0.013));
#275=CARTESIAN_POINT('',(-0.204133408099412,-0.0493483165829765,0.013));
#276=CARTESIAN_POINT('',(-0.204133408099412,-0.0493483165829765,0.013));
#277=CARTESIAN_POINT('',(-0.200133408099413,0.00665168341702332,0.013));
#278=CARTESIAN_POINT('',(-0.200133408099413,0.00665168341702332,0.015));
#279=CARTESIAN_POINT('',(-0.200133408099413,0.0286516834170233,0.015));
#280=CARTESIAN_POINT('',(-0.200133408099413,-0.0153483165829767,0.015));
#281=CARTESIAN_POINT('',(-0.200133408099413,-0.0153483165829767,0.013));
#282=CARTESIAN_POINT('',(-0.200133408099413,-0.0153483165829767,0.013));
#283=CARTESIAN_POINT('',(-0.200133408099413,0.00665168341702332,0.013));
#284=CARTESIAN_POINT('',(-0.200133408099413,0.0286516834170233,0.013));
#285=CARTESIAN_POINT('',(-0.200133408099413,0.0286516834170233,0.013));
#286=CARTESIAN_POINT('',(-0.188133408099413,0.0286516834170233,0.013));
#287=CARTESIAN_POINT('',(-0.188133408099413,0.0286516834170233,0.015));
#288=CARTESIAN_POINT('',(-0.176133408099412,0.0286516834170233,0.015));
#289=CARTESIAN_POINT('',(-0.188133408099413,0.0286516834170233,0.013));
#290=CARTESIAN_POINT('',(-0.176133408099412,0.0286516834170233,0.013));
#291=CARTESIAN_POINT('',(-0.176133408099412,0.0286516834170233,0.013));
#292=CARTESIAN_POINT('',(-0.176133408099412,0.00665168341702332,0.013));
#293=CARTESIAN_POINT('',(-0.176133408099412,0.00665168341702332,0.015));
#294=CARTESIAN_POINT('',(-0.176133408099412,-0.0153483165829767,0.015));
#295=CARTESIAN_POINT('',(-0.176133408099412,0.00665168341702332,0.013));
#296=CARTESIAN_POINT('',(-0.176133408099412,-0.0153483165829767,0.013));
#297=CARTESIAN_POINT('',(-0.176133408099412,-0.0153483165829767,0.013));
#298=CARTESIAN_POINT('',(-0.188133408099413,-0.0153483165829767,0.013));
#299=CARTESIAN_POINT('',(-0.188133408099413,-0.0153483165829767,0.015));
#300=CARTESIAN_POINT('',(-0.188133408099413,-0.0153483165829767,0.013));
#301=CARTESIAN_POINT('',(-0.0291334080994119,-0.0493483165829765,0.013));
#302=CARTESIAN_POINT('',(-0.0291334080994119,-0.0493483165829765,0.015));
#303=CARTESIAN_POINT('',(-0.169133408099413,-0.0493483165829765,0.015));
#304=CARTESIAN_POINT('',(-0.0291334080994119,-0.0493483165829765,0.013));
#305=CARTESIAN_POINT('',(-0.169133408099413,-0.0493483165829765,0.013));
#306=CARTESIAN_POINT('',(-0.169133408099413,-0.0493483165829765,0.013));
#307=CARTESIAN_POINT('',(-0.0291334080994119,0.0101516834170234,0.013));
#308=CARTESIAN_POINT('',(-0.169133408099413,0.0101516834170234,0.013));
#309=CARTESIAN_POINT('',(-0.0291334080994119,0.0101516834170234,0.015));
#310=CARTESIAN_POINT('',(-0.169133408099413,0.0101516834170234,0.015));
#311=CARTESIAN_POINT('',(-0.169133408099413,0.0101516834170234,0.013));
#312=MECHANICAL_DESIGN_GEOMETRIC_PRESENTATION_REPRESENTATION('',(#193),#313);
#313=(
GEOMETRIC_REPRESENTATION_CONTEXT(3)
GLOBAL_UNCERTAINTY_ASSIGNED_CONTEXT((#314))
GLOBAL_UNIT_ASSIGNED_CONTEXT((#317,#316,#315))
REPRESENTATION_CONTEXT('Part 2','TOP_LEVEL_ASSEMBLY_PART')
);
#314=UNCERTAINTY_MEASURE_WITH_UNIT(LENGTH_MEASURE(1.E-08),#317,'DISTANCE_ACCURACY_VALUE','Maximum Tolerance applied to model');
#315=(
NAMED_UNIT(*)
SI_UNIT($,.STERADIAN.)
SOLID_ANGLE_UNIT()
);
#316=(
NAMED_UNIT(*)
PLANE_ANGLE_UNIT()
SI_UNIT($,.RADIAN.)
);
#317=(
LENGTH_UNIT()
NAMED_UNIT(*)
SI_UNIT($,.METRE.)
);
#318=PRODUCT_DEFINITION_SHAPE('','',#319);
#319=PRODUCT_DEFINITION('','',#321,#320);
#320=PRODUCT_DEFINITION_CONTEXT('',#327,'design');
#321=PRODUCT_DEFINITION_FORMATION_WITH_SPECIFIED_SOURCE('','',#323,.NOT_KNOWN.);
#322=PRODUCT_RELATED_PRODUCT_CATEGORY('','',(#323));
#323=PRODUCT('Part 2','Part 2','Part 2',(#325));
#324=PRODUCT_CATEGORY('','');
#325=PRODUCT_CONTEXT('',#327,'mechanical');
#326=APPLICATION_PROTOCOL_DEFINITION('international standard','ap242_managed_model_based_3d_engineering',2020,#327);
#327=APPLICATION_CONTEXT('managed model based 3d engineering');
ENDSEC;
END-ISO-10303-21;
